<svg width="40" height="40" viewBox="0 0 40 40" fill="none" xmlns="http://www.w3.org/2000/svg">
<path d="M21.9 14.3H18.1V10.5H21.9M21.9 29.5H18.1V18.1H21.9M20 1C17.5049 1 15.0342 1.49145 12.729 2.44629C10.4238 3.40113 8.32928 4.80066 6.56497 6.56497C3.00178 10.1282 1 14.9609 1 20C1 25.0391 3.00178 29.8718 6.56497 33.435C8.32928 35.1993 10.4238 36.5989 12.729 37.5537C15.0342 38.5086 17.5049 39 20 39C25.0391 39 29.8718 36.9982 33.435 33.435C36.9982 29.8718 39 25.0391 39 20C39 17.5049 38.5086 15.0342 37.5537 12.729C36.5989 10.4238 35.1993 8.32928 33.435 6.56497C31.6707 4.80066 29.5762 3.40113 27.271 2.44629C24.9658 1.49145 22.4951 1 20 1V1Z" fill="#FBAD18"/>
</svg>
