<svg width="231" height="201" viewBox="0 0 231 201" fill="none" xmlns="http://www.w3.org/2000/svg">
<g clip-path="url(#clip0_154_1626)">
<path d="M193.025 34.3812C198.283 34.3812 202.546 30.1258 202.546 24.8766C202.546 19.6274 198.283 15.3721 193.025 15.3721C187.767 15.3721 183.504 19.6274 183.504 24.8766C183.504 30.1258 187.767 34.3812 193.025 34.3812Z" stroke="#D8E1EF" stroke-width="0.709" stroke-miterlimit="10"/>
<path d="M211.514 100.973C211.178 100.638 210.949 100.211 210.857 99.7468C210.764 99.2822 210.811 98.8006 210.993 98.3628C211.174 97.9251 211.481 97.5509 211.876 97.2876C212.271 97.0243 212.734 96.8838 213.209 96.8838C213.684 96.8838 214.148 97.0243 214.542 97.2876C214.937 97.5509 215.244 97.9251 215.425 98.3628C215.607 98.8006 215.654 99.2822 215.561 99.7468C215.469 100.211 215.24 100.638 214.904 100.973C214.454 101.421 213.845 101.673 213.209 101.673C212.573 101.673 211.964 101.421 211.514 100.973V100.973Z" stroke="#D8E1EF" stroke-width="0.709" stroke-miterlimit="10"/>
<path d="M65.0142 2.52249H63.2529C63.1697 2.51969 63.091 2.48406 63.034 2.42341C62.9771 2.36276 62.9466 2.28204 62.9492 2.19896V0.323016C62.9517 0.240026 62.9211 0.159437 62.8642 0.0988956C62.8073 0.038354 62.7287 0.00279363 62.6455 0V0C62.5624 0.00266043 62.4837 0.0381802 62.4267 0.0987518C62.3698 0.159323 62.3393 0.239989 62.3419 0.323016V2.19896C62.3445 2.28204 62.314 2.36276 62.2571 2.42341C62.2001 2.48406 62.1214 2.51969 62.0382 2.52249H60.2779C60.1948 2.52528 60.1162 2.56084 60.0593 2.62138C60.0024 2.68192 59.9718 2.76251 59.9743 2.8455V2.8455C59.9717 2.92858 60.0022 3.0093 60.0591 3.06995C60.116 3.1306 60.1947 3.16624 60.2779 3.16903H62.0397C62.1229 3.17182 62.2017 3.20745 62.2586 3.26811C62.3155 3.32876 62.346 3.40948 62.3434 3.49256V5.3685C62.3408 5.45153 62.3713 5.53219 62.4282 5.59276C62.4852 5.65333 62.5639 5.68885 62.6471 5.69151C62.7302 5.68872 62.8088 5.65316 62.8657 5.59262C62.9227 5.53208 62.9532 5.45149 62.9507 5.3685V3.49256C62.9481 3.40948 62.9786 3.32876 63.0356 3.26811C63.0925 3.20745 63.1712 3.17182 63.2544 3.16903H65.0157C65.0989 3.16624 65.1776 3.1306 65.2345 3.06995C65.2915 3.0093 65.322 2.92858 65.3194 2.8455C65.3206 2.80427 65.3138 2.76318 65.2991 2.72461C65.2845 2.68603 65.2623 2.65072 65.234 2.62071C65.2056 2.5907 65.1716 2.56657 65.1339 2.54972C65.0962 2.53286 65.0555 2.52361 65.0142 2.52249V2.52249Z" fill="#D8E1EF"/>
<path d="M72.6288 10.6041H69.7442C69.6122 10.6041 69.4856 10.5517 69.3923 10.4586C69.299 10.3654 69.2466 10.2391 69.2466 10.1073V7.22769C69.2466 7.09608 69.1942 6.96986 69.101 6.87679C69.0077 6.78373 68.8813 6.73145 68.7495 6.73145V6.73145C68.6176 6.73145 68.4911 6.78371 68.3978 6.87676C68.3045 6.96981 68.252 7.09603 68.2519 7.22769V10.1073C68.2519 10.1725 68.2391 10.2371 68.2142 10.2974C68.1892 10.3577 68.1526 10.4124 68.1064 10.4586C68.0603 10.5047 68.0055 10.5413 67.9451 10.5663C67.8848 10.5912 67.8201 10.6041 67.7548 10.6041H64.8702C64.7383 10.6041 64.6118 10.6563 64.5185 10.7494C64.4252 10.8424 64.3727 10.9687 64.3726 11.1003V11.1003C64.3726 11.2321 64.425 11.3584 64.5183 11.4516C64.6116 11.5447 64.7382 11.5971 64.8702 11.5971H67.7548C67.8866 11.5971 68.013 11.6494 68.1063 11.7424C68.1995 11.8355 68.2519 11.9617 68.2519 12.0933V14.973C68.2519 15.1047 68.3043 15.2311 68.3976 15.3242C68.4909 15.4174 68.6175 15.4697 68.7495 15.4697V15.4697C68.8148 15.4697 68.8795 15.4569 68.9398 15.4319C69.0002 15.4069 69.055 15.3703 69.1012 15.3242C69.1473 15.2781 69.1839 15.2233 69.2089 15.163C69.2338 15.1028 69.2466 15.0382 69.2466 14.973V12.0933C69.2467 11.9617 69.2992 11.8354 69.3925 11.7424C69.4858 11.6493 69.6123 11.5971 69.7442 11.5971H72.6288C72.6941 11.5971 72.7588 11.5842 72.8191 11.5593C72.8795 11.5343 72.9343 11.4977 72.9805 11.4516C73.0266 11.4054 73.0632 11.3507 73.0882 11.2904C73.1131 11.2301 73.1259 11.1655 73.1259 11.1003V11.1003C73.1259 11.0352 73.113 10.9706 73.088 10.9104C73.0631 10.8502 73.0264 10.7955 72.9803 10.7494C72.9341 10.7033 72.8793 10.6668 72.819 10.6419C72.7587 10.6169 72.6941 10.6041 72.6288 10.6041V10.6041Z" fill="#D8E1EF"/>
<path d="M49.4554 68.7222C59.5842 67.6523 66.9264 58.5882 65.8547 48.4768C64.7829 38.3654 55.7031 31.0359 45.5744 32.1058C35.4456 33.1757 28.1034 42.2398 29.1752 52.3512C30.2469 62.4625 39.3267 69.7921 49.4554 68.7222Z" fill="#D8E1EF"/>
<path d="M64.2165 53.0974C65.7013 43.8889 59.4271 35.2224 50.2028 33.7402C40.9784 32.258 32.297 38.5214 30.8122 47.7299C29.3274 56.9384 35.6016 65.6049 44.8259 67.0871C54.0503 68.5693 62.7318 62.3059 64.2165 53.0974Z" fill="white"/>
<path d="M49.4909 39.6201C49.569 41.6408 49.5721 43.6594 49.5808 45.6785C49.5685 47.6976 49.5471 49.7157 49.4889 51.7338L49.4818 51.9824L49.2352 51.9763C47.7189 51.9391 46.2037 51.8866 44.6884 51.8107C43.9305 51.7715 43.1726 51.7465 42.4152 51.6961C41.6578 51.6456 40.9004 51.6059 40.1436 51.5407C40.9025 51.507 41.6609 51.4989 42.4198 51.479C43.1787 51.4591 43.9371 51.4663 44.6955 51.4586C46.2123 51.4449 47.7291 51.4551 49.2454 51.4805L48.9903 51.7236C49.0158 49.705 49.0781 47.6874 49.149 45.6698C49.2429 43.6527 49.3297 41.6357 49.4909 39.6201Z" fill="#D8E1EF"/>
<path d="M26.3907 92.4263C29.222 91.2464 30.5591 87.9986 29.3772 85.1721C28.1952 82.3456 24.9418 81.0108 22.1105 82.1907C19.2791 83.3706 17.942 86.6185 19.124 89.4449C20.3059 92.2714 23.5593 93.6062 26.3907 92.4263Z" stroke="#D8E1EF" stroke-width="0.709" stroke-miterlimit="10"/>
<path d="M47.8193 176.28C38.9389 175.318 24.7415 162.121 22.5393 150.097C21.3654 143.701 21.3527 136.352 25.0283 130.475C29.074 124.007 36.3707 121.115 41.8337 115.996C48.6048 109.653 52.4095 100.008 59.5705 94.241C64.96 89.9002 71.9393 88.3151 77.7845 90.1045C83.6297 91.8938 90.2696 98.5197 91.5328 105.05C93.3104 114.242 94.0897 118.112 95.4943 124.202C96.6416 129.174 95.2901 131.616 96.7855 136.429C100.353 147.905 95.4289 162.757 85.7202 171.004C76.0115 179.252 65.0692 178.506 50.8371 177.395" fill="#ECF0F7"/>
<path d="M200.964 194.537C202.11 191.284 204.25 188.104 207.573 186.941C211.236 185.659 216.261 186.708 218.346 183.514C218.848 182.692 219.051 181.722 218.922 180.767C218.792 179.813 218.338 178.931 217.636 178.271C216.894 177.631 215.962 177.253 214.983 177.194C214.004 177.135 213.033 177.399 212.22 177.945C211.424 175.389 213.744 172.963 216.095 171.628C218.445 170.292 221.239 169.197 222.387 166.792C223.534 164.387 221.005 160.658 218.643 161.975C217.817 162.433 217.2 163.415 216.245 163.37C215.29 163.325 214.717 162.168 214.94 161.263C215.164 160.357 215.902 159.676 216.607 159.05L223.037 153.338C224.73 151.834 226.524 150.15 226.853 147.932C227.182 145.714 225.076 143.102 222.896 143.805C221.333 144.31 220.03 146.278 218.539 145.566C217.19 144.921 217.665 142.939 218.469 141.72C220.505 138.637 223.348 136.12 225.331 133.008C227.315 129.895 228.322 125.743 226.366 122.568C225.539 121.225 224.08 120.123 222.482 120.177C220.378 120.248 218.915 122.164 217.907 123.956C215.15 128.851 213.345 134.222 212.586 139.785C210.826 139.679 210.194 137.511 209.83 135.827C209.466 134.144 208.095 132.076 206.474 132.726C206.153 132.89 205.871 133.121 205.647 133.403C205.424 133.686 205.265 134.013 205.18 134.363C203.511 139.507 209.059 144.121 210.554 149.35C210.953 150.747 211.039 152.305 210.357 153.579C209.674 154.853 208.06 155.713 206.658 155.217C205.06 154.652 203.196 152.67 202.217 154.005C201.704 154.703 202.198 155.665 202.658 156.409C204.581 159.508 205.938 162.924 206.665 166.497C207.108 168.684 207.217 171.204 205.695 172.845C204.174 174.487 200.58 173.975 200.414 171.754C199.342 171.606 198.493 172.764 198.526 173.818C198.558 174.872 199.169 175.819 199.675 176.756C200.862 178.976 201.543 181.431 201.67 183.944C201.797 186.458 201.366 188.968 200.408 191.296" fill="#D8E1EF"/>
<path d="M23.9796 194.012L9.71328 172.33C8.75685 170.877 10.2512 168.967 11.8318 169.645C15.8854 171.391 19.3003 174.343 21.6099 178.099C22.7057 171.937 17.9409 166.56 13.5273 162.321C10.018 158.95 6.24737 154.926 5.32003 150.309C5.23397 149.884 5.26011 149.444 5.3959 149.032C5.53169 148.62 5.77246 148.251 6.09455 147.96C6.41664 147.669 6.80899 147.467 7.23307 147.373C7.65715 147.279 8.09837 147.297 8.5134 147.425C12.5059 148.753 16.0251 151.212 18.6422 154.502C14.6913 147.13 9.73917 140.338 3.92622 134.319C2.50557 132.951 1.28781 131.387 0.309754 129.675C-0.789577 127.528 1.21617 125.003 3.48169 125.727C6.03206 126.542 8.39242 127.86 10.4227 129.603C5.12507 122.419 -0.463452 114.058 1.16717 105.115C1.50963 103.237 2.24966 101.275 4.65502 100.85C5.64428 100.683 6.6611 100.837 7.55646 101.288C9.66275 102.339 10.8739 104.469 11.8629 106.58C14.2398 111.681 15.759 117.137 16.3593 122.731C16.3793 122.947 16.4656 123.151 16.6066 123.315C16.7475 123.48 16.936 123.597 17.1463 123.651C17.3565 123.704 17.5782 123.691 17.7808 123.613C17.9834 123.536 18.157 123.398 18.2778 123.218C20.0911 120.495 19.4684 114.923 22.7608 114.032C23.5388 113.846 24.3581 113.955 25.061 114.336C25.764 114.717 26.3011 115.343 26.5692 116.096C27.6808 118.949 26.3262 121.617 25.2361 124.19C22.6875 130.217 21.4057 136.703 21.4701 143.245C22.9359 142.442 24.4093 141.655 25.8904 140.884C28.9398 139.295 32.294 142.239 31.2253 145.56C29.6625 150.414 25.8695 155.44 25.5536 160.674C25.5051 161.475 25.5765 162.387 26.6427 162.645C27.129 162.74 27.6331 162.678 28.0818 162.468C28.5305 162.258 28.9005 161.911 29.1379 161.477C31.3324 157.75 35.4363 160.802 35.4583 163.95C35.4761 166.56 33.7674 168.838 32.1307 170.867C30.4939 172.897 28.7581 175.139 28.7041 177.749L33.2805 176.305C33.6964 176.183 34.1395 176.189 34.5521 176.321C34.9647 176.454 35.3278 176.707 35.5942 177.049C35.8607 177.39 36.0182 177.803 36.0463 178.235C36.0744 178.667 35.9717 179.097 35.7517 179.47C34.7545 181.328 33.0228 183 31.4233 184.419C28.6995 186.835 25.7944 190.334 27.0637 193.734" fill="#D8E1EF"/>
<path d="M153.496 117.78C183.858 119.641 193.437 109.214 201.436 101.03C205.691 96.6765 208.142 87.0043 207.975 80.786C207.791 73.9415 203.002 68.3182 200.916 61.8462C198.331 53.8248 199.968 44.6591 196.756 36.896C194.338 31.0541 189.157 26.5818 183.231 25.2235C177.305 23.8652 168.245 25.8426 163.843 30.2568C157.648 36.469 155.014 39.071 150.713 43.0807C147.203 46.3546 147.124 48.8573 143.392 51.8485C134.501 58.9752 131.178 72.6535 135.315 83.5051C139.452 94.3568 140.49 109.443 151.63 109.272" fill="#ECF0F7"/>
<path d="M114.479 201C176.062 201 225.984 198.689 225.984 195.838C225.984 192.988 176.062 190.677 114.479 190.677C52.8972 190.677 2.97485 192.988 2.97485 195.838C2.97485 198.689 52.8972 201 114.479 201Z" fill="#ECF0F7"/>
<path d="M147.983 9.4375H91.8933C85.4162 9.4375 80.1655 14.6792 80.1655 21.1451V175.016C80.1655 181.482 85.4162 186.723 91.8933 186.723H147.983C154.46 186.723 159.711 181.482 159.711 175.016V21.1451C159.711 14.6792 154.46 9.4375 147.983 9.4375Z" fill="white" stroke="#1D1D1B" stroke-miterlimit="10"/>
<path d="M89.4378 21.4426C89.233 21.3622 89.0758 21.2452 88.9661 21.0916C88.8564 20.9381 88.8016 20.7516 88.8016 20.5322C88.8016 20.3347 88.8509 20.1574 88.9497 20.0002C89.0484 19.8393 89.1947 19.7132 89.3884 19.6217C89.5859 19.5267 89.8236 19.4791 90.1014 19.4791C90.3793 19.4791 90.6152 19.5267 90.809 19.6217C91.0064 19.7132 91.1545 19.8393 91.2532 20.0002C91.3556 20.1574 91.4068 20.3347 91.4068 20.5322C91.4068 20.7443 91.3501 20.9307 91.2368 21.0916C91.1234 21.2489 90.968 21.3659 90.7706 21.4426C90.9973 21.5121 91.1764 21.6346 91.3081 21.8101C91.4434 21.982 91.511 22.1904 91.511 22.4354C91.511 22.673 91.4525 22.8815 91.3355 23.0606C91.2185 23.2361 91.0521 23.3733 90.8364 23.472C90.6243 23.567 90.3793 23.6146 90.1014 23.6146C89.8236 23.6146 89.5786 23.567 89.3665 23.472C89.1581 23.3733 88.9954 23.2361 88.8784 23.0606C88.7614 22.8815 88.7029 22.673 88.7029 22.4354C88.7029 22.1904 88.7687 21.9801 88.9003 21.8046C89.0319 21.6291 89.2111 21.5085 89.4378 21.4426ZM90.9241 20.5925C90.9241 20.3695 90.851 20.1976 90.7048 20.077C90.5585 19.9563 90.3574 19.896 90.1014 19.896C89.8492 19.896 89.6499 19.9563 89.5036 20.077C89.3574 20.1976 89.2842 20.3713 89.2842 20.598C89.2842 20.8028 89.3592 20.9673 89.5091 21.0916C89.6627 21.2159 89.8601 21.2781 90.1014 21.2781C90.3464 21.2781 90.5439 21.2159 90.6938 21.0916C90.8474 20.9637 90.9241 20.7973 90.9241 20.5925ZM90.1014 21.662C89.8309 21.662 89.6097 21.726 89.4378 21.854C89.266 21.9783 89.18 22.1666 89.18 22.4189C89.18 22.6529 89.2623 22.8412 89.4268 22.9838C89.595 23.1264 89.8199 23.1977 90.1014 23.1977C90.383 23.1977 90.606 23.1264 90.7706 22.9838C90.9351 22.8412 91.0174 22.6529 91.0174 22.4189C91.0174 22.1739 90.9333 21.9875 90.7651 21.8595C90.5969 21.7279 90.3757 21.662 90.1014 21.662ZM92.4152 23.5378C92.3201 23.5378 92.2397 23.5049 92.1739 23.4391C92.1081 23.3733 92.0752 23.2928 92.0752 23.1977C92.0752 23.1027 92.1081 23.0222 92.1739 22.9564C92.2397 22.8906 92.3201 22.8577 92.4152 22.8577C92.5066 22.8577 92.5834 22.8906 92.6456 22.9564C92.7114 23.0222 92.7443 23.1027 92.7443 23.1977C92.7443 23.2928 92.7114 23.3733 92.6456 23.4391C92.5834 23.5049 92.5066 23.5378 92.4152 23.5378ZM92.4152 21.1904C92.3201 21.1904 92.2397 21.1574 92.1739 21.0916C92.1081 21.0258 92.0752 20.9454 92.0752 20.8503C92.0752 20.7552 92.1081 20.6748 92.1739 20.609C92.2397 20.5432 92.3201 20.5103 92.4152 20.5103C92.5066 20.5103 92.5834 20.5432 92.6456 20.609C92.7114 20.6748 92.7443 20.7552 92.7443 20.8503C92.7443 20.9454 92.7114 21.0258 92.6456 21.0916C92.5834 21.1574 92.5066 21.1904 92.4152 21.1904ZM88.7029 28.5377C88.7285 28.2013 88.8583 27.938 89.0923 27.7479C89.3263 27.5578 89.6298 27.4627 90.0027 27.4627C90.2514 27.4627 90.4653 27.5084 90.6444 27.5998C90.8273 27.6876 90.9644 27.8082 91.0558 27.9618C91.1508 28.1154 91.1984 28.289 91.1984 28.4828C91.1984 28.7095 91.1326 28.9052 91.0009 29.0697C90.873 29.2342 90.7048 29.3403 90.4963 29.3878V29.4152C90.734 29.4737 90.9223 29.5889 91.0613 29.7608C91.2002 29.9326 91.2697 30.1575 91.2697 30.4354C91.2697 30.6438 91.2221 30.8321 91.1271 31.0003C91.032 31.1648 90.8894 31.2946 90.6993 31.3897C90.5091 31.4848 90.2806 31.5323 90.0137 31.5323C89.6261 31.5323 89.308 31.4318 89.0594 31.2306C88.8107 31.0259 88.6718 30.737 88.6425 30.3641H89.1252C89.1508 30.5835 89.2404 30.7626 89.3939 30.9016C89.5475 31.0405 89.7523 31.11 90.0082 31.11C90.2642 31.11 90.458 31.0442 90.5896 30.9125C90.7249 30.7773 90.7925 30.6036 90.7925 30.3915C90.7925 30.1173 90.7011 29.9198 90.5183 29.7992C90.3355 29.6785 90.0594 29.6182 89.6901 29.6182H89.564V29.2013H89.6956C90.032 29.1977 90.2861 29.1428 90.458 29.0368C90.6298 28.9271 90.7157 28.7589 90.7157 28.5322C90.7157 28.3384 90.6517 28.183 90.5238 28.066C90.3994 27.949 90.2203 27.8905 89.9863 27.8905C89.7596 27.8905 89.5767 27.949 89.4378 28.066C89.2989 28.183 89.2166 28.3402 89.191 28.5377H88.7029ZM88.7138 37.481C88.7138 36.8521 88.8162 36.3622 89.021 36.0112C89.2257 35.6565 89.5841 35.4791 90.096 35.4791C90.6042 35.4791 90.9607 35.6565 91.1655 36.0112C91.3702 36.3622 91.4726 36.8521 91.4726 37.481C91.4726 38.1209 91.3702 38.6182 91.1655 38.9729C90.9607 39.3275 90.6042 39.5049 90.096 39.5049C89.5841 39.5049 89.2257 39.3275 89.021 38.9729C88.8162 38.6182 88.7138 38.1209 88.7138 37.481ZM90.979 37.481C90.979 37.1629 90.9571 36.8942 90.9132 36.6748C90.873 36.4518 90.787 36.2726 90.6554 36.1373C90.5274 36.002 90.3409 35.9344 90.096 35.9344C89.8473 35.9344 89.6572 36.002 89.5256 36.1373C89.3976 36.2726 89.3117 36.4518 89.2678 36.6748C89.2276 36.8942 89.2074 37.1629 89.2074 37.481C89.2074 37.8101 89.2276 38.0862 89.2678 38.3092C89.3117 38.5323 89.3976 38.7114 89.5256 38.8467C89.6572 38.982 89.8473 39.0497 90.096 39.0497C90.3409 39.0497 90.5274 38.982 90.6554 38.8467C90.787 38.7114 90.873 38.5323 90.9132 38.3092C90.9571 38.0862 90.979 37.8101 90.979 37.481Z" fill="#817E84"/>
<path d="M139.239 19.4346H138.623V20.5045H139.239V19.4346Z" fill="#817E84"/>
<path d="M140.12 19.0029H139.504V20.5044H140.12V19.0029Z" fill="#817E84"/>
<path d="M141.002 18.5869H140.386V20.5046H141.002V18.5869Z" fill="#817E84"/>
<path d="M141.883 18.1113H141.268V20.5044H141.883V18.1113Z" fill="#817E84"/>
<path d="M143.224 19.3277C143.399 19.1401 143.612 18.9905 143.847 18.8882C144.083 18.7859 144.338 18.7331 144.595 18.7331C144.852 18.7331 145.106 18.7859 145.342 18.8882C145.578 18.9905 145.79 19.1401 145.965 19.3277L146.38 18.887C146.152 18.6417 145.876 18.4461 145.568 18.3123C145.261 18.1784 144.929 18.1094 144.594 18.1094C144.259 18.1094 143.927 18.1784 143.62 18.3123C143.312 18.4461 143.036 18.6417 142.808 18.887L143.224 19.3277Z" fill="#817E84"/>
<path d="M143.777 19.9153C143.882 19.8043 144.009 19.7158 144.149 19.6554C144.29 19.5949 144.441 19.5637 144.594 19.5637C144.747 19.5637 144.898 19.5949 145.039 19.6554C145.179 19.7158 145.305 19.8043 145.41 19.9153L145.825 19.4751C145.667 19.3064 145.477 19.1719 145.265 19.0799C145.053 18.9879 144.824 18.9404 144.593 18.9404C144.362 18.9404 144.133 18.9879 143.922 19.0799C143.71 19.1719 143.519 19.3064 143.361 19.4751L143.777 19.9153Z" fill="#817E84"/>
<path d="M144.331 20.5046C144.366 20.4699 144.407 20.4424 144.452 20.4236C144.497 20.4048 144.546 20.3952 144.595 20.3952C144.643 20.3952 144.692 20.4048 144.737 20.4236C144.782 20.4424 144.823 20.4699 144.858 20.5046L145.274 20.0629C145.186 19.9711 145.081 19.898 144.964 19.8481C144.848 19.7982 144.722 19.7725 144.595 19.7725C144.468 19.7725 144.342 19.7982 144.225 19.8481C144.109 19.898 144.003 19.9711 143.916 20.0629L144.331 20.5046Z" fill="#817E84"/>
<path d="M151.049 18.4014H147.357C147.295 18.4014 147.244 18.452 147.244 18.5145V20.1015C147.244 20.164 147.295 20.2146 147.357 20.2146H151.049C151.112 20.2146 151.163 20.164 151.163 20.1015V18.5145C151.163 18.452 151.112 18.4014 151.049 18.4014Z" fill="#817E84"/>
<path d="M151.455 18.918H151.367C151.304 18.918 151.254 18.9686 151.254 19.0311V19.5854C151.254 19.6479 151.304 19.6985 151.367 19.6985H151.455C151.518 19.6985 151.569 19.6479 151.569 19.5854V19.0311C151.569 18.9686 151.518 18.918 151.455 18.918Z" fill="#817E84"/>
<path d="M149.638 28.8135H90.0585C86.9441 28.8135 84.4194 31.3338 84.4194 34.4428V128.238C84.4194 131.347 86.9441 133.867 90.0585 133.867H149.638C152.752 133.867 155.277 131.347 155.277 128.238V34.4428C155.277 31.3338 152.752 28.8135 149.638 28.8135Z" fill="#F0EFED"/>
<path d="M134.102 44.7109L131.131 52.0206" stroke="white" stroke-width="0.992" stroke-miterlimit="10"/>
<path d="M98.6733 113.855L109.618 115.174" stroke="white" stroke-width="0.992" stroke-miterlimit="10"/>
<path d="M91.3394 25.2979L109.919 57.7728" stroke="white" stroke-width="0.992" stroke-miterlimit="10"/>
<path d="M142.79 42.4346L138.803 52.82" stroke="white" stroke-width="0.992" stroke-miterlimit="10"/>
<path d="M116.443 54.0225L130.042 67.7726C130.705 68.4513 131.128 69.3281 131.245 70.2691V70.2691C131.269 70.459 131.281 70.6503 131.281 70.8417V133.747L136.997 140.217" stroke="white" stroke-width="1.417" stroke-miterlimit="10"/>
<path d="M130.379 23.2607L116.688 54.2576" stroke="white" stroke-width="1.417" stroke-miterlimit="10"/>
<path d="M134.064 44.7512L123.383 39.4785" stroke="white" stroke-width="0.992" stroke-miterlimit="10"/>
<path d="M131.131 119.127L156.405 119.287" stroke="white" stroke-width="0.992" stroke-miterlimit="10"/>
<path d="M83.1404 53.1396L95.8526 65.9217L116.839 54.1785" stroke="white" stroke-width="1.417" stroke-miterlimit="10"/>
<path d="M95.8506 65.9209L97.9941 76.102C99.9146 85.2481 100.414 94.6348 99.4742 103.932L95.7776 140.537" stroke="white" stroke-width="1.417" stroke-miterlimit="10"/>
<path d="M99.4409 83.5999L112.326 79.5821C112.326 78.6238 112.476 74.2325 112.476 74.2325L121.803 70.877" stroke="white" stroke-width="1.417" stroke-miterlimit="10"/>
<path d="M117.441 72.6328L119.773 99.3556" stroke="white" stroke-width="0.992" stroke-miterlimit="10"/>
<path d="M125.527 63.166L121.803 71.3148" stroke="white" stroke-width="0.992" stroke-miterlimit="10"/>
<path d="M105.706 81.2605L101.494 62.6865" stroke="white" stroke-width="0.992" stroke-miterlimit="10"/>
<path d="M124.473 99.0361L124.06 112.657" stroke="white" stroke-width="0.992" stroke-miterlimit="10"/>
<path d="M103.149 71.0348L110.408 68.4385" stroke="white" stroke-width="0.992" stroke-miterlimit="10"/>
<path d="M110.408 68.4381L109.167 63.2852" stroke="white" stroke-width="0.992" stroke-miterlimit="10"/>
<path d="M131.582 85.4149H145.423V60.9691L149.56 45.3109L125.64 33.8066" stroke="white" stroke-width="1.417" stroke-miterlimit="10"/>
<path d="M82.8394 97.0781L90.5122 99.6347L87.9543 114.015L98.4852 115.932" stroke="white" stroke-width="1.417" stroke-miterlimit="10"/>
<path d="M89.6094 105.067L99.0869 106.985" stroke="white" stroke-width="0.992" stroke-miterlimit="10"/>
<path d="M97.5828 74.39L89.1581 77.426L82.2375 73.4316" stroke="white" stroke-width="1.417" stroke-miterlimit="10"/>
<path d="M143.316 119.287L143.467 140.378" stroke="white" stroke-width="0.992" stroke-miterlimit="10"/>
<path d="M131.131 126.158L114.281 125.359" stroke="white" stroke-width="1.417" stroke-miterlimit="10"/>
<path d="M112.777 140.538L115.334 106.665L99.5386 104.748" stroke="white" stroke-width="1.417" stroke-miterlimit="10"/>
<path d="M103.75 134.826L104.574 126.508L109.185 127.072L109.843 120.446" stroke="white" stroke-width="0.992" stroke-miterlimit="10"/>
<path d="M131.431 95.4804C131.655 95.4804 147.228 95.001 147.228 95.001V99.4748L159.413 99.6348" stroke="white" stroke-width="0.992" stroke-miterlimit="10"/>
<path d="M143.617 129.353C144.069 129.193 152.191 129.193 152.191 129.193" stroke="white" stroke-width="0.992" stroke-miterlimit="10"/>
<path d="M145.423 60.9688L135.794 61.1282" stroke="white" stroke-width="0.992" stroke-miterlimit="10"/>
<path d="M110.144 115.053C110.22 114.813 112.025 98.7559 112.025 98.7559L130.905 99.2353" stroke="white" stroke-width="1.417" stroke-miterlimit="10"/>
<path d="M102.23 38.1631C101.557 38.1833 100.919 38.4693 100.457 38.9583C99.9944 39.4474 99.7451 40.0995 99.7637 40.7717C99.7529 42.2227 102.17 46.0908 102.17 46.0908C102.17 46.0908 104.646 42.2594 104.657 40.8084C104.685 40.1366 104.446 39.4809 103.991 38.985C103.536 38.4891 102.903 38.1935 102.23 38.1631V38.1631ZM102.201 42.0097C101.935 42.0122 101.675 41.9355 101.453 41.7895C101.23 41.6436 101.057 41.4349 100.954 41.1901C100.851 40.9453 100.824 40.6755 100.875 40.4151C100.926 40.1546 101.054 39.9153 101.242 39.7276C101.43 39.5399 101.67 39.4123 101.931 39.3611C102.192 39.3099 102.462 39.3374 102.707 39.4401C102.952 39.5428 103.161 39.716 103.308 39.9378C103.454 40.1595 103.531 40.4196 103.528 40.6851C103.528 41.0361 103.389 41.3728 103.14 41.6212C102.891 41.8696 102.554 42.0093 102.203 42.0097H102.201Z" fill="#0A0A0A"/>
<path d="M102.34 45.373L110.153 58.6667L101.472 64.1615L105.466 82.7732L112.583 80.8234L115.708 99.9665H132.722" stroke="black" stroke-width="1.417" stroke-miterlimit="10" stroke-linecap="round"/>
<path d="M135.385 100.166C135.385 100.678 135.233 101.179 134.948 101.606C134.662 102.032 134.257 102.364 133.782 102.56C133.308 102.757 132.786 102.808 132.282 102.708C131.778 102.608 131.315 102.361 130.952 101.999C130.589 101.636 130.342 101.174 130.242 100.671C130.141 100.168 130.193 99.6472 130.389 99.1735C130.586 98.6998 130.919 98.295 131.346 98.0101C131.773 97.7253 132.275 97.5732 132.788 97.5732C133.477 97.5732 134.138 97.8464 134.625 98.3325C135.112 98.8187 135.385 99.478 135.385 100.166V100.166Z" fill="black"/>
<path d="M134.187 100.166C134.187 100.442 134.105 100.712 133.951 100.941C133.798 101.171 133.579 101.35 133.324 101.455C133.068 101.561 132.787 101.589 132.516 101.535C132.244 101.481 131.995 101.348 131.8 101.153C131.604 100.957 131.471 100.709 131.417 100.438C131.363 100.167 131.391 99.8864 131.497 99.6313C131.602 99.3762 131.782 99.1582 132.012 99.0048C132.242 98.8514 132.512 98.7695 132.789 98.7695C133.159 98.7695 133.515 98.9166 133.777 99.1784C134.04 99.4402 134.187 99.7953 134.187 100.166Z" fill="#F0EFED"/>
<path d="M147.347 113.212H149.109C149.15 113.213 149.191 113.222 149.229 113.239C149.266 113.255 149.3 113.28 149.329 113.31C149.357 113.34 149.38 113.375 149.394 113.413C149.409 113.452 149.416 113.493 149.415 113.535V115.41C149.412 115.494 149.443 115.574 149.5 115.635C149.557 115.696 149.635 115.731 149.718 115.734C149.76 115.733 149.801 115.724 149.839 115.707C149.876 115.69 149.911 115.666 149.939 115.636C149.967 115.606 149.99 115.57 150.004 115.532C150.019 115.493 150.026 115.452 150.025 115.41V113.535C150.022 113.452 150.053 113.371 150.11 113.31C150.166 113.25 150.245 113.214 150.328 113.212H152.09C152.173 113.209 152.252 113.173 152.308 113.112C152.365 113.052 152.396 112.971 152.393 112.888V112.888C152.396 112.805 152.365 112.724 152.308 112.664C152.252 112.603 152.173 112.567 152.09 112.564H150.328C150.245 112.562 150.166 112.526 150.11 112.465C150.053 112.405 150.022 112.324 150.025 112.241V110.366C150.026 110.324 150.019 110.283 150.004 110.244C149.99 110.206 149.967 110.17 149.939 110.14C149.911 110.11 149.876 110.086 149.839 110.069C149.801 110.052 149.76 110.043 149.718 110.042V110.042C149.635 110.045 149.557 110.08 149.5 110.141C149.443 110.202 149.412 110.282 149.415 110.366V112.241C149.416 112.282 149.409 112.323 149.394 112.362C149.38 112.401 149.358 112.436 149.329 112.466C149.301 112.496 149.266 112.521 149.229 112.537C149.191 112.554 149.15 112.563 149.109 112.564H147.347C147.264 112.567 147.185 112.603 147.128 112.664C147.071 112.724 147.041 112.805 147.043 112.888V112.888C147.041 112.971 147.071 113.052 147.128 113.112C147.185 113.173 147.264 113.209 147.347 113.212V113.212Z" fill="white"/>
<path d="M139.732 105.129H142.617C142.749 105.129 142.875 105.181 142.969 105.274C143.062 105.367 143.114 105.493 143.114 105.625V108.505C143.114 108.636 143.167 108.763 143.26 108.856C143.353 108.949 143.48 109.001 143.612 109.001V109.001C143.744 109.001 143.87 108.949 143.963 108.856C144.057 108.763 144.109 108.636 144.109 108.505V105.625C144.109 105.56 144.122 105.495 144.147 105.435C144.172 105.375 144.208 105.32 144.255 105.274C144.301 105.228 144.356 105.191 144.416 105.166C144.476 105.142 144.541 105.129 144.606 105.129H147.491C147.623 105.129 147.749 105.076 147.843 104.983C147.936 104.89 147.988 104.764 147.988 104.632C147.988 104.5 147.936 104.374 147.843 104.281C147.749 104.188 147.623 104.136 147.491 104.136H144.606C144.475 104.136 144.348 104.084 144.255 103.99C144.161 103.897 144.109 103.771 144.109 103.639V100.759C144.109 100.628 144.057 100.502 143.963 100.408C143.87 100.315 143.744 100.263 143.612 100.263V100.263C143.48 100.263 143.353 100.315 143.26 100.408C143.167 100.501 143.114 100.628 143.114 100.759V103.639C143.114 103.771 143.062 103.897 142.969 103.99C142.875 104.083 142.749 104.136 142.617 104.136H139.732C139.667 104.136 139.602 104.149 139.542 104.173C139.482 104.198 139.427 104.235 139.381 104.281C139.334 104.327 139.298 104.382 139.273 104.442C139.248 104.502 139.235 104.567 139.235 104.632C139.235 104.697 139.248 104.762 139.273 104.822C139.298 104.882 139.334 104.937 139.381 104.983C139.427 105.029 139.482 105.066 139.542 105.091C139.602 105.116 139.667 105.129 139.732 105.129V105.129Z" fill="white"/>
<path d="M73.6459 180.532C72.8178 173.346 72.3464 166.13 72.2317 158.885C72.2016 157 72.2041 155.068 72.8513 153.297C73.5694 151.33 75.0173 149.73 76.432 148.188C78.5582 145.867 80.716 143.519 83.3649 141.817C86.8109 139.602 90.9071 138.602 94.9767 138.119C98.4664 137.765 101.972 137.586 105.48 137.585L137.02 137.041C139.644 136.996 142.293 136.953 144.863 137.485C147.93 138.12 150.765 139.547 153.558 140.96C157.773 143.092 162.222 145.44 164.561 149.538C166.464 152.872 166.382 156.752 166.546 160.587C166.826 167.119 166.812 173.615 165.898 180.234C165.858 180.705 165.725 181.163 165.506 181.582C165.287 182.001 164.986 182.372 164.622 182.673C163.974 183.057 163.232 183.251 162.478 183.234C154.405 183.711 146.234 182.039 138.254 183.35" fill="#FBAD18"/>
<path d="M85.7888 180.428H76.7252C75.7178 180.428 74.9011 181.243 74.9011 182.249V192.131C74.9011 193.136 75.7178 193.952 76.7252 193.952H85.7888C86.7962 193.952 87.6128 193.136 87.6128 192.131V182.249C87.6128 181.243 86.7962 180.428 85.7888 180.428Z" fill="#38303B"/>
<path opacity="0.58" d="M87.6128 182.09H74.9011V189.96H87.6128V182.09Z" fill="#211E23"/>
<path d="M163.053 180.428H153.989C152.982 180.428 152.165 181.243 152.165 182.249V192.131C152.165 193.136 152.982 193.952 153.989 193.952H163.053C164.06 193.952 164.877 193.136 164.877 192.131V182.249C164.877 181.243 164.06 180.428 163.053 180.428Z" fill="#38303B"/>
<path opacity="0.58" d="M164.877 182.09H152.165V189.96H164.877V182.09Z" fill="#211E23"/>
<path d="M139.824 120.482H100.022L105.135 111.128C105.354 110.728 105.677 110.393 106.07 110.16C106.464 109.927 106.913 109.804 107.37 109.804H132.475C132.933 109.804 133.382 109.927 133.775 110.16C134.168 110.393 134.491 110.728 134.71 111.128L139.824 120.482Z" fill="#FBAD18"/>
<path d="M137.866 119.956H101.979L106.776 111.978C106.918 111.742 107.119 111.546 107.359 111.411C107.599 111.275 107.87 111.204 108.146 111.204H131.699C131.975 111.204 132.246 111.275 132.486 111.411C132.726 111.547 132.927 111.742 133.069 111.978L137.866 119.956Z" fill="#F0EFED"/>
<path d="M117.554 114.056V114.878H116.438V118.268H115.412V114.878H114.296V114.056H117.554ZM120.691 117.524H119.119L118.867 118.268H117.793L119.317 114.056H120.505L122.029 118.268H120.943L120.691 117.524ZM120.427 116.732L119.905 115.19L119.389 116.732H120.427ZM125.073 118.268L124.215 116.978L123.459 118.268H122.295L123.645 116.126L122.265 114.056H123.459L124.305 115.328L125.049 114.056H126.213L124.875 116.18L126.267 118.268H125.073ZM127.808 114.056V118.268H126.782V114.056H127.808Z" fill="#38303B"/>
<path d="M156.878 142.601L81.2612 143.89L89.2158 122.925C89.4937 122.106 90.0141 121.391 90.7083 120.874C91.4025 120.357 92.2377 120.062 93.1033 120.029L144.533 119.642C145.38 119.659 146.202 119.929 146.893 120.417C147.585 120.905 148.115 121.588 148.414 122.379L156.878 142.601Z" fill="#FBAD18"/>
<path d="M154.762 142.518L83.3777 143.695L90.8852 124.551C91.1608 123.794 91.6581 123.137 92.3124 122.666C92.9668 122.194 93.7481 121.93 94.5547 121.907L143.106 121.551C143.896 121.56 144.665 121.802 145.317 122.247C145.968 122.692 146.474 123.319 146.77 124.05L154.762 142.518Z" fill="#F0EFED"/>
<path d="M140.567 166.554C140.567 166.554 124.84 167.989 119.583 167.986C114.428 167.986 99.0119 166.554 99.0119 166.554C97.8718 166.554 96.948 165.83 96.948 164.938V162.9C96.948 162.007 97.8718 161.284 99.0119 161.284C99.0119 161.284 114.304 159.923 119.405 159.921C124.698 159.921 140.567 161.284 140.567 161.284C141.707 161.284 142.631 162.007 142.631 162.9V164.938C142.631 165.83 141.707 166.554 140.567 166.554Z" fill="#F0EFED"/>
<path d="M95.2346 173.776H144.342C144.52 173.776 144.691 173.847 144.817 173.973C144.943 174.098 145.013 174.269 145.013 174.447V175.102C145.013 175.279 144.943 175.45 144.817 175.576C144.691 175.701 144.52 175.772 144.342 175.772H95.2346C95.0566 175.772 94.8859 175.701 94.76 175.576C94.6342 175.45 94.5635 175.28 94.5635 175.102V174.447C94.5634 174.359 94.5807 174.272 94.6144 174.191C94.6481 174.109 94.6975 174.035 94.7598 173.973C94.8222 173.911 94.8962 173.861 94.9776 173.828C95.0591 173.794 95.1464 173.776 95.2346 173.776Z" fill="#F0EFED"/>
<path d="M165.784 178.875H73.795C72.2117 178.875 70.9282 180.156 70.9282 181.737V185.103C70.9282 186.684 72.2117 187.965 73.795 187.965H165.784C167.367 187.965 168.65 186.684 168.65 185.103V181.737C168.65 180.156 167.367 178.875 165.784 178.875Z" fill="#C4C4C4"/>
<path opacity="0.14" d="M70.9283 184.418V185.527C70.8959 186.139 71.1076 186.739 71.5169 187.196C71.9263 187.653 72.5001 187.93 73.1132 187.966H166.466C167.079 187.93 167.652 187.653 168.062 187.196C168.471 186.739 168.683 186.139 168.65 185.527V184.418H70.9283Z" fill="#38303B"/>
<path d="M82.0333 142.485C81.1215 142.487 80.2272 142.235 79.4509 141.757C79.034 141.395 78.6702 140.975 78.3704 140.511C77.5911 139.36 76.4941 138.46 75.2123 137.919C74.5688 137.66 73.8655 137.588 73.1827 137.71C72.5 137.832 71.8655 138.144 71.3518 138.609C70.251 139.742 70.2954 141.687 71.2227 142.966C71.7184 143.584 72.3464 144.083 73.0605 144.427C73.7746 144.77 74.5567 144.95 75.3495 144.953C76.2835 144.956 77.2156 144.869 78.1326 144.692L82.3344 144.019" fill="#FBAD18"/>
<path d="M156.232 142.485C157.144 142.487 158.038 142.235 158.815 141.757C159.232 141.395 159.595 140.975 159.895 140.511C160.674 139.36 161.771 138.46 163.053 137.919C163.697 137.66 164.4 137.588 165.083 137.71C165.766 137.832 166.4 138.144 166.914 138.609C168.015 139.742 167.97 141.687 167.043 142.966C166.548 143.584 165.92 144.083 165.206 144.426C164.491 144.77 163.709 144.95 162.917 144.953C161.982 144.956 161.05 144.869 160.133 144.692L155.932 144.019" fill="#FBAD18"/>
<path d="M93.2528 165.58C90.8531 166.273 88.3207 166.371 85.8743 165.868C83.4279 165.364 81.141 164.274 79.2111 162.691C77.655 161.389 76.3229 159.674 76.0152 157.671C75.9545 157.394 75.9693 157.107 76.058 156.838C76.2765 156.304 76.9257 156.107 77.4993 156.031C81.5721 155.483 85.6142 157.224 89.1316 159.345C90.7275 160.359 92.1746 161.589 93.4315 163C94.0373 163.658 94.5201 164.789 93.8214 165.348" fill="#F0EFED"/>
<path d="M146.275 165.58C148.674 166.273 151.207 166.371 153.653 165.868C156.099 165.364 158.386 164.274 160.316 162.691C161.872 161.389 163.205 159.674 163.512 157.671C163.573 157.394 163.558 157.107 163.47 156.838C163.251 156.304 162.602 156.107 162.028 156.031C157.956 155.483 153.913 157.224 150.396 159.345C148.8 160.359 147.353 161.589 146.096 163C145.49 163.658 145.007 164.789 145.706 165.348" fill="#F0EFED"/>
<path d="M227.67 159.331H200.948C200.065 159.331 199.218 158.981 198.594 158.358C197.97 157.735 197.619 156.889 197.619 156.008V154.063C197.619 147.627 200.504 142.409 209.294 142.409H219.325C228.536 142.409 230.999 147.627 230.999 154.063V156.006C231 156.443 230.914 156.875 230.747 157.278C230.579 157.682 230.334 158.048 230.025 158.357C229.716 158.666 229.349 158.911 228.945 159.078C228.541 159.245 228.108 159.331 227.67 159.331Z" fill="#EFB93F"/>
<path d="M204.45 159.059C203.232 153.844 203.421 148.401 204.997 143.283C205.094 142.969 204.601 142.835 204.505 143.148C202.909 148.356 202.72 153.893 203.958 159.197C204.032 159.516 204.524 159.381 204.45 159.061V159.059Z" fill="#38303B"/>
<path d="M225.382 159.307C226.204 155.144 226.259 150.866 225.543 146.683C225.338 145.491 225.07 144.312 224.74 143.148C224.732 143.116 224.716 143.086 224.696 143.059C224.675 143.033 224.65 143.011 224.62 142.994C224.591 142.978 224.559 142.967 224.526 142.963C224.493 142.959 224.459 142.961 224.427 142.97C224.394 142.979 224.364 142.994 224.337 143.015C224.311 143.035 224.289 143.061 224.272 143.09C224.256 143.119 224.245 143.151 224.241 143.184C224.237 143.217 224.239 143.251 224.248 143.283C225.382 147.301 225.772 151.491 225.398 155.648C225.29 156.831 225.12 158.007 224.888 159.171C224.825 159.492 225.317 159.63 225.38 159.307H225.382Z" fill="#38303B"/>
<path d="M207.748 144.347C208.823 142.438 210.589 141.011 212.684 140.358C213.676 140.102 214.713 140.073 215.718 140.271C216.722 140.469 217.67 140.891 218.49 141.504C219.524 142.257 220.393 143.214 221.042 144.316C221.078 144.369 221.133 144.407 221.196 144.421C221.259 144.435 221.325 144.425 221.381 144.393C221.436 144.361 221.478 144.309 221.497 144.247C221.516 144.185 221.51 144.119 221.482 144.061C220.325 142.029 218.428 140.52 216.185 139.849C215.124 139.587 214.018 139.564 212.947 139.783C211.876 140.001 210.867 140.456 209.994 141.113C208.905 141.914 207.99 142.928 207.305 144.093C207.276 144.151 207.27 144.218 207.289 144.28C207.307 144.342 207.349 144.395 207.405 144.428C207.462 144.46 207.528 144.47 207.592 144.455C207.655 144.44 207.71 144.402 207.746 144.347H207.748Z" fill="#38303B"/>
<path d="M220.818 144.243C220.733 144.387 220.677 144.548 220.656 144.714C220.635 144.88 220.647 145.049 220.694 145.211C220.725 145.37 220.798 145.519 220.905 145.641C221.011 145.764 221.148 145.858 221.301 145.912C221.473 145.948 221.651 145.931 221.812 145.864C221.974 145.797 222.112 145.683 222.207 145.537C222.314 145.386 222.382 145.21 222.403 145.026C222.424 144.842 222.398 144.656 222.328 144.484C222.264 144.279 222.129 144.104 221.947 143.989C221.766 143.875 221.549 143.828 221.336 143.859C221.304 143.868 221.274 143.883 221.247 143.903C221.221 143.924 221.199 143.949 221.182 143.978C221.165 144.008 221.155 144.04 221.151 144.073C221.147 144.106 221.149 144.14 221.158 144.172C221.177 144.236 221.221 144.291 221.279 144.324C221.338 144.357 221.407 144.366 221.472 144.35C221.531 144.337 221.431 144.347 221.469 144.35C221.481 144.35 221.493 144.35 221.506 144.35C221.521 144.347 221.536 144.347 221.551 144.35C221.551 144.35 221.49 144.335 221.538 144.35C221.562 144.357 221.586 144.363 221.61 144.372C221.55 144.349 221.635 144.388 221.651 144.399C221.651 144.399 221.703 144.438 221.674 144.414C221.645 144.39 221.694 144.432 221.695 144.433C221.715 144.452 221.734 144.473 221.753 144.492C221.784 144.527 221.759 144.499 221.753 144.492L221.778 144.528C221.8 144.56 221.82 144.594 221.838 144.629C221.841 144.636 221.861 144.68 221.849 144.65C221.836 144.619 221.86 144.683 221.86 144.682C221.87 144.71 221.878 144.74 221.885 144.77C221.889 144.784 221.891 144.799 221.894 144.814C221.91 144.883 221.894 144.784 221.894 144.827C221.894 144.869 221.899 144.904 221.894 144.943C221.894 144.962 221.894 144.982 221.89 145C221.89 144.99 221.9 144.949 221.89 144.997C221.883 145.024 221.878 145.052 221.869 145.079C221.865 145.092 221.86 145.105 221.856 145.119C221.838 145.181 221.872 145.09 221.856 145.125C221.84 145.16 221.827 145.185 221.809 145.214C221.799 145.23 221.745 145.295 221.785 145.251C221.768 145.27 221.752 145.29 221.734 145.308C221.716 145.326 221.711 145.33 221.699 145.341C221.688 145.351 221.661 145.373 221.689 145.351C221.716 145.329 221.672 145.362 221.67 145.363C221.655 145.373 221.639 145.382 221.623 145.392L221.591 145.407C221.557 145.425 221.6 145.407 221.602 145.403C221.598 145.413 221.536 145.422 221.527 145.425C221.492 145.434 221.515 145.42 221.519 145.427L221.536 145.425C221.524 145.425 221.513 145.425 221.502 145.427C221.491 145.43 221.479 145.427 221.468 145.427C221.417 145.427 221.519 145.442 221.468 145.427C221.457 145.427 221.404 145.419 221.401 145.409C221.401 145.409 221.448 145.433 221.413 145.414C221.401 145.407 221.388 145.401 221.376 145.393C221.364 145.387 221.352 145.379 221.342 145.37C221.342 145.37 221.39 145.414 221.354 145.379C221.335 145.36 221.315 145.339 221.295 145.319C221.285 145.308 221.271 145.282 221.302 145.33C221.296 145.32 221.289 145.311 221.283 145.301C221.267 145.279 221.254 145.256 221.241 145.232C221.232 145.215 221.202 145.138 221.224 145.201C221.214 145.171 221.202 145.142 221.193 145.111C221.184 145.081 221.176 145.05 221.17 145.018C221.167 145.005 221.166 144.993 221.163 144.98C221.151 144.922 221.163 145.025 221.163 144.971C221.158 144.906 221.158 144.841 221.163 144.776C221.163 144.773 221.171 144.71 221.163 144.753C221.155 144.796 221.166 144.738 221.168 144.73C221.174 144.695 221.183 144.661 221.193 144.628L221.205 144.593C221.224 144.539 221.198 144.601 221.208 144.585C221.227 144.558 221.24 144.527 221.26 144.499C221.276 144.47 221.287 144.438 221.292 144.405C221.297 144.371 221.294 144.338 221.286 144.305C221.277 144.273 221.263 144.243 221.242 144.216C221.222 144.189 221.197 144.167 221.168 144.15C221.109 144.117 221.04 144.109 220.975 144.126C220.91 144.143 220.854 144.184 220.819 144.241L220.818 144.243Z" fill="#38303B"/>
<path d="M207.287 143.846C207.12 143.899 206.97 143.995 206.853 144.126C206.735 144.256 206.655 144.415 206.62 144.586C206.566 144.765 206.558 144.955 206.597 145.137C206.635 145.32 206.718 145.491 206.839 145.633C206.959 145.765 207.118 145.856 207.292 145.893C207.467 145.93 207.648 145.912 207.812 145.84C207.965 145.757 208.093 145.634 208.182 145.485C208.272 145.336 208.32 145.166 208.322 144.992C208.343 144.799 208.316 144.604 208.242 144.425C208.168 144.246 208.05 144.089 207.899 143.967C207.84 143.933 207.771 143.923 207.705 143.941C207.64 143.958 207.584 144 207.55 144.058C207.517 144.117 207.509 144.186 207.526 144.251C207.543 144.316 207.584 144.371 207.641 144.407C207.576 144.356 207.649 144.417 207.663 144.432L207.689 144.46C207.726 144.5 207.657 144.409 207.689 144.46C207.703 144.482 207.718 144.504 207.731 144.527L207.747 144.556L207.76 144.585C207.772 144.61 207.77 144.606 207.754 144.57C207.777 144.622 207.794 144.677 207.805 144.732C207.809 144.75 207.811 144.767 207.814 144.783C207.824 144.834 207.814 144.768 207.814 144.768C207.825 144.774 207.821 144.857 207.822 144.869C207.822 144.902 207.822 144.933 207.822 144.965C207.822 144.98 207.822 144.994 207.818 145.009C207.814 145.069 207.83 144.95 207.818 145.009C207.806 145.069 207.79 145.129 207.771 145.188C207.753 145.239 207.792 145.15 207.774 145.18C207.767 145.191 207.762 145.205 207.756 145.217C207.743 145.24 207.729 145.263 207.715 145.286C207.686 145.333 207.754 145.244 207.715 145.286C207.707 145.294 207.7 145.303 207.692 145.311C207.684 145.32 207.667 145.334 207.656 145.346C207.618 145.384 207.697 145.321 207.656 145.346C207.631 145.362 207.605 145.374 207.58 145.39C207.556 145.405 207.641 145.37 207.591 145.385C207.577 145.389 207.562 145.394 207.548 145.398L207.517 145.405C207.466 145.419 207.58 145.405 207.525 145.405C207.494 145.405 207.464 145.405 207.434 145.405C207.383 145.405 207.481 145.418 207.448 145.405C207.436 145.401 207.423 145.4 207.411 145.397C207.398 145.394 207.349 145.37 207.337 145.374C207.359 145.367 207.388 145.397 207.34 145.374L207.312 145.359L207.271 145.334C207.226 145.307 207.307 145.367 207.271 145.334C207.248 145.314 207.226 145.293 207.205 145.27C207.197 145.262 207.181 145.249 207.177 145.238L207.196 145.262L207.177 145.233C207.161 145.208 207.147 145.182 207.134 145.155C207.111 145.112 207.134 145.162 207.137 145.165C207.126 145.144 207.118 145.121 207.114 145.097C207.106 145.068 207.1 145.039 207.094 145.009C207.082 144.948 207.094 145.067 207.094 145.004C207.094 144.992 207.094 144.98 207.094 144.968C207.094 144.938 207.094 144.907 207.094 144.877C207.094 144.858 207.094 144.84 207.098 144.822C207.101 144.765 207.088 144.869 207.098 144.817C207.112 144.746 207.131 144.675 207.156 144.607C207.176 144.55 207.13 144.658 207.156 144.603C207.164 144.587 207.171 144.571 207.18 144.556C207.196 144.526 207.216 144.498 207.234 144.468C207.265 144.417 207.196 144.51 207.234 144.468C207.246 144.454 207.258 144.439 207.272 144.426C207.286 144.412 207.291 144.407 207.3 144.398C207.31 144.389 207.316 144.384 207.324 144.377L207.304 144.393C207.331 144.379 207.357 144.364 207.382 144.347C207.409 144.328 207.321 144.366 207.369 144.352C207.389 144.347 207.407 144.341 207.427 144.336C207.459 144.327 207.49 144.312 207.516 144.291C207.542 144.271 207.565 144.245 207.581 144.216C207.598 144.187 207.608 144.155 207.612 144.122C207.617 144.089 207.614 144.055 207.605 144.023C207.586 143.958 207.543 143.904 207.484 143.871C207.426 143.838 207.356 143.828 207.291 143.845L207.287 143.846Z" fill="#38303B"/>
<path d="M219.305 141.295V140.633C219.305 140.425 219.367 140.118 219.203 139.96C218.991 139.787 218.76 139.64 218.514 139.522C218.272 139.386 218.024 139.26 217.77 139.145C217.263 138.916 216.735 138.737 216.194 138.61C215.151 138.37 214.07 138.342 213.016 138.527C211.917 138.703 210.869 139.114 209.944 139.732C209.709 139.899 209.758 140.19 209.743 140.455L209.699 141.238C209.68 141.566 210.191 141.565 210.209 141.238C210.233 140.82 210.257 140.401 210.281 139.981L210.154 140.202C211.461 139.35 212.991 138.902 214.552 138.914C216.12 138.966 217.638 139.476 218.919 140.38L218.793 140.16V141.295C218.793 141.363 218.82 141.427 218.868 141.475C218.916 141.523 218.98 141.55 219.048 141.55C219.116 141.55 219.181 141.523 219.229 141.475C219.276 141.427 219.303 141.363 219.303 141.295H219.305Z" fill="#38303B"/>
<path d="M207.004 107.295C208.561 113.053 209.346 116.555 210.632 122.037C211.11 124.07 212.521 129.815 212.95 131.846C213.44 134.168 211.513 135.552 210.313 132.248C209.343 129.574 208.325 127.557 207.413 125.197C204.921 118.75 202.355 113.703 200.813 106.367" fill="#86514D"/>
<path d="M175.06 184.123L175.548 187.127C175.589 187.32 175.602 187.518 175.586 187.715C175.488 188.479 174.606 188.895 174.266 189.589C174.225 189.661 174.204 189.743 174.207 189.825C174.23 190.086 174.576 190.165 174.843 190.175L177.185 190.26C177.48 190.272 177.829 190.257 177.993 190.016C178.058 189.902 178.096 189.774 178.103 189.643L178.86 183.969" fill="#86514D"/>
<path d="M196.286 184.123L195.806 187.127C195.765 187.32 195.753 187.518 195.768 187.715C195.865 188.479 196.732 188.895 197.067 189.589C197.108 189.661 197.128 189.743 197.126 189.825C197.102 190.086 196.762 190.165 196.5 190.175L194.195 190.26C193.904 190.272 193.561 190.257 193.4 190.016C193.336 189.902 193.299 189.774 193.292 189.643C193.043 187.752 192.795 185.86 192.547 183.969" fill="#86514D"/>
<path d="M204.126 193.278C202.214 193.35 200.648 193.407 198.736 193.482C198.152 193.553 197.56 193.473 197.016 193.249C196.73 193.1 196.445 192.861 196.128 192.925C195.883 192.976 195.712 193.194 195.487 193.303C195.283 193.384 195.064 193.421 194.844 193.41L192.838 193.452C192.618 193.483 192.394 193.432 192.209 193.31C192.125 193.211 192.063 193.095 192.03 192.97C191.996 192.845 191.99 192.714 192.013 192.586C192.06 191.561 192.246 190.547 192.565 189.571C192.638 189.35 192.745 189.102 192.968 189.033C193.074 189.018 193.182 189.023 193.286 189.05C193.39 189.077 193.488 189.125 193.573 189.19C194.33 189.614 195.325 189.915 196.023 189.4C196.186 189.245 196.367 189.109 196.563 188.997C196.803 188.924 197.059 188.92 197.301 188.987C199.421 189.377 201.48 190.045 203.425 190.974C203.884 191.15 204.285 191.45 204.582 191.84C204.723 192.04 204.785 192.285 204.754 192.527C204.723 192.77 204.602 192.991 204.416 193.149" fill="#38303B"/>
<path d="M200.148 189.41C199.939 189.57 199.765 189.772 199.639 190.003C199.512 190.233 199.436 190.488 199.414 190.75C199.414 190.817 199.441 190.882 199.488 190.93C199.524 190.965 199.569 190.99 199.619 191C199.668 191.009 199.72 191.004 199.766 190.985C199.813 190.966 199.853 190.933 199.881 190.891C199.909 190.849 199.924 190.8 199.924 190.75C199.93 190.702 199.918 190.791 199.924 190.758L199.929 190.724C199.934 190.699 199.938 190.673 199.944 190.648C199.954 190.597 199.967 190.547 199.982 190.496C199.997 190.445 200.015 190.397 200.033 190.348C200.045 190.317 200.033 190.348 200.027 190.361C200.032 190.347 200.038 190.334 200.045 190.321C200.055 190.298 200.067 190.274 200.079 190.252C200.101 190.208 200.126 190.166 200.152 190.125C200.166 190.103 200.181 190.082 200.196 190.061C200.196 190.058 200.232 190.013 200.207 190.045C200.182 190.078 200.207 190.045 200.214 190.038C200.247 189.998 200.282 189.96 200.319 189.924C200.338 189.906 200.357 189.889 200.376 189.873C200.386 189.867 200.395 189.859 200.403 189.851C200.376 189.871 200.371 189.876 200.386 189.864L200.407 189.849C200.464 189.814 200.506 189.758 200.523 189.693C200.54 189.628 200.531 189.559 200.498 189.501C200.464 189.443 200.408 189.401 200.343 189.383C200.277 189.366 200.208 189.375 200.149 189.409L200.148 189.41Z" fill="#F09532"/>
<path d="M198.372 188.897C197.954 189.319 197.65 189.839 197.487 190.409C197.478 190.441 197.476 190.475 197.48 190.508C197.484 190.541 197.495 190.573 197.511 190.602C197.528 190.631 197.55 190.657 197.576 190.678C197.603 190.698 197.633 190.713 197.665 190.722C197.731 190.739 197.8 190.73 197.858 190.696C197.917 190.663 197.96 190.609 197.979 190.544C197.997 190.481 198.017 190.418 198.039 190.355C198.049 190.325 198.06 190.296 198.071 190.267L198.093 190.212C198.1 190.194 198.104 190.184 198.093 190.208C198.145 190.086 198.205 189.967 198.272 189.851C198.338 189.741 198.409 189.634 198.487 189.53C198.512 189.496 198.45 189.575 198.497 189.517L198.526 189.481C198.546 189.457 198.567 189.433 198.587 189.41C198.633 189.357 198.681 189.306 198.731 189.257C198.777 189.209 198.803 189.145 198.803 189.078C198.802 189.011 198.775 188.947 198.728 188.9C198.681 188.853 198.617 188.826 198.55 188.825C198.483 188.825 198.418 188.85 198.37 188.897H198.372Z" fill="#F09532"/>
<path d="M167.227 193.337C169.138 193.409 170.705 193.466 172.617 193.54C173.201 193.612 173.793 193.532 174.337 193.309C174.623 193.16 174.908 192.921 175.225 192.984C175.47 193.035 175.641 193.253 175.866 193.362C176.07 193.443 176.289 193.48 176.509 193.469L178.514 193.511C178.735 193.542 178.959 193.492 179.144 193.369C179.228 193.27 179.289 193.154 179.323 193.029C179.357 192.904 179.363 192.773 179.34 192.645C179.293 191.62 179.108 190.607 178.789 189.632C178.717 189.41 178.61 189.163 178.387 189.093C178.281 189.078 178.172 189.084 178.069 189.111C177.965 189.138 177.867 189.185 177.782 189.25C177.025 189.675 176.03 189.975 175.332 189.46C175.169 189.305 174.987 189.17 174.792 189.058C174.552 188.984 174.296 188.981 174.054 189.048C171.934 189.438 169.875 190.106 167.93 191.035C167.471 191.21 167.07 191.51 166.772 191.901C166.631 192.1 166.57 192.345 166.601 192.588C166.631 192.83 166.752 193.052 166.939 193.21" fill="#38303B"/>
<path d="M181.71 99.4738C177.406 95.6567 174.74 93.4873 170.584 90.0365C169.041 88.7557 164.704 85.0807 163.149 83.8467C161.371 82.436 159.627 83.6628 162.002 86.1394C163.924 88.1428 165.287 89.9188 166.967 91.7387C171.554 96.7093 174.958 101.175 180.577 105.625" fill="#86514D"/>
<path d="M163.503 84.1447C162.505 83.059 162.354 82.1318 161.972 81.1255C161.681 80.4266 161.325 79.7564 160.909 79.1237C160.274 78.0901 159.639 77.0564 159.004 76.0225C158.937 75.9149 158.844 75.7922 158.737 75.812C158.587 75.8401 158.593 76.0882 158.635 76.2624L159.1 78.1888C159.108 78.2234 159.076 78.2474 159.049 78.225C158.102 77.2951 157.051 76.478 155.915 75.7901C155.666 75.702 155.609 75.943 155.743 76.1651L158.364 79.1314C158.394 79.1645 158.36 79.2149 158.325 79.1884L155.997 77.3609C155.716 77.1134 155.396 76.9151 155.049 76.7745C155.021 76.7667 154.992 76.7668 154.965 76.7747C154.937 76.7827 154.913 76.7981 154.893 76.8193C154.874 76.8405 154.861 76.8667 154.856 76.8947C154.851 76.9228 154.854 76.9518 154.865 76.9783C154.973 77.2829 155.157 77.5548 155.4 77.768C156.196 78.5308 156.938 79.3479 157.621 80.2135C156.843 79.6541 156.095 79.0545 155.38 78.4171C155.204 78.246 154.978 78.1362 154.734 78.1037C154.534 78.1109 154.479 78.3014 154.605 78.4909C155.253 79.4479 156.039 80.3043 156.937 81.0323C156.971 81.0603 156.944 81.1168 156.908 81.0939C156.908 81.0939 154.962 79.4009 154.771 79.7478C154.618 80.0219 155.031 80.4611 155.287 80.7266C156.688 82.1873 158.841 84.0724 160.58 84.9706C161.21 85.2517 161.764 85.6783 162.196 86.2153" fill="#86514D"/>
<path d="M161.32 83.8961C160.525 82.7467 160.357 81.313 160.208 79.9593C160.183 79.731 159.82 79.7285 159.846 79.9593C160.003 81.3746 160.176 82.8756 161.008 84.0785C161.139 84.2685 161.453 84.0882 161.32 83.8961Z" fill="#794642"/>
<path d="M189.017 138.987H188.206L182.616 162.201L179.645 184.373C179.636 184.447 179.6 184.515 179.544 184.565C179.489 184.615 179.417 184.643 179.343 184.645L174.647 184.775C174.593 184.777 174.538 184.767 174.487 184.747C174.437 184.727 174.391 184.696 174.352 184.657C174.314 184.618 174.284 184.572 174.265 184.521C174.245 184.47 174.236 184.415 174.239 184.36L175.346 161.266L179.435 130.951L180.877 125.404L198.597 126.194L199.194 133.285L198.332 162.498L196.883 184.536C196.876 184.647 196.825 184.751 196.743 184.825C196.66 184.899 196.552 184.939 196.441 184.935L192.508 184.801C192.4 184.797 192.297 184.752 192.22 184.676C192.144 184.599 192.099 184.497 192.095 184.388L191.318 162.363L189.017 138.987Z" fill="#2E3C87"/>
<path d="M191.545 87.5181C191.45 87.3329 191.308 87.1759 191.133 87.0627C190.958 86.9496 190.756 86.8844 190.548 86.8737C190.34 86.8629 190.133 86.907 189.947 87.0016C189.762 87.0961 189.604 87.2377 189.491 87.4122C189.467 87.4536 189.461 87.5027 189.473 87.5489C189.485 87.5951 189.515 87.6348 189.556 87.6593C189.597 87.6824 189.647 87.6886 189.693 87.6764C189.739 87.6643 189.778 87.6347 189.803 87.5941C189.885 87.474 189.997 87.3775 190.128 87.3143C190.258 87.2512 190.404 87.2236 190.549 87.2344C190.694 87.2452 190.833 87.294 190.953 87.3758C191.073 87.4577 191.169 87.5697 191.232 87.7005C191.339 87.9069 191.651 87.7245 191.545 87.5181V87.5181Z" fill="#38303B"/>
<path d="M195.39 88.0598C195.481 87.9451 195.6 87.8556 195.736 87.7999C195.871 87.7441 196.019 87.724 196.164 87.7413C196.306 87.7632 196.44 87.8205 196.553 87.9079C196.666 87.9953 196.756 88.11 196.813 88.2411C196.827 88.2865 196.857 88.3249 196.899 88.3484C196.94 88.3718 196.989 88.3787 197.035 88.3675C197.081 88.3544 197.12 88.3238 197.144 88.2822C197.167 88.2407 197.174 88.1915 197.161 88.1454C197.089 87.9504 196.966 87.778 196.805 87.6455C196.644 87.513 196.452 87.425 196.246 87.3905C196.041 87.3559 195.83 87.376 195.635 87.4487C195.439 87.5214 195.267 87.6441 195.134 87.8045C195.102 87.839 195.083 87.8845 195.083 87.9319C195.083 87.9792 195.102 88.0248 195.134 88.0593C195.168 88.0926 195.214 88.1113 195.262 88.1113C195.309 88.1113 195.355 88.0926 195.389 88.0593L195.39 88.0598Z" fill="#38303B"/>
<g opacity="0.46">
<path d="M198.954 139.241C197.796 138.082 197.006 136.608 196.682 135.003C196.611 134.681 196.116 134.818 196.186 135.14C196.533 136.831 197.369 138.383 198.591 139.604C198.828 139.834 199.192 139.472 198.954 139.241Z" fill="#F2E2C8"/>
</g>
<g opacity="0.46">
<path d="M181.643 134.339C181.04 135.96 180.174 137.613 178.651 138.543C178.369 138.715 178.627 139.159 178.91 138.986C180.554 137.982 181.487 136.227 182.139 134.475C182.254 134.165 181.758 134.032 181.643 134.339Z" fill="#F2E2C8"/>
</g>
<g opacity="0.46">
<path d="M179.61 182.442C177.939 182.502 176.265 182.455 174.593 182.465C174.525 182.465 174.459 182.492 174.411 182.54C174.363 182.588 174.336 182.653 174.336 182.721C174.336 182.789 174.363 182.854 174.411 182.902C174.459 182.95 174.525 182.977 174.593 182.977C176.265 182.968 177.939 183.015 179.61 182.954C179.94 182.942 179.941 182.429 179.61 182.442Z" fill="#F2E2C8"/>
</g>
<g opacity="0.46">
<path d="M196.672 182.9C195.198 182.88 193.726 182.786 192.254 182.708C191.924 182.691 191.925 183.204 192.254 183.222C193.726 183.299 195.198 183.392 196.672 183.413C196.74 183.413 196.806 183.386 196.854 183.338C196.902 183.29 196.929 183.225 196.929 183.157C196.929 183.089 196.902 183.023 196.854 182.975C196.806 182.927 196.74 182.9 196.672 182.9V182.9Z" fill="#F2E2C8"/>
</g>
<path d="M205.254 104.309C202.59 102.271 200.517 100.806 196.434 100.396C194.354 100.187 190.685 99.2904 187.89 98.9745C187.58 98.9394 180.996 97.0344 180.718 97.1842C180.497 97.3029 180.13 96.8377 179.03 98.3952C178.201 99.5671 177.319 100.708 176.942 102.125C176.566 103.542 176.177 104.135 177.184 105.134C178.217 106.16 180.527 107.45 181.146 108.809C181.409 109.584 181.449 110.416 181.262 111.212C180.282 118.205 179.303 125.197 178.323 132.19C178.198 132.658 178.256 133.156 178.485 133.582C178.649 133.747 178.848 133.874 179.067 133.954C179.287 134.033 179.521 134.063 179.753 134.041L198.579 134.874C198.985 134.943 199.402 134.852 199.741 134.619C200.055 134.234 200.207 133.742 200.164 133.247C200.428 126.624 201.385 119.718 201.444 113.087C202.324 112.119 201.864 114.646 203.034 114.15C203.583 113.917 207.042 109.851 207.296 109.275C208.272 107.058 205.456 104.464 205.254 104.309Z" fill="#F2E2C8"/>
<path d="M195.788 91.6855C197.051 91.1744 198.076 90.2065 198.656 88.975C199.208 87.7718 199.56 86.4869 199.698 85.1707C199.792 84.5114 199.833 83.7441 199.327 83.2794C199.043 83.059 198.713 82.906 198.361 82.8321C196.902 82.3907 195.401 82.1032 193.883 81.9741C192.209 81.8187 190.032 81.7642 188.564 82.531C188.34 82.6286 188.146 82.7843 188.003 82.9819C187.896 83.1948 187.844 83.4312 187.853 83.6692C187.781 85.2741 187.77 86.9299 188.385 88.4309C189 89.9319 190.384 91.2581 192.066 91.3926" fill="#38303B"/>
<path d="M190.052 100.321C189.846 100.188 189.685 99.9969 189.59 99.7716C189.495 99.5463 189.47 99.2976 189.518 99.0579C189.834 97.4657 190.38 94.8158 190.59 93.7143C190.598 93.6498 190.619 93.5877 190.653 93.5324C190.69 93.4936 190.735 93.4632 190.785 93.4434C190.835 93.4236 190.888 93.4149 190.942 93.4178C191.818 93.3577 192.692 93.6089 193.566 93.5197C194.281 93.4448 195.011 93.1442 195.694 93.3669C195.767 93.3842 195.831 93.4248 195.878 93.4825C195.921 93.5644 195.936 93.6578 195.921 93.749C195.898 94.1566 195.858 94.5642 195.819 94.9717C195.717 96.0254 195.513 98.4072 195.38 99.8629C195.361 100.084 195.281 100.296 195.15 100.475C195.018 100.654 194.84 100.793 194.635 100.878C193.904 101.188 193.107 101.31 192.317 101.231C191.505 101.093 190.733 100.783 190.052 100.321V100.321Z" fill="#86514D"/>
<path d="M195.878 93.4805C195.831 93.4229 195.766 93.3822 195.694 93.3649C195.011 93.1423 194.28 93.4428 193.566 93.5177C192.692 93.6089 191.817 93.3578 190.941 93.4158C190.888 93.4129 190.834 93.4217 190.785 93.4415C190.735 93.4613 190.69 93.4916 190.653 93.5305C190.619 93.5858 190.597 93.6479 190.59 93.7124C190.466 94.3604 190.343 95.0082 190.22 95.6556C190.895 96.184 191.694 96.531 192.541 96.6633C193.128 96.7452 193.726 96.6865 194.286 96.4921C194.846 96.2978 195.351 95.9733 195.76 95.5455C195.779 95.3522 195.798 95.1591 195.817 94.9662C195.858 94.5586 195.898 94.151 195.92 93.7434C195.934 93.6536 195.919 93.5616 195.878 93.4805V93.4805Z" fill="#794642"/>
<path d="M198.71 89.5043C198.386 93.3448 195.335 96.2239 192.85 96.0155C190.366 95.8072 187.839 92.4593 188.162 88.6188C188.485 84.7782 191.479 82.5757 193.965 82.7841C196.45 82.9925 199.033 85.6637 198.71 89.5043Z" fill="#86514D"/>
<path d="M198.295 90.9768C198.624 90.9244 198.929 90.7767 199.174 90.5523C199.419 90.3278 199.593 90.0364 199.673 89.7143C199.696 89.5519 199.685 89.3867 199.642 89.2285C199.598 89.0704 199.523 88.9227 199.421 88.7945C199.319 88.6662 199.191 88.56 199.047 88.4824C198.902 88.4047 198.743 88.3572 198.579 88.3428" fill="#86514D"/>
<path d="M188.488 90.153C188.173 90.0469 187.896 89.8506 187.692 89.5884C187.487 89.3262 187.365 89.0098 187.339 88.6785C187.344 88.5145 187.382 88.3532 187.451 88.2043C187.52 88.0554 187.619 87.9221 187.741 87.8125C187.863 87.7029 188.007 87.6193 188.162 87.5667C188.318 87.5142 188.483 87.4937 188.647 87.5067" fill="#86514D"/>
<path d="M192.144 86.2545C192.181 86.3014 192.133 86.3798 192.076 86.3885C192.019 86.3885 191.963 86.3679 191.92 86.3304C191.628 86.1419 191.294 86.0286 190.948 86.0008C190.602 85.9729 190.254 86.0314 189.936 86.1709C189.842 86.2242 189.737 86.2552 189.63 86.2616C189.575 86.2603 189.522 86.2381 189.483 86.1995C189.444 86.1608 189.421 86.1087 189.419 86.0537C189.424 86.0045 189.442 85.9573 189.47 85.9167C189.585 85.7519 189.747 85.6252 189.935 85.5529C190.222 85.4295 190.536 85.3807 190.848 85.4111C191.159 85.4415 191.458 85.55 191.716 85.7266C191.924 85.8566 192.081 86.0547 192.159 86.2871" fill="#38303B"/>
<path d="M194.913 86.488C194.869 86.5282 194.903 86.6133 194.957 86.6312C195.014 86.6407 195.072 86.6296 195.122 86.6001C195.441 86.4628 195.789 86.4067 196.135 86.437C196.481 86.4672 196.814 86.5828 197.104 86.7733C197.187 86.8414 197.285 86.8893 197.389 86.9134C197.444 86.9214 197.499 86.9083 197.544 86.8767C197.589 86.8452 197.62 86.7976 197.631 86.7438C197.635 86.6943 197.625 86.6448 197.604 86.6001C197.518 86.4184 197.379 86.2665 197.206 86.164C196.943 85.9942 196.641 85.8937 196.329 85.8717C196.017 85.8498 195.704 85.9072 195.42 86.0386C195.193 86.1316 195.005 86.3006 194.889 86.5165" fill="#38303B"/>
<path d="M197.581 91.2714C197.573 91.5041 197.495 91.7291 197.358 91.9173C197.22 92.1054 197.03 92.2481 196.81 92.327C196.591 92.4059 196.352 92.4172 196.126 92.3597C195.9 92.3022 195.697 92.1783 195.542 92.0042C195.387 91.83 195.288 91.6135 195.258 91.3826C195.227 91.1517 195.267 90.917 195.371 90.7088C195.476 90.5006 195.64 90.3284 195.844 90.2144C196.047 90.1005 196.28 90.05 196.513 90.0695C196.814 90.0875 197.096 90.2242 197.296 90.4496C197.497 90.675 197.599 90.9706 197.581 91.2714Z" fill="#794642"/>
<path d="M191.253 90.7396C191.245 90.9724 191.167 91.1974 191.03 91.3856C190.893 91.5738 190.702 91.7166 190.482 91.7956C190.263 91.8745 190.025 91.886 189.799 91.8286C189.573 91.7711 189.369 91.6474 189.214 91.4733C189.059 91.2992 188.96 91.0827 188.929 90.8519C188.899 90.621 188.938 90.3863 189.043 90.178C189.147 89.9697 189.312 89.7975 189.515 89.6834C189.719 89.5694 189.951 89.5188 190.184 89.5382C190.485 89.5562 190.767 89.6928 190.968 89.9181C191.168 90.1433 191.271 90.4388 191.253 90.7396Z" fill="#794642"/>
<path d="M196.471 88.2994C196.439 88.68 196.236 88.974 196.017 88.9557C195.799 88.9373 195.648 88.6138 195.679 88.2332C195.711 87.8526 195.915 87.5586 196.133 87.577C196.352 87.5953 196.503 87.9189 196.471 88.2994Z" fill="#38303B"/>
<path d="M190.932 87.8346C190.9 88.2152 190.697 88.5087 190.478 88.4903C190.26 88.472 190.109 88.1484 190.141 87.7679C190.173 87.3873 190.376 87.0938 190.594 87.1121C190.813 87.1305 190.965 87.454 190.932 87.8346Z" fill="#38303B"/>
<path d="M194.716 92.851C193.747 93.9866 192.834 94.193 191.733 93.819C191.203 93.514 190.806 93.0239 190.617 92.4434C191.204 92.8808 191.902 93.1442 192.632 93.2033C193.361 93.2623 194.093 93.1146 194.742 92.7771" fill="#E66E60"/>
<path d="M194.716 92.8507C193.774 93.3948 192.683 93.4977 191.283 92.9959C190.959 92.9011 190.685 92.6844 190.518 92.3916C191.888 92.972 193.412 93.0894 194.856 92.7258L194.716 92.8507Z" fill="white"/>
<path d="M199.496 86.2326C198.689 86.0372 197.933 85.671 197.28 85.1587C196.627 84.6464 196.092 84 195.712 83.2633C195.733 83.8829 195.868 84.4933 196.111 85.0638C193.167 84.4787 190.131 84.5369 187.211 85.2345C187.117 85.2686 187.013 85.2686 186.919 85.2345C186.763 85.1565 186.75 84.9323 186.763 84.7505C186.796 83.3205 187.331 81.9475 188.275 80.8712C188.8 80.3715 189.418 79.9799 190.095 79.7187C191.201 79.2398 192.398 79.0067 193.604 79.0356C194.809 79.0644 195.994 79.3546 197.076 79.8858C198.172 80.4655 199.106 81.31 199.791 82.3424C200.476 83.3748 200.892 84.5621 200.999 85.7959" fill="#38303B"/>
<path d="M193.196 87.154C193.007 88.0442 192.818 88.9345 192.63 89.8247L192.49 90.4835C192.453 90.6582 192.37 90.8687 192.464 91.0383C192.558 91.208 192.731 91.2136 192.901 91.2228L193.56 91.2589C193.889 91.2768 193.888 90.7673 193.56 90.7494L193.005 90.7194L192.866 90.7117C192.734 90.6873 192.755 90.7416 192.928 90.8748C192.955 90.8595 192.966 90.697 192.975 90.6552L193.215 89.5211L193.688 87.289C193.756 86.9695 193.264 86.8304 193.196 87.154V87.154Z" fill="#794642"/>
<path d="M210.492 132.477C211.4 134.503 211.97 136.664 212.179 138.874C212.362 138.693 212.595 138.572 212.848 138.525C213.101 138.477 213.363 138.506 213.599 138.608C214.018 138.822 213.888 139.185 213.803 139.592C213.772 139.75 213.697 139.895 213.586 140.011C213.474 140.127 213.332 140.208 213.176 140.246C213.567 140.894 214.572 141.081 215.429 141.013C215.868 141.003 216.295 140.872 216.665 140.636C217.32 140.149 217.25 139.241 216.83 138.594C216.33 137.981 215.79 137.401 215.215 136.856C214.848 136.402 214.533 135.909 214.276 135.385C213.394 133.703 213.098 131.876 212.535 130.1" fill="#86514D"/>
<path d="M170.947 189.91L170.963 189.921C170.933 189.9 170.963 189.921 170.971 189.928C170.991 189.945 171.01 189.962 171.029 189.979C171.067 190.014 171.102 190.052 171.135 190.091C171.141 190.101 171.149 190.11 171.157 190.118C171.137 190.103 171.131 190.084 171.153 190.114C171.169 190.135 171.183 190.157 171.197 190.178C171.225 190.221 171.251 190.267 171.275 190.313C171.286 190.333 171.296 190.353 171.306 190.374L171.324 190.414C171.338 190.445 171.306 190.368 171.318 190.401C171.336 190.452 171.354 190.498 171.369 190.548C171.383 190.598 171.397 190.65 171.407 190.698C171.413 190.723 171.418 190.749 171.422 190.774L171.428 190.808C171.438 190.868 171.421 190.748 171.428 190.808C171.43 190.875 171.457 190.939 171.503 190.988C171.551 191.035 171.616 191.062 171.683 191.063C171.808 191.057 171.956 190.949 171.938 190.808C171.916 190.546 171.84 190.291 171.713 190.061C171.587 189.83 171.413 189.628 171.204 189.468C171.175 189.451 171.143 189.44 171.11 189.436C171.077 189.431 171.043 189.433 171.011 189.442C170.978 189.45 170.948 189.465 170.921 189.486C170.895 189.506 170.872 189.531 170.855 189.56C170.823 189.619 170.815 189.688 170.832 189.752C170.849 189.817 170.89 189.873 170.947 189.909L170.947 189.91Z" fill="#F09532"/>
<path d="M172.62 189.316C172.667 189.363 172.712 189.411 172.756 189.461C172.777 189.485 172.797 189.508 172.817 189.532L172.854 189.577C172.866 189.592 172.873 189.602 172.857 189.581C172.938 189.687 173.012 189.797 173.079 189.912C173.143 190.024 173.202 190.139 173.254 190.257C173.272 190.295 173.232 190.202 173.26 190.271L173.277 190.315C173.289 190.344 173.299 190.373 173.309 190.402C173.333 190.468 173.354 190.536 173.373 190.603C173.382 190.636 173.396 190.667 173.417 190.694C173.437 190.721 173.463 190.744 173.492 190.761C173.522 190.778 173.554 190.789 173.588 190.793C173.621 190.798 173.656 190.795 173.688 190.786C173.721 190.777 173.752 190.762 173.779 190.741C173.805 190.72 173.827 190.694 173.844 190.664C173.86 190.635 173.871 190.602 173.874 190.568C173.878 190.535 173.875 190.5 173.865 190.468C173.703 189.897 173.398 189.377 172.981 188.955C172.933 188.909 172.868 188.883 172.801 188.884C172.734 188.884 172.67 188.911 172.623 188.958C172.576 189.006 172.549 189.07 172.548 189.136C172.548 189.203 172.573 189.267 172.62 189.316V189.316Z" fill="#F09532"/>
<path d="M179.774 43.7061H159.8C159.013 43.7061 158.233 43.8608 157.506 44.1615C156.779 44.4622 156.118 44.903 155.562 45.4586C155.005 46.0143 154.564 46.6739 154.263 47.3998C153.962 48.1258 153.807 48.9038 153.807 49.6895V66.9714C153.807 68.5579 154.439 70.0793 155.562 71.201C156.686 72.3227 158.21 72.9528 159.8 72.9528H172.882L181.605 82.5042C181.679 82.5848 181.777 82.639 181.884 82.6585C181.991 82.6779 182.102 82.6615 182.2 82.6117C182.297 82.562 182.375 82.4817 182.422 82.3833C182.468 82.2848 182.482 82.1737 182.459 82.0671L180.516 72.9024C181.965 72.7225 183.299 72.0204 184.266 70.9281C185.233 69.8357 185.767 68.4283 185.768 66.9704V49.6895C185.768 48.9037 185.613 48.1257 185.312 47.3997C185.011 46.6737 184.569 46.0141 184.013 45.4584C183.456 44.9028 182.795 44.4621 182.068 44.1614C181.341 43.8607 180.561 43.706 179.774 43.7061V43.7061Z" fill="white" stroke="#777776" stroke-width="0.992" stroke-miterlimit="10"/>
<path d="M170.021 48.1135C166.61 48.0875 163.822 51.0364 163.795 54.6991C163.767 58.3618 169.868 68.1293 169.868 68.1293C169.868 68.1293 176.119 58.4556 176.146 54.7924C176.173 51.1291 173.433 48.1389 170.021 48.1135ZM169.948 57.8254C169.276 57.8323 168.618 57.6396 168.057 57.2717C167.495 56.9038 167.056 56.3774 166.796 55.7595C166.535 55.1417 166.464 54.4604 166.593 53.8024C166.722 53.1445 167.044 52.5396 167.518 52.0649C167.992 51.5903 168.597 51.2673 169.256 51.137C169.914 51.0068 170.597 51.0753 171.217 51.3338C171.836 51.5923 172.365 52.0291 172.735 52.5885C173.105 53.1479 173.3 53.8046 173.295 54.4749C173.296 55.3622 172.944 56.2136 172.316 56.8418C171.688 57.4701 170.837 57.8239 169.948 57.8254V57.8254Z" fill="#EFB93F"/>
<path d="M54.4369 86.9445C53.2309 84.1663 49.5884 82.6964 46.6242 83.3358C43.66 83.9752 41.3123 86.4202 40.1701 89.2255C39.1841 91.6476 38.9789 94.3168 38.1587 96.8001C37.4554 98.9227 36.315 100.875 34.8107 102.531C33.4404 104.039 31.7674 105.302 30.7048 107.04C30.0111 108.174 29.6099 109.462 29.5372 110.789C29.4645 112.116 29.7225 113.44 30.2882 114.642C30.8539 115.845 31.7095 116.889 32.7786 117.681C33.8476 118.473 35.0966 118.987 36.4138 119.179C39.1621 119.578 42.0334 118.554 44.7078 119.302C46.0674 119.682 47.2938 120.504 48.6886 120.71C51.0996 121.067 53.4948 119.404 54.5451 117.209C55.5954 115.013 55.5107 112.428 54.9427 110.062C54.3272 107.498 53.1717 105.033 53.0645 102.398C52.9456 99.4785 53.653 97.5531 53.9107 94.6424C54.1399 92.0888 56.1359 90.8589 54.4369 86.9445Z" fill="#38303B"/>
<path d="M58.6173 189.843L58.4014 186.852C58.4151 186.454 58.2956 186.063 58.062 185.741C57.5863 185.21 56.6794 185.294 55.9337 185.426C55.6635 185.444 55.4066 185.55 55.2034 185.729C55.1207 185.861 55.0711 186.011 55.0587 186.167C55.0464 186.322 55.0717 186.478 55.1325 186.622L56.1532 190.658" fill="#F7B094"/>
<path d="M65.9431 193.607C64.1104 193.633 62.6083 193.652 60.7756 193.679C60.2142 193.687 55.7689 193.519 55.1284 193.517C54.9164 193.541 54.7028 193.487 54.5282 193.364C54.45 193.268 54.3941 193.155 54.3645 193.035C54.3348 192.914 54.3322 192.789 54.3567 192.667C54.4254 191.687 54.6259 190.72 54.9528 189.793C55.0273 189.583 55.1355 189.348 55.3504 189.287C55.4525 189.275 55.5561 189.283 55.655 189.311C55.754 189.339 55.8463 189.386 55.9266 189.45C56.6411 189.874 56.6922 189.872 57.5547 189.705C57.767 189.664 58.5943 189.414 58.7959 189.336C59.0274 189.271 59.2727 189.274 59.5028 189.343C61.5252 189.765 63.4829 190.452 65.325 191.385C65.7605 191.564 66.1377 191.86 66.4142 192.24C66.5447 192.434 66.5976 192.67 66.5626 192.901C66.5275 193.133 66.407 193.343 66.2248 193.49" fill="#38303B"/>
<path d="M18.4509 182.626L20.9165 180.913C21.2195 180.647 21.6093 180.501 22.0128 180.501C22.7538 180.576 23.3188 181.414 23.7353 182.143C23.9078 182.384 24.0029 182.671 24.0078 182.967C23.9665 183.306 23.6506 183.471 23.3663 183.596L19.5314 185.277" fill="#F7B094"/>
<path d="M20.2847 193.232C19.3992 191.63 18.6755 190.316 17.7895 188.713C17.5185 188.224 15.574 184.23 15.2744 183.664C15.1524 183.489 15.0994 183.275 15.1254 183.064C15.1866 182.824 15.4316 182.686 15.6607 182.585C16.5595 182.184 17.5083 181.906 18.4815 181.757C18.5887 181.726 18.7019 181.719 18.812 181.739C18.9221 181.758 19.0262 181.803 19.1159 181.869C19.1749 181.954 19.2165 182.049 19.2382 182.149C19.26 182.249 19.2614 182.353 19.2425 182.454C19.2047 183.284 19.2302 183.326 19.7855 184.007C19.9223 184.174 20.5322 184.785 20.696 184.926C20.8623 185.1 20.9754 185.317 21.0221 185.553C21.6014 187.532 21.9158 189.58 21.9571 191.641C22.0046 192.109 21.9207 192.581 21.7147 193.003C21.6044 193.21 21.4207 193.367 21.1998 193.445C20.9789 193.523 20.7367 193.516 20.521 193.425" fill="#38303B"/>
<path d="M43.9575 141.973C47.0999 156.153 49.9033 171.04 54.243 184.85C54.588 185.948 55.0815 187.836 55.6031 187.907C56.2869 187.985 56.979 187.949 57.6507 187.799C57.9248 187.752 58.1711 187.604 58.3408 187.384C58.5104 187.164 58.5909 186.888 58.5663 186.612C56.5937 165.702 57.1465 144.651 52.4878 124.239C52.323 123.517 43.0149 124.542 43.0149 124.542" fill="#2E3C87"/>
<path d="M21.8611 183.722C21.8898 183.807 21.9365 183.885 21.9981 183.951C22.0596 184.017 22.1346 184.07 22.218 184.104C22.3014 184.139 22.3912 184.155 22.4815 184.153C22.5718 184.15 22.6605 184.128 22.7415 184.088C27.7319 181.576 32.1323 177.312 35.8161 171.995C41.226 164.188 44.5572 157.993 47.5612 148.711C49.8711 141.573 51.8284 134.082 51.1879 126.566C47.7547 126.773 44.3351 127.163 40.9438 127.735C40.6802 127.744 40.422 127.811 40.1881 127.933C39.9542 128.054 39.7506 128.227 39.5923 128.437C39.1167 128.947 38.8543 130.284 38.7247 130.993C37.2599 139.043 36.9894 146.921 35.2542 154.909C33.153 164.568 28.6266 174.645 21.2339 180.585C21.1322 180.666 21.0581 180.777 21.0215 180.902C20.985 181.026 20.9879 181.159 21.0297 181.283L21.8611 183.722Z" fill="#415299"/>
<path d="M36.9175 134.463L37.289 136.233C37.3977 136.584 37.6204 136.889 37.9218 137.099C38.2233 137.31 38.5864 137.414 38.9538 137.396C43.9993 137.49 49.046 137.53 54.0939 137.514C54.4912 137.554 54.8912 137.471 55.2397 137.276C55.4572 137.08 55.5959 136.811 55.6301 136.52L56.166 134.192" fill="#EFB93F"/>
<path d="M60.5969 132.473C61.1461 133.39 63.1115 137.306 63.3616 138.325C63.6321 139.426 63.7352 140.603 64.2986 141.592C64.4083 141.785 64.7906 141.714 64.8692 141.49C65.0114 141.095 65.0876 140.679 65.0948 140.26C65.0979 140.026 65.4811 139.903 65.6516 140.074C65.7735 140.207 65.8699 140.361 65.9359 140.529C66.3493 141.507 66.8249 142.227 67.2383 143.205C67.4247 143.698 67.6679 144.169 67.9631 144.607C68.0968 144.776 68.2478 144.618 68.2524 144.407C68.2565 144.224 68.1141 143.531 68.1575 143.611C68.2545 143.791 68.6199 143.736 68.6168 143.407C68.55 141.997 68.2391 140.609 67.6982 139.304C66.6626 136.99 63.8607 133.954 62.8619 131.509" fill="#F7B094"/>
<path d="M49.551 113.059C51.899 120.277 55.5008 127.027 60.1917 133C60.7133 133.673 61.0864 134.218 61.7774 134.18C62.7471 134.129 64.3547 133.61 63.9097 132.58C61.8065 127.716 58.8571 122.092 58.2625 117.331C57.9935 115.185 57.8823 113.065 57.3597 110.877C56.837 108.688 55.9071 106.153 54.1443 104.468" fill="#EFB93F"/>
<path d="M38.7069 136.228C37.6162 136.242 36.7741 135.164 36.6144 134.088C36.4546 133.012 37.6913 130.691 37.53 129.562C37.3013 127.966 35.8248 113.816 39.0203 106.121C39.748 104.368 40.9596 102.613 42.8031 102.141C43.7946 101.973 44.8056 101.953 45.803 102.081C47.8955 102.177 50.1126 101.865 51.9841 102.801C55.1739 104.399 55.7261 108.63 55.8685 112.189C55.9869 115.159 56.106 118.129 56.2258 121.098C56.3738 124.799 57.6344 128.194 56.4922 131.159C56.1558 132.032 57.3312 134.554 56.7208 135.264C56.0405 136.055 54.2466 135.755 53.2023 135.782L40.2752 136.121" fill="#F2E2C8"/>
<path d="M63.8714 103.839L63.5008 103.469C63.399 103.368 63.2338 103.368 63.132 103.469L56.9388 109.651C56.8369 109.753 56.8369 109.917 56.9387 110.019L57.3094 110.389C57.4112 110.491 57.5763 110.491 57.6782 110.389L63.8714 104.207C63.9732 104.106 63.9733 103.941 63.8714 103.839Z" fill="#38303B"/>
<path d="M46.7353 126.418C45.7789 127.206 43.2729 128.485 42.2481 129.181C41.4826 129.701 40.1628 129.15 39.0839 127.954C38.3392 127.128 37.7676 125.476 37.4588 124.408C36.876 122.392 36.6775 119.604 36.6198 117.151C36.6005 114.296 36.8259 111.445 37.2935 108.629C37.6354 106.268 39.3788 103.104 41.1054 102.469C43.5889 101.556 44.6591 102.599 44.9546 106.261C45.1664 108.884 44.5361 111.102 44.0645 115.527C43.8507 117.531 43.5878 121.123 43.5878 121.123L46.7353 126.418Z" fill="#EFB93F"/>
<path d="M51.1694 115.484C51.9391 114.748 54.8737 111.494 55.3927 110.583C55.9541 109.597 56.3793 108.494 57.1831 107.692C57.3393 107.535 57.6771 107.7 57.6884 107.933C57.7104 108.349 57.6654 108.766 57.5551 109.168C57.4924 109.392 58.3151 109.647 58.5249 109.525C58.678 109.433 61.2951 106.804 61.3584 106.738C61.4993 106.591 61.8254 106.738 61.7279 107.051C61.2706 108.386 60.5928 109.636 59.7227 110.748C58.1069 112.7 54.6379 114.893 53.0195 116.982" fill="#F7B094"/>
<path d="M42.1523 129.121C43.3742 128.918 46.0026 127.278 47.1432 125.963C48.9428 123.891 54.6701 117.168 54.8289 116.038C54.8962 115.558 53.3488 114.153 52.7455 113.521C52.3852 113.143 49.3363 116.603 47.724 117.959C47.2244 118.379 44.3046 120.595 42.9128 121.525" fill="#EFB93F"/>
<path d="M41.3352 121.68C43.9993 121.239 46.8094 119.2 52.1274 113.732C52.1718 113.686 52.2249 113.65 52.2837 113.625C52.3424 113.599 52.4056 113.586 52.4695 113.586C52.5335 113.586 52.5968 113.598 52.6559 113.622C52.7149 113.647 52.7685 113.683 52.8134 113.728L54.7977 115.766" stroke="#2E3C87" stroke-width="0.283" stroke-miterlimit="10"/>
<path d="M43.243 121.05C42.5796 120.622 41.8328 120.339 41.052 120.221" stroke="#2E3C87" stroke-width="0.283" stroke-miterlimit="10"/>
<path d="M45.2359 101.358C45.6156 99.9045 46.1699 97.7647 46.4307 96.7834C46.5378 96.3799 46.645 95.9764 46.7655 95.5769C46.7846 95.4864 46.8272 95.4024 46.889 95.3334C46.9396 95.2931 47.0035 95.2729 47.0681 95.2768C47.6647 95.2677 48.1195 95.7761 48.6385 96.062C49.2734 96.412 50.0252 96.4329 50.6723 96.7528C50.7161 96.7687 50.7554 96.7948 50.7868 96.8291C50.8183 96.8633 50.841 96.9046 50.853 96.9495C50.8602 97.0147 50.8557 97.0806 50.8397 97.1441C50.6147 98.3256 50.3677 101.57 50.2191 103.075C50.1359 103.916 48.6227 104.369 47.1095 103.916C45.288 103.37 45.0843 101.936 45.2359 101.358Z" fill="#F7B094"/>
<path d="M46.889 95.3334C46.9396 95.2931 47.0035 95.2729 47.0681 95.2768C47.6647 95.2677 48.1195 95.7761 48.6385 96.062C49.2734 96.412 50.0252 96.4329 50.6723 96.7528C50.7161 96.7687 50.7554 96.7948 50.7868 96.8291C50.8183 96.8633 50.841 96.9046 50.853 96.9495C50.8602 97.0147 50.8557 97.0806 50.8397 97.1441C50.7142 97.8044 50.5885 98.4649 50.4626 99.1255C49.8029 99.4274 49.0672 99.5228 48.3522 99.3991C47.8538 99.2782 47.3976 99.0245 47.0324 98.665C46.6671 98.3056 46.4064 97.8539 46.2781 97.3581C46.3288 97.1666 46.3798 96.975 46.4312 96.7834C46.5384 96.3799 46.6455 95.9764 46.766 95.5769C46.7849 95.4864 46.8274 95.4025 46.889 95.3334Z" fill="#E89C82"/>
<path d="M45.4264 94.2892C44.5588 94.1628 43.7677 93.6686 43.6274 93.0154C43.487 92.3623 44.1643 91.6189 45.0518 91.5889" fill="#F7B094"/>
<path d="M45.3416 94.3496C46.2516 97.6104 48.5569 98.0271 50.9761 98.8031C51.4944 98.945 52.0339 98.9942 52.5694 98.9483C53.682 98.8265 54.1847 97.7668 54.4037 96.868C54.7837 95.3108 54.9734 93.7132 54.9687 92.1104C55.0235 90.9954 54.8001 89.8842 54.3185 88.8767C54.0226 88.3283 53.6062 87.854 53.1005 87.4891C52.5949 87.1242 52.013 86.8784 51.3987 86.7699C49.7527 86.5014 48.1114 87.3064 47.0095 88.332C45.385 89.8452 44.5562 92.0004 45.2298 93.9502" fill="#F7B094"/>
<path d="M54.966 92.0586C54.9387 92.5373 54.9857 93.0173 55.1053 93.4816C55.1708 93.7911 55.3396 94.0691 55.5841 94.2703C55.6497 94.3141 55.7052 94.3716 55.7465 94.4388C55.7878 94.5061 55.8141 94.5814 55.8235 94.6597C55.8329 94.738 55.8252 94.8175 55.801 94.8925C55.7767 94.9676 55.7365 95.0366 55.6831 95.0946C55.5614 95.2128 55.4044 95.2881 55.236 95.3091C55.114 95.3385 54.9861 95.3314 54.8681 95.2887C54.7502 95.246 54.6474 95.1697 54.5725 95.0692" fill="#F7B094"/>
<path d="M42.9724 91.8774C45.342 91.599 47.6362 90.8702 49.7312 89.7304C50.682 89.2979 51.5466 88.6972 52.283 87.9574C52.6403 87.5554 52.9062 87.0061 52.5831 86.5675C52.2315 86.0901 51.4067 86.0254 50.7249 86.0641C50.2309 86.0921 49.7399 86.1436 49.2555 86.2169C48.4509 86.3205 47.667 86.547 46.9313 86.8884C46.1785 87.3027 45.4947 87.831 44.9042 88.4546C44.2866 89.0502 43.6522 89.6998 43.5726 90.4793" fill="#38303B"/>
<path d="M51.4446 90.2812C51.4104 90.3083 51.4517 90.3516 51.5028 90.3556C51.5527 90.3556 51.6019 90.3441 51.6467 90.322C52.2246 90.1014 52.8566 90.0642 53.4564 90.2155C53.545 90.2452 53.6376 90.2613 53.731 90.2634C53.827 90.2598 53.9296 90.2125 53.928 90.1457C53.9235 90.1161 53.9082 90.0891 53.8852 90.0698C53.7661 89.9698 53.6238 89.9013 53.4712 89.8706C52.9309 89.737 52.3622 89.7766 51.8457 89.9837C51.6754 90.0403 51.5285 90.1513 51.4277 90.2996" fill="#38303B"/>
<g opacity="0.54">
<path d="M48.8813 94.1677C48.892 94.5393 49.047 94.8923 49.3138 95.1518C49.5805 95.4113 49.9379 95.557 50.3104 95.5581C50.492 95.5741 50.675 95.5536 50.8486 95.4978C51.0222 95.4421 51.1828 95.3522 51.3211 95.2335C51.4593 95.1148 51.5723 94.9696 51.6535 94.8066C51.7346 94.6436 51.7822 94.466 51.7935 94.2843C51.7829 93.9127 51.6278 93.5597 51.3611 93.3002C51.0944 93.0407 50.7369 92.895 50.3645 92.8939C50.1828 92.878 49.9998 92.8984 49.8262 92.9542C49.6527 93.0099 49.492 93.0998 49.3538 93.2185C49.2156 93.3372 49.1025 93.4824 49.0214 93.6454C48.9403 93.8084 48.8926 93.986 48.8813 94.1677V94.1677Z" fill="#ED825D"/>
</g>
<path d="M52.577 91.9213C52.5995 92.3126 52.8067 92.6234 53.0399 92.6157C53.2732 92.6081 53.4431 92.2851 53.4202 91.8938C53.3972 91.5025 53.19 91.1917 52.9572 91.1994C52.7245 91.207 52.5541 91.53 52.577 91.9213Z" fill="#38303B"/>
<path d="M62.587 51.8428H82.5622C84.1512 51.8433 85.6749 52.4739 86.7982 53.5957C87.9216 54.7176 88.5526 56.239 88.5524 57.8252V75.1071C88.5524 76.6936 87.9211 78.2151 86.7973 79.337C85.6736 80.4588 84.1494 81.089 82.5602 81.089H69.4795L60.7568 90.6404C60.6833 90.721 60.5852 90.7753 60.4778 90.7947C60.3704 90.8141 60.2595 90.7977 60.1623 90.748C60.0652 90.6982 59.9871 90.6179 59.9403 90.5195C59.8934 90.421 59.8803 90.3099 59.9029 90.2033L61.8459 81.0386C60.3967 80.859 59.0632 80.157 58.0962 79.0646C57.1291 77.9723 56.5952 76.5649 56.5947 75.1071V57.8252C56.5947 57.0396 56.7496 56.2617 57.0507 55.5359C57.3518 54.8101 57.7932 54.1505 58.3496 53.595C58.9061 53.0395 59.5667 52.5988 60.2937 52.2982C61.0208 51.9975 61.8 51.8428 62.587 51.8428V51.8428Z" fill="white" stroke="#777776" stroke-width="0.992" stroke-miterlimit="10"/>
<path d="M66.0803 62.7958C66.1078 66.4585 72.3578 76.1327 72.3578 76.1327C72.3578 76.1327 78.4608 66.3658 78.4312 62.7025C78.4016 59.0393 75.6155 56.0909 72.2047 56.1164C68.7939 56.1418 66.0527 59.1326 66.0803 62.7958ZM68.9332 62.4779C68.94 61.8245 69.1399 61.1877 69.5079 60.6474C69.8759 60.1071 70.3956 59.6874 71.0017 59.4409C71.6079 59.1944 72.2734 59.1321 72.9149 59.2619C73.5563 59.3917 74.1451 59.7077 74.6073 60.1704C75.0694 60.633 75.3844 61.2216 75.5126 61.8623C75.6409 62.503 75.5767 63.1672 75.3281 63.7717C75.0795 64.3761 74.6576 64.8937 74.1154 65.2596C73.5731 65.6255 72.9347 65.8233 72.2802 65.8283C71.84 65.8277 71.4042 65.7405 70.9977 65.5717C70.5913 65.403 70.2221 65.1559 69.9113 64.8447C69.6005 64.5335 69.3541 64.1642 69.1863 63.7579C69.0185 63.3516 68.9325 62.9163 68.9332 62.4768V62.4779Z" fill="#EFB93F"/>
</g>
<defs>
<clipPath id="clip0_154_1626">
<rect width="231" height="201" fill="white"/>
</clipPath>
</defs>
</svg>
