<svg version="1.2" xmlns="http://www.w3.org/2000/svg" viewBox="0 0 18 18" width="18" height="18">
	<title>fi-rr-calendar-svg</title>
	<style>
		.s0 { fill: #000 } 
	</style>
	<g id="Layer">
		<path id="Layer" fill-rule="evenodd" class="s0" d="m16.9 2.6c0.7 0.7 1.1 1.7 1.1 2.6v9.1c0 0.9-0.4 1.9-1.1 2.6-0.7 0.7-1.7 1.1-2.6 1.1h-10.5c-1 0-2-0.4-2.7-1.1-0.7-0.7-1.1-1.7-1.1-2.6v-9.1c0-0.9 0.4-1.9 1.1-2.6 0.7-0.7 1.7-1.1 2.7-1.1h0.7v-0.8q0-0.3 0.2-0.5 0.2-0.2 0.6-0.2 0.3 0 0.5 0.2 0.2 0.2 0.2 0.6v0.7h6v-0.7q0-0.4 0.2-0.6 0.2-0.2 0.6-0.2 0.3 0 0.5 0.2 0.2 0.2 0.2 0.6v0.7h0.8c0.9 0 1.9 0.4 2.6 1.1zm-15.4 3.4h15v-0.7c0-0.6-0.2-1.2-0.7-1.6-0.4-0.5-1-0.7-1.5-0.7h-10.5c-0.6 0-1.2 0.2-1.6 0.7-0.5 0.4-0.7 1-0.7 1.6zm14.3 9.8c0.5-0.4 0.7-1 0.7-1.6v-6.8h-15v6.8c0 0.6 0.2 1.2 0.7 1.6 0.4 0.4 1 0.6 1.6 0.6h10.5c0.5 0 1.1-0.2 1.5-0.6z"/>
		<path id="Layer" class="s0" d="m9 12.4c0.6 0 1.1-0.5 1.1-1.2 0-0.6-0.5-1.1-1.1-1.1-0.6 0-1.1 0.5-1.1 1.1 0 0.7 0.5 1.2 1.1 1.2z"/>
		<path id="Layer" class="s0" d="m5.2 12.4c0.7 0 1.2-0.5 1.2-1.2 0-0.6-0.5-1.1-1.2-1.1-0.6 0-1.1 0.5-1.1 1.1 0 0.7 0.5 1.2 1.1 1.2z"/>
		<path id="Layer" class="s0" d="m12.8 12.4c0.6 0 1.1-0.5 1.1-1.2 0-0.6-0.5-1.1-1.1-1.1-0.7 0-1.2 0.5-1.2 1.1 0 0.7 0.5 1.2 1.2 1.2z"/>
	</g>
</svg>