<svg width="40" height="40" viewBox="0 0 40 40" fill="none" xmlns="http://www.w3.org/2000/svg">
<circle cx="20" cy="20" r="18.5" fill="#FBAD18" stroke="#FBAD18"/>
<path d="M21.985 10.6344C22.0183 10.5122 22.0767 10.3975 22.1568 10.2973C22.2368 10.197 22.3369 10.113 22.4511 10.0504C22.5654 9.98769 22.6915 9.94753 22.8222 9.93225C22.9528 9.91697 23.0853 9.92686 23.2119 9.96136C25.0788 10.4421 26.7812 11.3858 28.148 12.698C29.5147 14.0101 30.4979 15.6443 30.9986 17.4366C31.0345 17.5581 31.0448 17.6853 31.0289 17.8107C31.013 17.9361 30.9712 18.0572 30.9059 18.1669C30.8406 18.2766 30.7531 18.3727 30.6487 18.4495C30.5442 18.5263 30.4248 18.5824 30.2975 18.6144C30.2121 18.6381 30.1236 18.6503 30.0346 18.6504C29.8136 18.6492 29.5992 18.5778 29.4248 18.4474C29.2505 18.317 29.1259 18.1348 29.0707 17.9293C28.6542 16.4659 27.8474 15.132 26.73 14.0592C25.6125 12.9865 24.223 12.212 22.6986 11.8121C22.5702 11.7815 22.4494 11.7264 22.3436 11.6501C22.2377 11.5738 22.1489 11.478 22.0824 11.3681C22.0158 11.2583 21.9729 11.1368 21.9562 11.0107C21.9395 10.8847 21.9493 10.7567 21.985 10.6344V10.6344ZM21.6595 15.5257C22.5069 15.7484 23.2793 16.1791 23.9005 16.7755C24.5217 17.3719 24.9704 18.1134 25.2024 18.9268C25.2557 19.1333 25.3796 19.3167 25.5544 19.4474C25.7292 19.5782 25.9447 19.6488 26.1663 19.6479C26.2512 19.6487 26.3358 19.6366 26.4167 19.6119C26.5451 19.5812 26.6659 19.5261 26.7717 19.4498C26.8776 19.3736 26.9664 19.2777 27.0329 19.1679C27.0995 19.058 27.1424 18.9365 27.1591 18.8104C27.1758 18.6844 27.166 18.5564 27.1303 18.4341C26.8141 17.2918 26.1891 16.25 25.3185 15.4142C24.4479 14.5785 23.3627 13.9785 22.1728 13.6749C22.0422 13.6293 21.9031 13.6102 21.7643 13.6189C21.6256 13.6277 21.4903 13.6641 21.367 13.7258C21.2437 13.7875 21.1351 13.8732 21.0482 13.9774C20.9613 14.0816 20.898 14.202 20.8622 14.331C20.8264 14.4599 20.819 14.5947 20.8405 14.7265C20.8619 14.8584 20.9117 14.9846 20.9867 15.097C21.0617 15.2094 21.1603 15.3055 21.2761 15.3793C21.392 15.4532 21.5225 15.503 21.6595 15.5257V15.5257ZM31.9876 27.1232C31.7661 28.7461 30.9383 30.2366 29.658 31.3176C28.3777 32.3985 26.7321 32.9964 25.0271 33C15.0872 33 7 25.2363 7 15.694C7.00376 14.0572 7.62653 12.4774 8.75254 11.2483C9.87854 10.0193 11.4312 9.22454 13.1217 9.01193C13.5527 8.96606 13.9876 9.05317 14.3635 9.26062C14.7395 9.46806 15.0368 9.78507 15.2123 10.1657L17.7286 15.8021C17.8592 16.0947 17.9115 16.4139 17.8809 16.7309C17.8503 17.0478 17.7377 17.3523 17.5534 17.6169L15.4752 20.6695C16.4163 22.5028 17.9668 23.9829 19.8819 24.8758L23.0241 22.8688C23.2994 22.6906 23.6174 22.5828 23.9482 22.5555C24.2789 22.5281 24.6115 22.5822 24.9144 22.7125L30.7858 25.1161C31.1822 25.2847 31.5124 25.5701 31.7285 25.931C31.9446 26.2919 32.0354 26.7094 31.9876 27.1232V27.1232ZM29.9971 26.8828L24.1257 24.4792L20.996 26.4862C20.7081 26.669 20.3758 26.7772 20.0314 26.8003C19.6871 26.8235 19.3423 26.7608 19.0306 26.6184C16.6983 25.5353 14.8117 23.7326 13.6725 21.4987C13.5223 21.2005 13.4549 20.8701 13.4769 20.5395C13.4988 20.2089 13.6093 19.8894 13.7977 19.6119L15.8884 16.5593L13.3721 10.9228C12.164 11.0719 11.0539 11.6386 10.2496 12.5169C9.44541 13.3951 9.00221 14.5246 9.00301 15.694C9.00633 19.7729 10.6956 23.6838 13.7 26.568C16.7044 29.4522 20.7783 31.0739 25.0271 31.0771C26.2452 31.0779 27.4218 30.6524 28.3366 29.8804C29.2514 29.1083 29.8418 28.0426 29.9971 26.8828V26.8828Z" fill="white"/>
</svg>
