<?xml version="1.0" ?><svg viewBox="0 0 64 64" xmlns="http://www.w3.org/2000/svg"><defs><style>.cls-1,.cls-3{fill:#80ee98;}.cls-1,.cls-4,.cls-6{fill-rule:evenodd;}.cls-2,.cls-6{fill:#c8f9cc;}.cls-4,.cls-5{fill:#57cc98;}</style></defs><g id="Budget"><path class="cls-1" d="M4,39.61H60V13.21a1.86,1.86,0,0,0-1.86-1.86H5.81A1.86,1.86,0,0,0,4,13.21Z"/><path class="cls-2" d="M9.11,19.75a.72.72,0,0,0-.62.71v10a.72.72,0,0,0,.62.71,4.45,4.45,0,0,1,3.8,3.8.72.72,0,0,0,.71.62H50.29A.72.72,0,0,0,51,35a4.45,4.45,0,0,1,3.8-3.8.72.72,0,0,0,.62-.71v-10a.72.72,0,0,0-.62-.71A4.47,4.47,0,0,1,51,16a.71.71,0,0,0-.71-.62H13.62a.71.71,0,0,0-.71.62A4.47,4.47,0,0,1,9.11,19.75Z"/><path class="cls-3" d="M32,18.11a7.37,7.37,0,1,1-7.37,7.37A7.38,7.38,0,0,1,32,18.11Z"/><rect class="cls-2" height="4.35" width="56" x="3.95" y="39.61"/><rect class="cls-3" height="4.35" width="56" x="3.95" y="43.96"/><path class="cls-4" d="M56.21,39.61H60V13.21a1.86,1.86,0,0,0-1.86-1.86h-2Z"/><rect class="cls-3" height="4.35" width="3.83" x="56.21" y="39.61"/><rect class="cls-5" height="4.35" width="3.83" x="56.21" y="43.96"/><path class="cls-6" d="M5.81,52.65H58.18A1.86,1.86,0,0,0,60,50.79V48.3H4v2.49A1.86,1.86,0,0,0,5.81,52.65Z"/><path class="cls-1" d="M56.22,52.65h2A1.86,1.86,0,0,0,60,50.79V48.3H56.22Z"/><path class="cls-4" d="M43.8,26.35h2a1,1,0,0,0,0-2h-2a1,1,0,0,0,0,2Zm-25.65,0h2a1,1,0,0,0,0-2h-2a1,1,0,0,0,0,2ZM31,21.51v-.24a1,1,0,0,1,2,0v.24a2.66,2.66,0,0,1,.84.55,1,1,0,0,1,0,1.42,1,1,0,0,1-1.42,0A.6.6,0,0,0,32,23.3h0a.59.59,0,0,0-.58.59.58.58,0,0,0,.58.59,2.59,2.59,0,0,1,1,5v.23a1,1,0,0,1-2,0v-.23a2.6,2.6,0,0,1-.82-.56,1,1,0,0,1,0-1.41,1,1,0,0,1,1.42,0,.53.53,0,0,0,.35.17H32A.59.59,0,0,0,32,26.48a2.59,2.59,0,0,1-1-5Z"/></g></svg>