<svg width="40" height="40" viewBox="0 0 40 40" fill="none" xmlns="http://www.w3.org/2000/svg">
<g clip-path="url(#clip0_102_15)">
<path d="M20 1C16.2422 1 12.5687 2.11433 9.44417 4.20208C6.31964 6.28982 3.88436 9.25722 2.4463 12.729C1.00823 16.2008 0.631969 20.0211 1.36509 23.7067C2.09821 27.3924 3.90778 30.7778 6.56498 33.435C9.22218 36.0922 12.6077 37.9018 16.2933 38.6349C19.9789 39.368 23.7992 38.9918 27.271 37.5537C30.7428 36.1156 33.7102 33.6804 35.7979 30.5558C37.8857 27.4313 39 23.7578 39 20C38.9946 14.9626 36.991 10.133 33.429 6.57099C29.867 3.00898 25.0374 1.00545 20 1V1ZM20 35.8333C16.8685 35.8333 13.8073 34.9047 11.2035 33.1649C8.5997 31.4251 6.5703 28.9523 5.37192 26.0592C4.17353 23.166 3.85998 19.9824 4.47091 16.9111C5.08184 13.8397 6.58982 11.0185 8.80415 8.80414C11.0185 6.58981 13.8397 5.08183 16.9111 4.4709C19.9824 3.85997 23.166 4.17352 26.0592 5.37191C28.9523 6.5703 31.4252 8.59969 33.1649 11.2035C34.9047 13.8073 35.8333 16.8685 35.8333 20C35.8287 24.1978 34.1591 28.2224 31.1908 31.1908C28.2224 34.1591 24.1979 35.8287 20 35.8333V35.8333Z" fill="#FBAD18"/>
<path d="M19.9998 10.5C19.5798 10.5 19.1771 10.6668 18.8802 10.9637C18.5832 11.2607 18.4164 11.6634 18.4164 12.0833V18.9312L13.079 22.2752C12.7221 22.4982 12.4683 22.8539 12.3736 23.2639C12.2789 23.674 12.3509 24.1049 12.5739 24.4618C12.7969 24.8187 13.1525 25.0725 13.5626 25.1672C13.9727 25.2619 14.4036 25.1899 14.7605 24.9669L20.8405 21.1669C21.0702 21.023 21.2591 20.8225 21.3892 20.5846C21.5192 20.3467 21.586 20.0795 21.5831 19.8084V12.0833C21.5831 11.6634 21.4163 11.2607 21.1193 10.9637C20.8224 10.6668 20.4197 10.5 19.9998 10.5Z" fill="#FBAD18"/>
</g>
<defs>
<clipPath id="clip0_102_15">
<rect width="38" height="38" fill="white" transform="translate(1 1)"/>
</clipPath>
</defs>
</svg>
