<svg width="40" height="40" viewBox="0 0 40 40" fill="none" xmlns="http://www.w3.org/2000/svg">
<path d="M20.0238 23.7924C25.2687 23.7924 29.5206 18.6902 29.5206 12.3962C29.5206 6.10225 25.2687 1 20.0238 1C14.7788 1 10.5269 6.10225 10.5269 12.3962C10.5269 18.6902 14.7788 23.7924 20.0238 23.7924Z" fill="#FBAD18"/>
<path d="M38.6376 33.4792C36.9281 30.0604 33.6992 27.2113 29.5206 25.5019C28.381 25.122 27.0514 25.122 26.1017 25.6918C24.2024 26.8314 22.303 27.4012 20.0238 27.4012C17.7445 27.4012 15.8452 26.8314 13.9458 25.6918C12.9961 25.3119 11.6665 25.122 10.5269 25.6918C6.34832 27.4012 3.11939 30.2503 1.40996 33.6692C0.0804058 36.1383 2.16971 38.9874 5.01876 38.9874H35.0288C37.8778 38.9874 39.9671 36.1383 38.6376 33.4792Z" fill="#FBAD18"/>
</svg>
