<svg width="8" height="8" viewBox="0 0 8 8" fill="none" xmlns="http://www.w3.org/2000/svg">
<path d="M0.25 6.27504V7.54171C0.25 7.65837 0.341667 7.75004 0.458333 7.75004H1.725C1.77917 7.75004 1.83333 7.72921 1.87083 7.68754L6.42083 3.14171L4.85833 1.57921L0.3125 6.12504C0.270833 6.16671 0.25 6.21671 0.25 6.27504ZM7.62917 1.34588L6.65417 0.370875C6.61562 0.332249 6.56983 0.301604 6.51943 0.280695C6.46902 0.259786 6.41499 0.249023 6.36042 0.249023C6.30585 0.249023 6.25181 0.259786 6.20141 0.280695C6.151 0.301604 6.10521 0.332249 6.06667 0.370875L5.30417 1.13337L6.86667 2.69587L7.62917 1.93338C7.66779 1.89483 7.69844 1.84904 7.71935 1.79864C7.74025 1.74823 7.75102 1.6942 7.75102 1.63962C7.75102 1.58505 7.74025 1.53102 7.71935 1.48061C7.69844 1.43021 7.66779 1.38442 7.62917 1.34588Z" fill="black"/>
</svg>
