<svg width="50" height="50" viewBox="0 0 50 50" fill="none" xmlns="http://www.w3.org/2000/svg">
<g clip-path="url(#clip0_61_475)">
<path d="M49.9762 25.4675C49.9762 23.4191 49.8061 21.9242 49.4379 20.374H25.498V29.6198H39.5502C39.267 31.9175 37.7371 35.3778 34.3373 37.703L34.2896 38.0126L41.859 43.7422L42.3834 43.7933C47.1996 39.4471 49.9762 33.0525 49.9762 25.4675Z" fill="#4285F4"/>
<path d="M25.498 49.8284C32.3824 49.8284 38.1619 47.6137 42.3834 43.7937L34.3373 37.7034C32.1842 39.1706 29.2943 40.1948 25.498 40.1948C18.7553 40.1948 13.0324 35.8489 10.9924 29.8418L10.6934 29.8666L2.82266 35.8183L2.71973 36.0979C6.9127 44.2365 15.5254 49.8284 25.498 49.8284Z" fill="#34A853"/>
<path d="M10.9924 29.8418C10.4541 28.2916 10.1426 26.6306 10.1426 24.9143C10.1426 23.1979 10.4541 21.537 10.9641 19.9869L10.9498 19.6567L2.98047 13.6094L2.71973 13.7306C0.991602 17.1078 0 20.9004 0 24.9143C0 28.9283 0.991602 32.7206 2.71973 36.0979L10.9924 29.8418Z" fill="#FBBC05"/>
<path d="M25.498 9.6334C30.2859 9.6334 33.5156 11.6542 35.3572 13.3429L42.5533 6.47767C38.1338 2.46374 32.3824 0 25.498 0C15.5254 0 6.9127 5.59179 2.71973 13.7303L10.9641 19.9866C13.0324 13.9796 18.7553 9.6334 25.498 9.6334Z" fill="#EB4335"/>
</g>
<defs>
<clipPath id="clip0_61_475">
<rect width="50" height="50" fill="white"/>
</clipPath>
</defs>
</svg>
