<svg width="40" height="40" viewBox="0 0 40 40" fill="none" xmlns="http://www.w3.org/2000/svg">
<path d="M20 1C9.50674 1 1 9.50674 1 20C1 30.4933 9.50674 39 20 39C30.4933 39 39 30.4933 39 20C39 9.50674 30.4933 1 20 1ZM14.5714 20C14.5714 18.9263 14.8898 17.8768 15.4863 16.984C16.0828 16.0913 16.9306 15.3955 17.9226 14.9847C18.9145 14.5738 20.006 14.4663 21.0591 14.6757C22.1121 14.8852 23.0794 15.4022 23.8386 16.1614C24.5978 16.9206 25.1148 17.8879 25.3243 18.9409C25.5337 19.994 25.4262 21.0855 25.0153 22.0774C24.6045 23.0694 23.9087 23.9172 23.016 24.5137C22.1232 25.1102 21.0737 25.4286 20 25.4286C18.5603 25.4286 17.1795 24.8566 16.1614 23.8386C15.1434 22.8205 14.5714 21.4397 14.5714 20ZM34.6945 14.7165L27.3718 15.1652C26.7081 14.1579 25.8463 13.2962 24.8391 12.6324L25.2835 5.30978C27.4472 6.09284 29.4122 7.34217 31.0392 8.96923C32.6663 10.5963 33.9156 12.5613 34.6987 14.725L34.6945 14.7165ZM8.96388 8.96388C10.5874 7.33419 12.5521 6.08475 14.7165 5.30554L15.1652 12.6282C14.156 13.2927 13.2927 14.156 12.6282 15.1652L5.30554 14.7207C6.08419 12.5548 7.33366 10.5886 8.96388 8.96388V8.96388ZM5.30554 25.2835L12.6282 24.8391C13.2932 25.8468 14.1564 26.7085 15.1652 27.3718L14.7207 34.6945C12.5575 33.9118 10.5928 32.6632 8.96572 31.0369C7.33869 29.4106 6.08913 27.4464 5.30554 25.2835V25.2835ZM31.0361 31.0361C29.4126 32.6658 27.4479 33.9152 25.2835 34.6945L24.8391 27.3718C25.8463 26.7081 26.7081 25.8463 27.3718 24.8391L34.6945 25.2835C33.9152 27.4479 32.6658 29.4126 31.0361 31.0361Z" fill="#FBAD18"/>
</svg>
