<svg width="40" height="40" viewBox="0 0 40 40" fill="none" xmlns="http://www.w3.org/2000/svg">
<g clip-path="url(#clip0_1_2)">
<path d="M20 24.7371C17.3767 24.7371 15.25 26.8637 15.25 29.4871V38.9871H24.75V29.4871C24.75 26.8637 22.6233 24.7371 20 24.7371Z" fill="#FBAD18"/>
<path d="M27.9167 29.4877V38.9877H34.25C36.8733 38.9877 39 36.861 39 34.2377V19.7961C39.0004 18.9736 38.6807 18.1831 38.1086 17.5921L24.6534 3.046C22.2793 0.477289 18.2724 0.319574 15.7037 2.69368C15.5817 2.8065 15.4641 2.92398 15.3514 3.046L1.91994 17.5874C1.3305 18.1808 0.999777 18.9834 1 19.8199V34.2377C1 36.861 3.12666 38.9877 5.75 38.9877H12.0833V29.4877C12.1129 25.1702 15.5988 21.6446 19.8075 21.543C24.157 21.4381 27.8835 25.0238 27.9167 29.4877Z" fill="#FBAD18"/>
<path d="M20 24.7371C17.3767 24.7371 15.25 26.8637 15.25 29.4871V38.9871H24.75V29.4871C24.75 26.8637 22.6233 24.7371 20 24.7371Z" fill="#FBAD18"/>
</g>
<defs>
<clipPath id="clip0_1_2">
<rect width="38" height="38" fill="white" transform="translate(1 1)"/>
</clipPath>
</defs>
</svg>
