<svg width="38" height="38" viewBox="0 0 38 38" fill="none" xmlns="http://www.w3.org/2000/svg">
<g clip-path="url(#clip0_17_42)">
<path d="M18.1703 23.75C17.7504 23.75 17.3477 23.9168 17.0507 24.2137C16.7538 24.5107 16.587 24.9134 16.587 25.3333V30.0833C16.587 31.3431 16.0866 32.5513 15.1958 33.4421C14.305 34.3329 13.0968 34.8333 11.837 34.8333H7.91667C6.65689 34.8333 5.44871 34.3329 4.55791 33.4421C3.66711 32.5513 3.16667 31.3431 3.16667 30.0833V7.91667C3.16667 6.65689 3.66711 5.44871 4.55791 4.55791C5.44871 3.66711 6.65689 3.16667 7.91667 3.16667H11.837C13.0968 3.16667 14.305 3.66711 15.1958 4.55791C16.0866 5.44871 16.587 6.65689 16.587 7.91667V12.6667C16.587 13.0866 16.7538 13.4893 17.0507 13.7863C17.3477 14.0832 17.7504 14.25 18.1703 14.25C18.5903 14.25 18.993 14.0832 19.2899 13.7863C19.5869 13.4893 19.7537 13.0866 19.7537 12.6667V7.91667C19.7512 5.81781 18.9163 3.80563 17.4322 2.32151C15.948 0.837396 13.9359 0.00251411 11.837 0H7.91667C5.81781 0.00251411 3.80563 0.837396 2.32151 2.32151C0.837396 3.80563 0.00251411 5.81781 0 7.91667L0 30.0833C0.00251411 32.1822 0.837396 34.1944 2.32151 35.6785C3.80563 37.1626 5.81781 37.9975 7.91667 38H11.837C13.9359 37.9975 15.948 37.1626 17.4322 35.6785C18.9163 34.1944 19.7512 32.1822 19.7537 30.0833V25.3333C19.7537 24.9134 19.5869 24.5107 19.2899 24.2137C18.993 23.9168 18.5903 23.75 18.1703 23.75Z" fill="#FBAD18"/>
<path d="M36.2063 15.6421L28.9452 8.3809C28.7991 8.22967 28.6244 8.10905 28.4312 8.02607C28.238 7.94309 28.0303 7.89941 27.82 7.89758C27.6098 7.89575 27.4013 7.93582 27.2067 8.01543C27.0121 8.09504 26.8354 8.21261 26.6867 8.36127C26.538 8.50993 26.4205 8.68672 26.3409 8.8813C26.2612 9.07589 26.2212 9.28438 26.223 9.49461C26.2248 9.70485 26.2685 9.91261 26.3515 10.1058C26.4345 10.299 26.5551 10.4737 26.7063 10.6197L33.4561 17.3695L9.50023 17.417C9.08031 17.417 8.67758 17.5838 8.38065 17.8807C8.08372 18.1777 7.9169 18.5804 7.9169 19.0003C7.9169 19.4202 8.08372 19.823 8.38065 20.1199C8.67758 20.4168 9.08031 20.5836 9.50023 20.5836L33.5479 20.5361L26.7032 27.3809C26.5519 27.527 26.4313 27.7017 26.3483 27.8948C26.2653 28.088 26.2217 28.2958 26.2198 28.506C26.218 28.7162 26.2581 28.9247 26.3377 29.1193C26.4173 29.3139 26.5349 29.4907 26.6835 29.6394C26.8322 29.788 27.009 29.9056 27.2036 29.9852C27.3981 30.0648 27.6066 30.1049 27.8169 30.103C28.0271 30.1012 28.2349 30.0575 28.428 29.9746C28.6212 29.8916 28.7959 29.771 28.942 29.6197L36.2032 22.3586C37.0941 21.4682 37.5949 20.2605 37.5955 19.001C37.5961 17.7414 37.0964 16.5332 36.2063 15.6421Z" fill="#FBAD18"/>
</g>
<defs>
<clipPath id="clip0_17_42">
<rect width="38" height="38" fill="white"/>
</clipPath>
</defs>
</svg>
