<svg width="40" height="40" viewBox="0 0 40 40" fill="none" xmlns="http://www.w3.org/2000/svg">
<path d="M9.55 12.6084C7.859 12.6084 6.491 11.2404 6.491 9.54954C6.491 8.73828 6.81329 7.96026 7.38696 7.38661C7.96063 6.81297 8.7387 6.4907 9.55 6.4907C11.241 6.4907 12.609 7.85863 12.609 9.54954C12.609 10.3608 12.2867 11.1388 11.713 11.7125C11.1394 12.2861 10.3613 12.6084 9.55 12.6084M9.55 1C4.8 1 1 4.79979 1 9.54954C1 15.9522 9.55 25.4327 9.55 25.4327C9.55 25.4327 18.1 15.9522 18.1 9.54954C18.1 4.79979 14.3 1 9.55 1ZM30.45 12.6084C29.6387 12.6084 28.8606 12.2861 28.287 11.7125C27.7133 11.1388 27.391 10.3608 27.391 9.54954C27.391 9.14784 27.4701 8.75009 27.6239 8.37897C27.7776 8.00786 28.0029 7.67065 28.287 7.38661C28.571 7.10257 28.9082 6.87726 29.2794 6.72354C29.6505 6.56982 30.0483 6.4907 30.45 6.4907C30.8517 6.4907 31.2495 6.56982 31.6206 6.72354C31.9918 6.87726 32.329 7.10257 32.613 7.38661C32.8971 7.67065 33.1224 8.00786 33.2761 8.37897C33.4299 8.75009 33.509 9.14784 33.509 9.54954C33.509 10.3608 33.1867 11.1388 32.613 11.7125C32.0394 12.2861 31.2613 12.6084 30.45 12.6084ZM30.45 1C25.7 1 21.9 4.79979 21.9 9.54954C21.9 15.9522 30.45 25.4327 30.45 25.4327C30.45 25.4327 39 15.9522 39 9.54954C39 4.79979 35.2 1 30.45 1M30.45 27.5986C28.037 27.5986 25.89 29.1185 25.092 31.3983H14.908C14.4045 29.9764 13.3579 28.812 11.9975 28.1603C10.637 27.5086 9.07365 27.4227 7.65 27.9215C6.94241 28.1695 6.29062 28.5544 5.73189 29.0544C5.17317 29.5543 4.71847 30.1595 4.39379 30.8353C4.06911 31.5111 3.88082 32.2443 3.83967 32.9929C3.79853 33.7415 3.90534 34.4908 4.154 35.1981C4.66428 36.6238 5.71797 37.7896 7.08497 38.4411C8.45197 39.0925 10.0212 39.1766 11.45 38.675C13.065 38.105 14.3 36.8131 14.908 35.1981H25.111C26.156 38.162 29.424 39.7199 32.35 38.675C33.0597 38.4296 33.714 38.0464 34.2752 37.5474C34.8364 37.0484 35.2934 36.4434 35.62 35.7672C35.9467 35.091 36.1365 34.357 36.1785 33.6072C36.2205 32.8575 36.114 32.1068 35.865 31.3983C35.048 29.1185 32.882 27.5986 30.45 27.5986ZM30.45 36.1481C29.6941 36.1481 28.9692 35.8478 28.4347 35.3134C27.9003 34.7789 27.6 34.0541 27.6 33.2982C27.6 32.5424 27.9003 31.8176 28.4347 31.2831C28.9692 30.7487 29.6941 30.4484 30.45 30.4484C31.2059 30.4484 31.9308 30.7487 32.4653 31.2831C32.9997 31.8176 33.3 32.5424 33.3 33.2982C33.3 34.0541 32.9997 34.7789 32.4653 35.3134C31.9308 35.8478 31.2059 36.1481 30.45 36.1481Z" fill="#FBBC05"/>
</svg>
