<svg width="40" height="40" viewBox="0 0 40 40" fill="none" xmlns="http://www.w3.org/2000/svg">
<path d="M28.7459 12.7117C30.738 12.2693 33.3327 10.2921 33.7275 9.31838C33.9591 8.74838 32.8042 7.85775 32.4955 7.49853C31.7889 6.67916 32.0739 6.27541 32.347 5.29869C32.6588 4.18838 31.9195 2.96228 30.8716 2.48135C29.8236 2.00041 28.5708 2.15182 27.5169 2.62088C26.463 3.08994 25.5634 3.844 24.6817 4.58619C24.0375 4.17947 23.0103 2.38338 21.3478 3.5501C20.1989 4.35463 20.095 6.10619 20.2434 7.50447C20.5908 10.7315 21.3864 12.4059 22.8856 12.8571C24.7797 13.4271 26.8756 13.1273 28.7459 12.7117Z" fill="#FFCA28"/>
<path d="M31.9819 3.42847C31.7295 7.77769 27.4872 10.6633 25.4744 11.9339L26.7806 13.0561C26.7806 13.0561 27.6089 13.0739 28.743 12.7117C30.6875 12.0942 33.5286 10.3486 33.7245 9.31847C34.0125 7.81925 32.4747 8.14581 32.1273 6.96128C31.9462 6.33487 33.0091 5.15034 31.9819 3.42847V3.42847ZM24.6847 4.58925C24.6847 4.58925 23.9276 3.8144 23.3666 3.46112C23.0875 3.98659 22.8886 4.55659 22.7906 5.1444C22.6155 6.17753 22.7906 7.64409 23.2033 8.73659C23.2686 8.90581 23.512 8.87909 23.5387 8.70097C23.895 6.35269 24.6847 4.58925 24.6847 4.58925V4.58925Z" fill="#E2A610"/>
<path d="M19.3944 12.3287C19.3944 12.3287 10.1348 13.3292 5.9578 21.3686C1.78077 29.408 5.3314 34.2826 9.08983 36.0579C12.8483 37.8333 22.3186 38.4597 28.4787 36.999C34.6389 35.5384 36.1797 32.5103 35.8917 29.5861C35.4731 25.317 31.5069 22.6926 31.5069 22.6926C31.5069 22.6926 31.6642 17.4201 27.5733 13.9972C23.9425 10.9572 19.3944 12.3287 19.3944 12.3287V12.3287Z" fill="#FFCA28"/>
<path d="M23.1944 25.8574C21.2083 23.3518 18.863 23.0163 18.1119 22.1168C17.7022 21.6269 17.4617 21.1311 17.5538 20.5166C17.6517 19.8635 18.4088 19.4122 18.9966 19.3024C19.6824 19.1718 21.3181 19.24 22.6927 20.5493C23.0192 20.858 22.9005 21.3389 22.8916 21.7694C22.8678 22.6927 24.1889 23.5893 25.2577 22.8174C26.3294 22.0425 25.507 20.3177 24.8153 19.4805C24.2928 18.8482 22.3988 17.4558 20.0445 17.2361C19.3825 17.1738 16.7195 16.7789 15.1817 19.7032C14.7394 20.5433 14.5761 22.5739 16.8917 24.2899C17.3756 24.6491 19.8872 25.9257 20.5849 26.7539C21.7931 28.1878 20.9649 29.4496 20.0208 29.6158C17.4469 30.0671 15.9892 28.6747 15.7191 27.9118C15.5261 27.3685 15.728 26.7807 15.4786 26.27C15.2233 25.7446 14.7008 25.5368 14.1486 25.7119C12.3377 26.2878 12.9136 28.268 13.7152 29.3575C14.5731 30.5243 15.627 31.2278 16.8116 31.6138C21.232 33.0536 23.3577 30.7796 23.7288 29.1141C24.0019 27.8939 23.9722 26.8371 23.1944 25.8574Z" fill="#6B4B46"/>
<path d="M22.1256 15.5439C18.3642 23.5774 17.717 33.7216 17.717 33.7216" stroke="#6B4B46" stroke-width="5" stroke-miterlimit="10"/>
<path d="M25.2458 10.4882C27.7514 11.3046 28.3066 13.5697 28.1255 14.1872C27.9087 14.9116 25.133 12.0913 21.0064 12.2605C19.5636 12.3199 19.9822 11.4352 20.6502 10.9246C21.5319 10.2507 23.0133 9.76379 25.2458 10.4882Z" fill="#6D4C41"/>
<path d="M25.2458 10.4882C27.7514 11.3046 28.3066 13.5697 28.1255 14.1872C27.9087 14.9116 25.133 12.0913 21.0064 12.2605C19.5636 12.3199 19.9822 11.4352 20.6502 10.9246C21.5319 10.2507 23.0133 9.76379 25.2458 10.4882Z" fill="#6B4B46"/>
<path d="M29.6455 18.4741C29.9602 18.2573 31.017 18.6314 31.3139 20.7006C31.4594 21.713 31.5039 22.6926 31.5039 22.6926C31.5039 22.6926 30.257 21.5734 29.8444 20.7867C29.3249 19.7922 29.123 18.8303 29.6455 18.4741V18.4741Z" fill="#E2A610"/>
</svg>
