<svg version="1.2" xmlns="http://www.w3.org/2000/svg" viewBox="0 0 1000 1000" width="1000" height="1000">
	<title>New Project</title>
	<style>
		.s0 { opacity: 1;fill: #000000 } 
	</style>
	<path id="Path 0" fill-rule="evenodd" class="s0" d="m268.9 343.1l461.9-0.3 13.8 7.4c7.6 4.1 19 12.7 25.2 19.2 6.3 6.5 14.2 18 17.6 25.6 3.4 7.6 7.2 15.9 8.3 18.6 1.2 2.6 4.9 11.8 8.4 20.4 3.4 8.6 7.6 18.8 9.4 22.8 1.7 3.9 5.6 13.6 8.7 21.6 3.1 7.9 6.7 15.8 8.1 17.5 2.1 2.6 5.3 2.5 18.1-0.8 8.6-2.3 20-4.9 25.2-6 5.3-1.1 12.9-1.3 16.8-0.6 4 0.8 10.4 3.7 14.3 6.4 3.8 2.8 8.4 8.6 10.2 12.9 1.8 4.4 3.1 16.9 3.1 28.8 0 15.7-1.2 23.4-4.6 30.6-2.6 5.2-8.8 12.5-13.8 16-5 3.6-12.4 7.2-16.4 8-3.9 0.9-8.5 2-10.2 2.6-2.3 0.7-2.2 3.2 0.7 11.2 1.9 5.6 4.6 12.3 5.8 15 1.3 2.6 4.4 13.9 7 25.2 2.6 11.2 5.9 27.4 7.3 36 1.6 9.6 2.6 61.1 2.6 134.9 0 113.2-0.2 120-4.6 129.6-2.6 5.6-8.3 13-12.6 16.4-4.4 3.4-11.7 7.5-16.4 9.1-4.7 1.6-21.6 2.8-38.4 2.8-21.9 0-33.2-1.1-42-4.1-6.6-2.3-15.1-7.4-19-11.4-3.8-4.1-8.4-10.9-10.2-15.2-2-5-3.2-18.4-3.2-67.8l-497.9 1.2-1.2 32.4c-1 27.9-1.9 33.6-6.5 40.8-2.9 4.6-7.2 10.1-9.6 12.1-2.4 2-8.9 5.6-14.5 7.8-7.8 3.1-17.5 4.1-40.8 4.2-22.5 0-33.8-1.1-42.6-4.1-7.1-2.4-15.2-7.5-19.9-12.6-4.4-4.7-9-12.3-10.2-17-1.3-4.7-2.3-57.1-2.2-118.8 0-60.7 1-120.1 2.3-131.9 1.3-11.9 4-29.2 6.2-38.4 2.1-9.3 5.2-20.6 6.9-25.2 1.6-4.7 4.1-11.7 5.5-15.6 1.3-4 3.1-9.1 3.9-11.4 0.9-2.5 0.2-4.6-1.5-5.2-1.7-0.5-7.3-2.2-12.6-3.8-5.3-1.5-12.6-5.4-16.2-8.6-3.6-3.2-8.8-10.2-11.4-15.4-3.7-7.5-4.8-14.3-4.7-30.6 0.1-15.1 1.3-23.2 4.2-28.6 2.3-4.2 7.3-10.1 11.3-13.1 5.6-4.3 10.2-5.5 20.4-5.4 7.3 0.1 20.8 2.5 30 5.4 9.2 2.8 17.9 5.2 19.2 5.2 1.3 0 5-6.3 8.1-13.9 3.2-7.6 7.6-18.1 9.8-23.4 2.2-5.3 6-14.5 8.3-20.4 2.3-6 5.7-14.1 7.5-18 1.8-4 5.6-13.2 8.6-20.4 2.9-7.3 7.5-16.5 10.2-20.4 2.7-4 8.5-11 13-15.6 4.5-4.6 14.3-11.9 21.7-16.1zm16.2 44.3c-4.2 3.2-10.2 9.9-13.2 14.8-3 5-8 15.5-11 23.4-3 7.9-7.5 18.7-9.9 24-2.4 5.3-7.2 17.2-10.8 26.4-3.6 9.3-9.7 24.4-13.6 33.6-3.9 9.2-8.1 19-9.2 21.6-1.1 2.6-5.4 13.4-9.5 24-4.1 10.6-7.4 21.9-7.4 25.2 0.1 3.3 2 8.3 4.3 11.1 2.3 2.8 6.6 6.3 9.6 7.8 3.8 1.9 84.4 2.7 286.7 2.8h281.4c15.4-10.1 16.9-12.7 17.5-20.6 0.4-5.9-1.6-14.9-5.3-23.9-3.2-7.9-9.2-22.5-13.4-32.4-4.1-9.9-8.4-20.1-9.6-22.8-1.2-2.6-7.7-18.3-14.5-34.8-6.8-16.5-13.1-32.7-14.1-36-1.1-3.3-5-12.5-8.8-20.4-3.8-7.9-9.6-16.9-13-20-3.3-3.1-11.4-8.2-18-11.4l-12-5.7c-356.3 0.1-382.7 0.6-390 3.8-4.6 2-11.9 6.3-16.2 9.5zm-96.1 349.8c-0.5 17.4-0.2 34.8 0.5 38.8 0.9 5.2 3.5 8.3 9.7 11.4 7.5 3.6 16.3 4.2 69.1 4.2 34.5 0 64-1 68.4-2.4 4.8-1.4 8.8-4.8 10.2-8.4 1.4-3.3 2.5-20.9 2.5-39 0.1-29.5-0.4-33.7-4.8-39.6l-4.9-6.6c-138.9 0-141 0.1-145.4 5-3.9 4.3-4.7 9.7-5.3 36.6zm462.8 5.8c-0.1 37.8 0.1 39.1 5.3 42.6 4.1 2.8 16 4 48.6 5.2 23.8 0.8 55.1 0.6 69.6-0.5 20.8-1.5 27.3-2.8 30.6-6.3 3.6-3.8 4.2-9.5 4.3-41 0-35-0.2-36.8-5.4-42-5.4-5.2-6.3-5.3-75.1-5.2-62 0.1-70 0.5-73.7 4.1-3.6 3.5-4.2 9.4-4.2 43.1zm-292.9-715.7c15.2 0.7 24.8 2.7 37.2 7.7 9.3 3.7 23.3 11.7 31.2 17.7 8 6.1 16.3 13.9 22.8 23.7l131.4 0.1c129.6 0.1 131.5 0.2 139.8 5.2 4.6 2.8 15.8 12.2 24.9 20.9 10.5 10.1 18.5 20.4 22.2 28.4 3.1 7 5.7 15.1 5.7 18 0 3-1.6 10.3-3.5 16.2-2.5 7.5-9.4 16.9-22.2 30.5-11.5 12-22.8 21.5-29.5 24.5-8.6 3.9-15.8 4.9-60 5l-12-12c-10.7-10.7-13.1-12-22.2-11.9-6.6 0.1-12.1 1.8-15.6 4.8-3 2.6-5.4 5.8-5.4 7.1 0 1.4-3.5 4.8-7.8 7.6-6.5 4.4-10.4 5-23.9 4.2-13.9-0.8-16.8-1.8-20.4-7-2.3-3.3-6.9-8.4-10.2-11.4-4.2-3.9-9-5.5-15.7-5.5-7 0.1-11.2 1.7-15.6 6.1-3.3 3.4-8.7 8.8-12 12.1-5.4 5.4-7.8 5.9-46.8 5.9l-10.2 10.8c-5.6 6-16.1 14.6-23.4 19.2-7.2 4.7-19.9 10.8-28.2 13.7-11.1 3.9-20.5 5.3-36.6 5.3-16.2 0-25.7-1.4-38.4-5.7-9.2-3-17.3-6.4-18-7.3-0.6-0.9-3.9-2.6-7.2-3.6-3.3-1.1-13.5-9.6-22.8-19-11.3-11.5-19.4-22.4-24.9-33.8-5.9-12-8.9-22.5-10.7-37.2-1.7-13.8-1.7-25.7-0.1-37.2 1.5-10.4 5.9-24 11.6-36 6.6-14 13.1-23 23.8-33.5 10.1-9.8 20.4-16.8 32.7-22.5 9.9-4.5 22.9-9.1 28.8-10.1 6-1.1 20-1.6 31.2-1zm-37.6 85.2c-4.2 3.3-7.8 6.8-7.8 7.7-0.1 1-1.8 3.5-3.8 5.4-1.9 2-4.2 8.2-5 13.8-0.8 5.7-0.8 15.4 0 21.6 1.2 9.5 3.4 13.5 12.8 23 8.6 8.7 14.4 12.3 23.4 14.5 6.6 1.6 15.3 2.3 19.2 1.4 4-0.9 11-3.6 15.6-5.9 4.7-2.4 10.8-6.8 13.6-9.9 2.8-3.1 6.9-10 9.1-15.3 2.1-5.2 3.9-13.3 3.9-18 0-4.6-1.8-12.7-3.9-18-2.2-5.2-5.7-11.6-7.9-14.1-2.2-2.4-8-7-13-10.2-4.9-3.1-14.1-6.2-20.4-6.9-6.5-0.7-15 0.1-19.8 1.8-4.6 1.7-11.8 5.8-16 9.1z"/>
</svg>