<svg width="40" height="40" viewBox="0 0 40 40" fill="none" xmlns="http://www.w3.org/2000/svg">
<path d="M35.8952 21.2538C35.5852 20.9071 35.4142 20.4615 35.4142 20C35.4142 19.5385 35.5852 19.0929 35.8952 18.7462L38.3707 16.0105C38.6435 15.7117 38.8128 15.3356 38.8545 14.9363C38.8962 14.5369 38.8081 14.1349 38.6027 13.7878L34.7348 7.21474C34.5316 6.86808 34.2221 6.59329 33.8505 6.42955C33.479 6.26581 33.0642 6.22147 32.6655 6.30286L29.0297 7.02476C28.567 7.11867 28.0854 7.04298 27.6757 6.81199C27.266 6.58101 26.9565 6.21069 26.8056 5.77094L25.6259 2.29441C25.4962 1.91708 25.249 1.58935 24.9193 1.35754C24.5896 1.12572 24.1941 1.00156 23.7887 1.00258H16.0528C15.6311 0.980961 15.2138 1.09553 14.8645 1.3288C14.5153 1.56206 14.2534 1.9012 14.1189 2.29441L13.0359 5.77094C12.885 6.21069 12.5755 6.58101 12.1658 6.81199C11.7561 7.04298 11.2745 7.11867 10.8118 7.02476L7.07929 6.30286C6.7013 6.25039 6.31596 6.30898 5.97181 6.47126C5.62765 6.63353 5.34009 6.89222 5.14534 7.21474L1.27743 13.7878C1.06694 14.131 0.972292 14.5308 1.00703 14.93C1.04176 15.3292 1.2041 15.7074 1.47082 16.0105L3.92694 18.7462C4.23699 19.0929 4.40799 19.5385 4.40799 20C4.40799 20.4615 4.23699 20.9071 3.92694 21.2538L1.47082 23.9895C1.2041 24.2926 1.04176 24.6708 1.00703 25.07C0.972292 25.4692 1.06694 25.869 1.27743 26.2122L5.14534 32.7853C5.34859 33.1319 5.65806 33.4067 6.02964 33.5705C6.40122 33.7342 6.81593 33.7785 7.21467 33.6971L10.8505 32.9752C11.3131 32.8813 11.7948 32.957 12.2045 33.188C12.6142 33.419 12.9237 33.7893 13.0745 34.2291L14.2543 37.7056C14.3888 38.0988 14.6507 38.4379 14.9999 38.6712C15.3491 38.9045 15.7665 39.019 16.1882 38.9974H23.924C24.3295 38.9984 24.725 38.8743 25.0547 38.6425C25.3844 38.4107 25.6315 38.0829 25.7613 37.7056L26.941 34.2291C27.0918 33.7893 27.4013 33.419 27.8111 33.188C28.2208 32.957 28.7024 32.8813 29.165 32.9752L32.8009 33.6971C33.1996 33.7785 33.6143 33.7342 33.9859 33.5705C34.3575 33.4067 34.667 33.1319 34.8702 32.7853L38.7381 26.2122C38.9435 25.8651 39.0316 25.4631 38.9899 25.0637C38.9482 24.6644 38.7788 24.2883 38.5061 23.9895L35.8952 21.2538ZM33.0136 23.7995L34.5608 25.5093L32.0853 29.7267L29.8033 29.2707C28.4104 28.9911 26.9614 29.2235 25.7315 29.9239C24.5015 30.6243 23.5762 31.7439 23.1311 33.0702L22.3962 35.1979H17.4453L16.7491 33.0322C16.304 31.7059 15.3786 30.5863 14.1487 29.8859C12.9187 29.1855 11.4698 28.9531 10.0769 29.2327L7.79485 29.6887L5.28071 25.4903L6.82788 23.7805C7.77929 22.7356 8.30529 21.3829 8.30529 19.981C8.30529 18.5791 7.77929 17.2264 6.82788 16.1815L5.28071 14.4718L7.75617 10.2923L10.0382 10.7483C11.4311 11.0279 12.88 10.7955 14.11 10.0951C15.3399 9.39472 16.2653 8.2751 16.7104 6.94878L17.4453 4.80207H22.3962L23.1311 6.96777C23.5762 8.29409 24.5015 9.41372 25.7315 10.1141C26.9614 10.8145 28.4104 11.0469 29.8033 10.7673L32.0853 10.3113L34.5608 14.5287L33.0136 16.2385C32.0729 17.281 31.5534 18.6259 31.5534 20.019C31.5534 21.4121 32.0729 22.757 33.0136 23.7995V23.7995ZM19.9207 12.401C18.3907 12.401 16.8951 12.8467 15.623 13.6817C14.3508 14.5167 13.3593 15.7035 12.7738 17.092C12.1883 18.4805 12.0351 20.0084 12.3336 21.4825C12.6321 22.9565 13.3688 24.3105 14.4507 25.3733C15.5326 26.436 16.911 27.1597 18.4116 27.453C19.9122 27.7462 21.4676 27.5957 22.8811 27.0205C24.2947 26.4454 25.5028 25.4714 26.3528 24.2218C27.2029 22.9721 27.6566 21.5029 27.6566 20C27.6566 17.9846 26.8415 16.0518 25.3908 14.6267C23.94 13.2016 21.9724 12.401 19.9207 12.401V12.401ZM19.9207 23.7995C19.1557 23.7995 18.4079 23.5766 17.7719 23.1592C17.1358 22.7417 16.64 22.1483 16.3473 21.454C16.0545 20.7597 15.9779 19.9958 16.1272 19.2588C16.2764 18.5217 16.6448 17.8447 17.1857 17.3134C17.7267 16.782 18.4159 16.4201 19.1662 16.2735C19.9165 16.1269 20.6942 16.2022 21.4009 16.4897C22.1077 16.7773 22.7118 17.2643 23.1368 17.8891C23.5618 18.5139 23.7887 19.2485 23.7887 20C23.7887 21.0077 23.3811 21.9741 22.6558 22.6866C21.9304 23.3992 20.9466 23.7995 19.9207 23.7995Z" fill="#FBAD18"/>
</svg>
