<svg width="20" height="20" viewBox="0 0 20 20" fill="none" xmlns="http://www.w3.org/2000/svg">
<path fill-rule="evenodd" clip-rule="evenodd" d="M17.7074 9.04021C17.7234 9.36077 17.6743 9.68125 17.563 9.98229C17.4517 10.2833 17.2805 10.5587 17.0599 10.7917L16.9443 10.9059L10.5035 16.8404C10.0603 17.2488 9.47827 17.4734 8.87554 17.4687C8.27281 17.4639 7.69443 17.2302 7.25764 16.8148L7.14809 16.7034L2.8561 12.0459C2.44768 11.6026 2.22309 11.0207 2.22784 10.4179C2.23259 9.81519 2.46634 9.23681 2.88169 8.80002L2.99313 8.69048L9.43392 2.75434C9.6698 2.53696 9.94728 2.36961 10.2496 2.26239C10.5519 2.15518 10.8729 2.11032 11.193 2.13052L11.3548 2.14584L15.4409 2.68669C15.9675 2.75621 16.4556 3.00025 16.8272 3.37982C17.1988 3.75939 17.4324 4.25256 17.4907 4.78053L17.5016 4.9228L17.7074 9.03942L17.7074 9.04021ZM16.1241 9.21959L16.1259 9.11903L15.92 5.00241C15.9117 4.83359 15.8496 4.67187 15.7427 4.5409C15.6359 4.40994 15.4899 4.31661 15.3262 4.27458L15.2334 4.25732L11.1473 3.71647C10.9487 3.69036 10.7476 3.74047 10.5845 3.85671L10.5067 3.9193L4.06594 9.85464C3.92418 9.98528 3.83497 10.1632 3.81503 10.3549C3.79509 10.5466 3.8458 10.7391 3.95765 10.8961L4.02026 10.9731L8.31225 15.6306C8.4429 15.7723 8.62078 15.8616 8.81252 15.8815C9.00426 15.9014 9.19669 15.8507 9.3537 15.7389L9.43074 15.6763L15.8715 9.74092C16.0186 9.60531 16.1088 9.41905 16.1241 9.21959V9.21959ZM13.7346 6.32668C13.9459 6.55605 14.1101 6.82481 14.2176 7.11762C14.3251 7.41042 14.3739 7.72153 14.3611 8.03319C14.3484 8.34484 14.2744 8.65094 14.1434 8.934C14.0124 9.21706 13.8269 9.47155 13.5975 9.68292C13.3681 9.8943 13.0994 10.0584 12.8066 10.1659C12.5138 10.2734 12.2027 10.3222 11.891 10.3095C11.5793 10.2968 11.2732 10.2228 10.9902 10.0918C10.7071 9.96073 10.4526 9.77523 10.2413 9.54586C9.81437 9.08262 9.58899 8.46877 9.61469 7.83935C9.6404 7.20993 9.91508 6.61651 10.3783 6.18962C10.8416 5.76273 11.4554 5.53734 12.0848 5.56305C12.7143 5.58875 13.3077 5.86344 13.7346 6.32668V6.32668ZM12.5247 8.51876C12.6012 8.44832 12.6631 8.36351 12.7068 8.26916C12.7505 8.17481 12.7752 8.07277 12.7795 7.96887C12.7837 7.86498 12.7675 7.76126 12.7317 7.66363C12.6959 7.56601 12.6412 7.47639 12.5708 7.3999C12.5003 7.3234 12.4155 7.26154 12.3212 7.21782C12.2268 7.17411 12.1248 7.14941 12.0209 7.14513C11.917 7.14085 11.8133 7.15708 11.7157 7.19288C11.618 7.22869 11.5284 7.28337 11.4519 7.35381C11.2974 7.49607 11.2058 7.69387 11.1972 7.9037C11.1885 8.11352 11.2636 8.31819 11.4058 8.47267C11.5481 8.62715 11.7459 8.7188 11.9557 8.72744C12.1656 8.73608 12.3702 8.66102 12.5247 8.51876V8.51876Z" fill="#FBAD18"/>
</svg>
