<svg version="1.2" xmlns="http://www.w3.org/2000/svg" viewBox="0 0 1000 1000" width="1000" height="1000">
	<title>New Project</title>
	<style>
		.s0 { fill: #000000 } 
	</style>
	<path id="Path 0" fill-rule="evenodd" class="s0" d="m499.5 81c113.5 0 171.8 0.5 171.8 1.6 0 0.8 1.7 1.5 3.9 1.5 2.1 0 3.9 0.7 3.9 1.6 0 0.8 0.9 1.6 2 1.6 1 0 3.2 1.6 4.8 3.5 1.5 1.9 3.8 5.6 5 8.2 1.8 3.6 2.3 15.8 3 109.3l24.2 1c19.1 0.8 26.2 1.7 33.6 4.4 5.2 1.8 11 3.7 12.9 4 1.9 0.4 3.5 1.4 3.5 2.3 0 0.9 1.4 1.6 3.1 1.6 1.8 0 3.2 0.7 3.2 1.5 0 0.9 1 1.6 2.3 1.6 1.3 0 2.3 0.7 2.3 1.5 0 0.9 1.1 1.6 2.4 1.6 1.3 0 4.8 2.3 7.8 5.1 3 2.8 8.5 8 12.1 11.6 3.7 3.6 7.5 7.6 8.6 9 1.1 1.3 2.8 4.2 3.9 6.4 1.1 2.1 2.5 3.9 3.1 3.9 0.7-0.1 1.2 1.3 1.2 3 0 1.8 0.7 3.2 1.6 3.2 0.8 0 1.5 1.4 1.5 3.1 0 1.7 0.7 3.1 1.6 3.1 0.8 0 1.5 1.8 1.5 3.9 0 2.2 0.7 3.9 1.6 3.9 0.9 0 1.6 1.8 1.6 3.9 0 2.2 0.7 3.9 1.5 3.9 0.9 0 1.6 1.8 1.6 3.9 0 2.2 0.7 3.9 1.5 3.9 0.9 0 1.6 1.8 1.6 3.9 0 2.2 0.7 4 1.6 4 0.8 0 1.5 1.7 1.5 3.9 0 2.1 0.7 3.9 1.6 3.9 0.9 0 1.6 1 1.6 2.3 0 1.3 0.6 3.6 1.3 5.1 0.8 1.5 3 6.6 4.9 11.3 1.9 4.7 5.1 12.1 7.1 16.4 2 4.3 4.5 10.8 5.7 14.4 1.1 3.7 2.6 6.7 3.2 6.7 0.7 0 1.2 1.4 1.2 3.1 0 1.7 0.7 3.1 1.5 3.1 0.9 0 1.6 1.8 1.6 3.9 0 2.2 1.1 5.2 2.4 6.7 2 2.1 2.9 2.3 4.3 0.8 0.9-1.1 3.7-2 6.1-2 2.4 0 4.7-0.7 5.2-1.6 0.4-0.8 3.2-1.5 6.2-1.5 3 0 5.5-0.7 5.5-1.6 0-0.8 2.1-1.5 4.7-1.5 2.5 0 4.7-0.7 4.7-1.6 0-0.9 3.8-1.6 8.5-1.6 4.8 0 8.6-0.7 8.6-1.5 0-0.9 2.5-1.6 5.5-1.6 3 0 5.5 0.7 5.5 1.6 0 0.8 2.4 1.5 5.4 1.5 3 0 5.5 0.7 5.5 1.6 0 0.9 1 1.6 2.3 1.6 1.3 0 4.6 2.2 7.3 5 2.7 2.8 6 6.8 7.4 8.9 1.4 2.2 3.4 6.4 4.4 9.4 1.2 3.3 2 13.8 2 25.8 0 15.7-0.6 22.1-2.8 28.2-1.5 4.3-4.9 10.6-7.4 14-2.5 3.4-6.2 7.8-8.1 9.8-1.9 1.9-4.5 3.5-5.8 3.5-1.3 0-2.4 0.7-2.4 1.6 0 0.8-1.4 1.5-3.2 1.5-1.7 0-3.1 0.7-3.1 1.6 0 0.8-2.6 1.9-5.8 2.3-3.3 0.4-8.5 1.1-11.7 1.5-3.3 0.5-5.9 1.6-5.9 2.4 0 0.9 0.7 1.6 1.6 1.6 0.8 0 1.5 1.2 1.5 2.7 0 1.5 0.5 3.4 1.1 4.1 0.7 0.7 3.6 8.1 6.4 16.4 2.9 8.3 5.6 16.8 6 19 0.5 2.1 1.4 5.3 2.2 7 0.7 1.7 1.7 5.9 2.2 9.3 0.6 3.5 1.3 8.9 1.7 12.2 0.4 3.2 1.4 6.2 2.3 6.6 0.8 0.4 1.5 4.6 1.5 9.4 0 4.7 0.7 8.5 1.6 8.5 1 0 1.6 7.6 1.6 19.6 0 11.9 0.6 19.5 1.5 19.5 1.1 0 1.6 40.6 1.6 118.7 0 78.1-0.5 118.7-1.6 118.7-0.8 0-1.5 3.5-1.5 7.8 0 4.3-0.7 7.8-1.6 7.8-0.9 0-1.6 1.4-1.6 3.1 0 1.7-1.5 4.8-3.5 6.9-1.9 2-5.6 6-8.2 8.8-2.5 2.8-7.8 6.6-11.7 8.6-3.8 1.9-11.2 4.3-16.4 5.3-6.1 1.2-21.4 1.7-43.7 1.3-30.8-0.5-35.3-0.9-43-3.9-5.4-2.1-11.8-6.6-17.5-12.1-5-4.7-9-9.7-9-11 0-1.3-0.5-2.3-1.2-2.3-0.6 0-2-2.8-3.1-6.3-1.3-4.1-2-17-2-38.2 0-17.6-0.3-33.1-0.7-34.4-0.7-2.1-33.1-2.3-278.8-2.3-245.7 0-278.1 0.2-278.8 2.3-0.4 1.3-0.8 16.2-0.8 33.2 0 24-0.5 32.4-2.5 37.9-1.3 3.8-3.4 8.9-4.6 11.3-1.2 2.4-4.7 6.7-7.7 9.8-3 3-8.8 7.1-12.9 9.1-4.1 2.1-11.1 4.5-15.6 5.5-4.6 1-22.2 1.7-39.8 1.7-21.4 0-34.2-0.7-39.4-2.1-4.3-1.1-11-3.7-14.9-5.7-3.8-2-9.5-6.3-12.5-9.5-3-3.3-6.3-7.1-7.4-8.4-1.1-1.3-1.9-3.4-1.9-4.7 0-1.3-0.8-2.3-1.6-2.3-0.9 0-1.6-2.5-1.6-5.5 0-3-0.7-5.5-1.5-5.5-1.1 0-1.6-43.2-1.6-126.5 0-83.3 0.5-126.5 1.6-126.5 0.9 0 1.8-6.5 2.2-15.2 0.3-8.4 1.3-19.8 2.3-25.4 0.9-5.6 2.3-12.9 3.1-16.4 0.9-3.4 2.2-9 3-12.5 0.8-3.4 2.3-9.4 3.3-13.2 1-3.9 3.3-11.3 5-16.4 1.7-5.2 3.7-10.6 4.6-12.2 0.8-1.5 1.5-3.7 1.5-5 0-1.3 0.6-2.5 1.4-2.8 0.7-0.2 1.6-2 1.9-4 0.5-3-0.5-4-5.7-5.8-3.4-1.2-8.2-2.2-10.5-2.2-2.4-0.1-4.3-0.8-4.3-1.6 0-0.9-1.4-1.6-3.1-1.6-1.8 0-3.2-0.7-3.2-1.5 0-0.9-1-1.6-2.3-1.6-1.3 0-4-1.6-5.9-3.5-2-2-5.8-6.7-8.5-10.6-2.6-3.8-5.9-10.2-7.3-14-1.8-5.1-2.5-12.9-2.5-27.7 0-18.8 0.3-21.5 3.8-28.9 2.1-4.5 6.2-10.8 9-14 2.8-3.2 6.4-5.8 7.9-5.9 1.5 0 2.7-0.7 2.7-1.6 0-0.9 2.5-1.6 5.5-1.6 3 0 5.4-0.7 5.4-1.5 0-0.9 2.5-1.6 5.5-1.6 3 0 5.5 0.7 5.5 1.6 0 0.8 3.8 1.5 8.6 1.5 4.7 0 8.5 0.7 8.5 1.6 0 0.9 2.2 1.6 4.7 1.6 2.6 0 4.7 0.7 4.7 1.5 0 0.9 2.5 1.6 5.5 1.6 3 0 5.8 0.7 6.2 1.5 0.5 0.9 2.9 1.6 5.5 1.6 2.6 0 5 0.7 5.5 1.6 0.4 0.8 1.4 1.5 2.3 1.5 0.9 0 1.6-1 1.6-2.3 0-1.3 0.7-2.4 1.5-2.4 0.9 0 1.6-1.7 1.6-3.9 0-2.1 0.7-3.9 1.6-3.9 0.8 0 1.5-1 1.5-2.3 0-1.3 1.5-5.7 3.3-9.8 1.8-4.1 3.9-8.8 4.6-10.5 0.7-1.7 3.1-7.2 5.3-12.1 2.2-5 4-10.1 4-11.3 0-1.3 0.7-2.4 1.6-2.4 0.8 0 1.5-1.7 1.5-3.9 0-2.1 0.7-3.9 1.6-3.9 0.8 0 1.5-1.7 1.5-3.9 0-2.1 0.7-3.9 1.6-3.9 0.9 0 1.6-1.8 1.6-3.9 0-2.2 0.7-3.9 1.5-3.9 0.9 0 1.6-1.8 1.6-3.9 0-2.2 0.7-3.9 1.5-3.9 0.9 0 1.6-1.8 1.6-3.9 0-2.2 0.7-3.9 1.6-3.9 0.8 0 1.5-1.1 1.5-2.4 0-1.3 0.7-3.5 1.4-5 0.8-1.5 3.4-7.3 5.9-12.8 2.4-5.4 5.5-11.2 6.8-12.7 1.3-1.5 3.7-4.7 5.5-7 1.7-2.4 4.1-5.6 5.4-7.2 1.3-1.6 2.9-2.3 3.6-1.7 0.6 0.6 1.2 0.1 1.1-1.2 0-1.3 1.9-3.4 4.3-4.7 2.3-1.3 5.4-3.5 6.6-5 1.3-1.5 3.3-2.7 4.3-2.7 1.1-0.1 2-0.8 2-1.7 0-0.8 1.4-1.5 3.1-1.5 1.7 0 3.1-0.5 3.1-1.2 0.1-0.6 2-2 4.3-3.1 2.4-1.1 5.2-2 6.3-2 1 0 1.9-0.5 1.9-1.1 0-0.7 5.1-2.6 11.3-4.2 7.5-2 19.1-3.4 56.7-4.8l0.4-53.5c0.2-34.4 0.9-53.5 1.9-53.5 0.9 0 1.6-1.4 1.6-3.1 0-1.7 0.7-3.1 1.5-3.1 0.9 0 1.6-0.7 1.6-1.6 0-0.9 1-2.6 2.2-3.9 1.2-1.3 3-2.4 3.9-2.4 0.9 0 1.7-0.7 1.7-1.5 0-0.9 1.8-1.6 3.9-1.6 2.2 0 3.9-0.7 3.9-1.5 0-1.1 58.3-1.6 171.8-1.6zm-161.1 49.5l0.2 8.3c21.6 0.6 28.5 1.3 29.2 2.1 0.7 0.7 1.3 15.8 1.3 33.5 0 19.8 0.6 32.8 1.6 33.5 0.8 0.6 5.9 1.1 11.3 1.1 5.3 0.1 10.8-0.3 12.1-0.7 2-0.7 2.3-5.9 2.3-34.4v-33.6c15.2 0.1 21.8-0.5 24.7-1.1 5-1.2 5.1-1.3 5-10.2v-9c-66.2 0-86 0.5-86.7 1.1-0.7 0.6-1.2 4.8-1 9.4zm109.7-0.3c-1.2 3.4-3.7 9.4-5.5 13.3-1.9 3.8-4.4 10.3-5.7 14.4-1.2 4.1-2.7 7.5-3.4 7.4-0.6 0-1.2 1.8-1.2 3.9 0 2.2-0.7 3.9-1.5 3.9-0.9 0-1.6 1.8-1.6 3.9 0 2.2-0.7 4-1.5 4-0.9 0-1.6 1.7-1.6 3.9 0 2.1-0.7 3.9-1.6 3.9-0.8 0-1.5 2.1-1.5 4.6 0 2.6-0.7 4.7-1.6 4.7-0.8 0-1.5 1.4-1.5 3.2 0 1.7-0.8 3.1-1.6 3.1-0.9 0-1.6 1-1.6 2.3 0 1.9 2.5 2.4 12.5 2.4h12.5c3.4-7.9 5.4-12.5 6.5-15.3l2.1-5.2 32.8 0.1c4.5 10.3 6.6 14.9 7.6 16.9 1.7 3.5 2.2 3.5 28.7 3.5 22.9 0 27-0.4 27-2.4 0-1.3 0.5-2.3 1.1-2.3 0.7-0.1 2.6-2.9 4.3-6.3 1.7-3.5 3.5-6.3 3.9-6.2 0.5 0.1 1.9-2.1 3.1-4.7 1.4-2.7 3.6-4.8 5.1-4.7 1.5 0 3.6 2.1 4.7 4.7 1.1 2.6 2.5 4.7 3.1 4.7 0.7 0 1.2 1.2 1.2 2.7 0 1.5 1.4 3.8 3.1 5.1 1.8 1.3 3.2 3.6 3.2 5.1 0 1.5 1 3.1 2.3 3.5 1.3 0.4 8 0.8 14.8 0.8 7.3 0 12.5-0.7 12.5-1.6 0-0.9-2.1-3.8-4.7-6.6-2.6-2.8-4.7-5.6-4.7-6.3 0-0.6-2.2-3.6-5-6.6-2.8-3-6.7-7.2-8.6-9.4-1.9-2.1-3.5-4.6-3.5-5.5 0-0.8-0.7-1.5-1.6-1.5-0.8 0-1.6-1.1-1.6-2.4 0-1.3 0.9-3.9 2-5.7 1.1-1.9 2.5-4.2 3.2-5.1 0.6-0.9 2.6-3.4 4.3-5.6 1.7-2.1 3.1-4.2 3-4.6 0-0.5 1.7-2.9 3.9-5.5 2.2-2.6 3.9-5.4 3.9-6.3 0-0.8 2.1-3.8 4.7-6.6 2.6-2.8 4.7-5.8 4.7-6.6 0-0.9-1-1.9-2.3-2.4-1.3-0.4-7.1-0.8-12.9-0.8-9.3 0-11 0.4-14.1 3.9-1.9 2.2-3.5 4.7-3.5 5.5 0 0.9-0.7 1.6-1.5 1.6-0.9 0-1.6 1-1.6 2.3 0 1.3-0.7 2.4-1.6 2.4-0.8 0-1.5 1-1.5 2.3 0 1.3-0.7 2.3-1.6 2.3-0.8 0-1.5 1.5-1.5 3.2q0 3.1-3.2 3.1-3.1 0-3.1-3.1c0-1.7-0.7-3.2-1.6-3.2-0.8 0-1.5-0.7-1.5-1.5 0-0.9-1.8-4.2-4-7.4-2.1-3.3-4.7-7.1-5.8-8.6-1.6-2.3-4.2-2.8-14-2.8-9.4 0-12.3 0.6-12.9 2.4-0.4 1.3 1.6 5.7 4.6 9.7 3 4.1 5.4 8.2 5.5 9 0 0.9 1.4 2.6 3.2 3.9 1.7 1.3 3.1 3.4 3.1 4.7 0 1.3 1.4 3.4 3.1 4.7 1.7 1.3 3.2 3.2 3.1 4.3 0 1.1 1.1 3 2.4 4.3 1.3 1.3 2.3 3.6 2.3 5.1 0 1.5-1.7 4.6-3.9 7-2.1 2.4-3.9 4.6-3.9 5.1 0 0.4-2.8 3.6-6.2 7-3.5 3.4-6.3 6.8-6.3 7.4 0 0.7-1.9 3.4-4.3 6.2-3.3 3.9-4.9 4.6-7 3.5-1.5-0.8-2.7-3.2-2.7-5.4 0-2.1-0.6-3.9-1.2-3.9-0.7 0-2.2-3.5-3.5-7.8-1.3-4.3-2.9-7.9-3.5-7.8-0.7 0-1.2-1.8-1.2-3.9 0-2.2-0.7-3.9-1.6-3.9-0.8 0-1.5-1.8-1.5-3.9 0-2.2-0.7-3.9-1.6-3.9-0.9 0-1.6-1.8-1.6-3.9 0-2.2-0.7-3.9-1.5-3.9-0.9 0-1.6-1.4-1.6-3.2 0-1.7-0.6-4.3-1.4-5.8-0.7-1.5-2.2-4.9-3.3-7.4-1-2.6-2.5-5.9-3.3-7.5-0.7-1.5-1.4-4.1-1.4-5.8 0-1.7-1-3.1-2.3-3.1-1.3 0-2.3-0.7-2.3-1.6 0-0.9-5.6-1.5-13.7-1.5-8.7 0-14.2 0.7-15.2 2-0.9 1-2.6 4.7-3.8 8.1zm176.3 36.7v42.2c17 0 23-0.4 24.2-0.8 2-0.7 2.4-6.8 2.4-42.2 0-34.7-0.4-41.7-2.4-43.7-1.6-1.6-5.5-2.4-12.3-2.4-7.5 0-10.3 0.6-10.9 2.4-0.6 1.3-1 21.3-1 44.5zm-349.4 86.8c-2.8 0.8-5.1 2-5.1 2.6 0 0.6-0.9 1.2-2 1.2-1.1 0-3.4 1.4-5.1 3.1-1.7 1.7-3.6 3.1-4.3 3.1-0.6 0-4.3 3.2-8.1 7.1-3.9 3.8-7 7.7-7 8.5 0 0.9-0.7 1.6-1.6 1.6-0.8 0-1.5 1.4-1.5 3.1 0 1.7-0.8 3.1-1.6 3.1-0.9 0-1.6 2.2-1.6 4.7 0 2.6-0.7 4.7-1.5 4.7-0.9 0-1.6 1.4-1.6 3.1 0 1.8-0.5 3.2-1.2 3.2-0.6-0.1-2.1 3.3-3.3 7.4-1.2 4.1-2.7 8.1-3.2 9-0.6 0.8-3.7 7.9-7 15.6-3.2 7.7-6.5 15.3-7.3 16.8-0.8 1.5-1.4 3.8-1.4 5 0 1.3-0.7 2.4-1.6 2.4-0.8 0-1.5 1.7-1.5 3.9 0 2.1-0.7 4.2-1.6 4.7-0.9 0.4-1.6 2.2-1.6 3.9 0 1.7-0.7 3.1-1.5 3.1-0.9 0-1.6 2.1-1.6 4.7 0 2.6-0.7 4.7-1.6 4.7-0.8 0-1.5 1.4-1.5 3.1 0 1.7-0.7 3.1-1.6 3.1-0.8 0-1.5 1.8-1.5 3.9 0 2.2-0.7 3.9-1.6 3.9-0.9 0-1.6 1.8-1.6 3.9 0 2.2-0.7 4.3-1.5 4.7-0.9 0.5-3 4.8-4.8 9.8-1.8 4.9-4.3 11.4-5.6 14.4-1.3 3-3 6.7-3.8 8.2-0.8 1.5-1.4 3.8-1.4 5.1 0 1.3-0.6 2.3-1.2 2.3-0.7 0-2.2 3.5-3.5 7.9-1.3 4.3-2.9 7.8-3.5 7.8-0.7 0-1.2 2.1-1.2 4.6 0 2.6-0.7 4.7-1.6 4.7-0.8 0-1.5 3.2-1.5 7.1 0 3.8 0.7 7 1.5 7 0.9 0 1.6 1 1.6 2.3 0 1.3 2.3 4.7 5.1 7.6 3.2 3.3 7.7 5.8 12.5 7 5.5 1.4 85.6 1.8 316.2 1.8 264 0.1 310-0.3 316.7-2.2 4.2-1.2 10-4.4 12.8-7 3.6-3.4 5.1-6.2 5.1-9.5 0-2.6 0.9-5 2-5.5 1.5-0.6 1.5-0.9 0-1.5-1.1-0.5-2-3.5-2-7.1 0-3.4-0.7-6.2-1.6-6.2-0.8 0-1.5-2.1-1.5-4.7 0-2.6-0.7-4.7-1.6-4.7-0.8 0-1.5-1.4-1.5-3.1 0-1.7-0.7-3.1-1.6-3.1-0.9 0-1.6-1.4-1.6-3.2 0-1.7-0.6-4.3-1.3-5.8-0.8-1.5-2.1-4.5-3-6.6-0.8-2.2-3-7.5-4.7-11.8-1.8-4.3-3.7-9.4-4.2-11.3-0.4-1.9-1.5-3.5-2.4-3.5-0.8 0-1.5-1.1-1.5-2.3 0-1.3-0.6-3.6-1.4-5.1-0.7-1.5-2.1-4.3-3.1-6.3-1-1.9-1.8-4.9-1.8-6.6 0-1.7-0.7-3.1-1.5-3.1-0.9 0-1.6-1.4-1.6-3.1 0-1.8-0.7-3.2-1.6-3.2-0.8 0-1.5-2.1-1.5-4.7 0-2.5-0.7-4.6-1.6-4.6-0.9 0-1.6-1.4-1.6-3.2 0-1.7-0.7-3.4-1.5-3.9-0.9-0.4-1.6-2.5-1.6-4.7 0-2.1-0.7-3.9-1.5-3.9-0.9 0-1.6-1.7-1.6-3.9 0-2.1-0.7-3.9-1.6-3.9-0.8 0-1.5-0.8-1.5-1.9 0-1.1-2.4-7.4-5.5-14.1-3-6.6-5.5-13.1-5.5-14.4 0-1.3-0.5-2.4-1.1-2.3-0.7 0-2.3-3.5-3.5-7.9-1.3-4.3-2.9-7.8-3.6-7.8-0.6 0-1.1-1.7-1.1-3.9 0-2.1-0.7-3.9-1.6-3.9-0.9 0-1.6-1.4-1.6-3.1 0-1.7-0.7-3.1-1.5-3.1-0.9 0-1.6-1.1-1.6-2.4 0-1.3-3.1-5.5-7-9.3-3.9-3.9-7.7-7.1-8.6-7.1-0.9 0-1.6-0.7-1.6-1.5 0-0.9-1-1.6-2.3-1.6-1.3 0-2.3-0.5-2.4-1.2 0-0.6-1.9-2-4.2-3.1-2.4-1.1-5.6-2-7.1-2-1.5 0-2.9-0.8-3.2-1.9-0.4-1.5-45.1-2-215.9-2.2-118.5-0.1-217.2 0.3-219.3 0.9-2.2 0.6-6.2 1.8-9 2.6zm-117.3 359.5c-2.4 2.3-5.2 6.7-6.2 9.7-1.2 3.6-1.9 17.5-1.9 39.5 0.1 30.5 0.4 34.6 3.2 41 2.2 4.9 4 7 6.2 7 1.8 0 3.2 0.7 3.2 1.5 0 1.1 27 1.6 78.1 1.6 51 0 78-0.5 78-1.6 0-0.8 1.4-1.5 3.2-1.5 2.2 0 4-2.1 6.2-7 2.8-6.4 3.1-10.4 3.1-41 0-18.7-0.7-36.6-1.5-39.9-0.9-3.2-3.7-7.6-6.3-9.7l-4.7-3.9h-156.2zm509.7 6.6c0 78.2 0.3 82.5 2.7 84.8 1.5 1.5 2.8 3.4 2.8 4.2 0 0.9 1 1.6 2.3 1.6 1.3 0 2.4 0.7 2.4 1.5 0 1.1 27.3 1.6 78.9 1.6h78.9c5.5-5.4 8-8.6 9-10.5 1.3-2.5 1.8-15.7 1.9-43v-39.4l-10.2-11.6h-157.8zm-199.5-469.9c1.1-0.1 2.5 2 3.2 4.6 0.6 2.6 1.6 4.7 2.3 4.7 0.6 0 1.2 1.4 1.2 3.1 0 1.7 0.7 3.5 1.5 3.9 0.9 0.4 1.6 1.8 1.6 3.1 0 1.9-2.3 2.4-10.9 2.4-6.3 0-11-0.7-11-1.6 0-0.9 0.7-1.6 1.6-1.6 0.8 0 1.5-1.4 1.5-3.1 0-1.7 0.7-3.1 1.6-3.1 0.9 0 1.6-1.8 1.6-3.9 0-2.2 0.8-4.9 1.9-6.2 1.1-1.3 2.9-2.3 3.9-2.3z"/>
</svg>