<svg width="40" height="40" viewBox="0 0 40 40" fill="none" xmlns="http://www.w3.org/2000/svg">
<path d="M31 26.6289C32.5913 26.6289 34.1174 27.2805 35.2426 28.4406C36.3679 29.6006 37 31.1739 37 32.8144C37 34.4549 36.3679 36.0282 35.2426 37.1883C34.1174 38.3483 32.5913 39 31 39C29.758 39.0037 28.5457 38.6086 27.5314 37.8696C26.5172 37.1307 25.7512 36.0845 25.34 34.8763H23V30.7526H25.34C26.16 28.3402 28.38 26.6289 31 26.6289ZM31 30.7526C30.4696 30.7526 29.9609 30.9698 29.5858 31.3565C29.2107 31.7431 29 32.2676 29 32.8144C29 33.3613 29.2107 33.8857 29.5858 34.2724C29.9609 34.659 30.4696 34.8763 31 34.8763C31.5304 34.8763 32.0391 34.659 32.4142 34.2724C32.7893 33.8857 33 33.3613 33 32.8144C33 32.2676 32.7893 31.7431 32.4142 31.3565C32.0391 30.9698 31.5304 30.7526 31 30.7526ZM31 12.1959C31.7585 12.1959 32.486 11.8852 33.0223 11.3323C33.5587 10.7793 33.86 10.0294 33.86 9.24742C33.86 8.46544 33.5587 7.71549 33.0223 7.16255C32.486 6.60961 31.7585 6.29897 31 6.29897C30.2415 6.29897 29.514 6.60961 28.9777 7.16255C28.4413 7.71549 28.14 8.46544 28.14 9.24742C28.14 10.0294 28.4413 10.7793 28.9777 11.3323C29.514 11.8852 30.2415 12.1959 31 12.1959ZM31 1C33.1217 1 35.1566 1.86892 36.6569 3.41561C38.1571 4.9623 39 7.06007 39 9.24742C39 15.4124 31 24.567 31 24.567C31 24.567 23 15.4124 23 9.24742C23 7.06007 23.8429 4.9623 25.3432 3.41561C26.8434 1.86892 28.8783 1 31 1ZM12.66 30.7526H15V34.8763H12.66C12.2488 36.0845 11.4829 37.1307 10.4686 37.8696C9.45431 38.6086 8.24202 39.0037 7.00002 39C5.40872 39 3.8826 38.3483 2.75738 37.1883C1.63217 36.0282 1.00003 34.4549 1.00003 32.8144C1.00003 30.1134 2.66002 27.8247 5.00002 26.9794V24.567H9.00002V26.9794C10.7 27.5979 12.06 29 12.66 30.7526ZM7.00002 30.7526C6.46959 30.7526 5.96088 30.9698 5.58581 31.3565C5.21074 31.7431 5.00002 32.2676 5.00002 32.8144C5.00002 33.3613 5.21074 33.8857 5.58581 34.2724C5.96088 34.659 6.46959 34.8763 7.00002 34.8763C7.53045 34.8763 8.03916 34.659 8.41423 34.2724C8.78931 33.8857 9.00002 33.3613 9.00002 32.8144C9.00002 32.2676 8.78931 31.7431 8.41423 31.3565C8.03916 30.9698 7.53045 30.7526 7.00002 30.7526ZM7.00002 1.8866C8.59132 1.8866 10.1174 2.53829 11.2427 3.69831C12.3679 4.85833 13 6.43165 13 8.07216C13 10.7732 11.34 13.0618 9.00002 13.9072V16.3196H5.00002V13.9072C3.82808 13.4833 2.81325 12.6937 2.09645 11.648C1.37964 10.6024 0.996433 9.35257 1.00003 8.07216C1.00003 6.43165 1.63217 4.85833 2.75738 3.69831C3.8826 2.53829 5.40872 1.8866 7.00002 1.8866M7.00002 6.01031C6.46959 6.01031 5.96088 6.22754 5.58581 6.61421C5.21074 7.00088 5.00002 7.52532 5.00002 8.07216C5.00002 8.619 5.21074 9.14344 5.58581 9.53011C5.96088 9.91678 6.46959 10.134 7.00002 10.134C7.53045 10.134 8.03916 9.91678 8.41423 9.53011C8.78931 9.14344 9.00002 8.619 9.00002 8.07216C9.00002 7.52532 8.78931 7.00088 8.41423 6.61421C8.03916 6.22754 7.53045 6.01031 7.00002 6.01031ZM17 34.8763V30.7526H21V34.8763H17ZM9.00002 22.5051H5.00002V18.3814H9.00002V22.5051Z" fill="#FBAD18"/>
</svg>
