<svg width="40" height="40" viewBox="0 0 40 40" fill="none" xmlns="http://www.w3.org/2000/svg">
<path d="M23.4545 22.4375C24.8939 22.4375 26.1174 21.8724 27.125 20.7422C28.1326 19.612 28.6364 18.2396 28.6364 16.625C28.6364 15.0104 28.1326 13.638 27.125 12.5078C26.1174 11.3776 24.8939 10.8125 23.4545 10.8125C22.0152 10.8125 20.7917 11.3776 19.7841 12.5078C18.7765 13.638 18.2727 15.0104 18.2727 16.625C18.2727 18.2396 18.7765 19.612 19.7841 20.7422C20.7917 21.8724 22.0152 22.4375 23.4545 22.4375ZM11.3636 28.25C10.4136 28.25 9.60067 27.8702 8.92473 27.1107C8.24764 26.3525 7.90909 25.4406 7.90909 24.375V8.875C7.90909 7.80937 8.24764 6.89746 8.92473 6.13925C9.60067 5.37975 10.4136 5 11.3636 5H35.5455C36.4955 5 37.309 5.37975 37.9861 6.13925C38.662 6.89746 39 7.80937 39 8.875V24.375C39 25.4406 38.662 26.3525 37.9861 27.1107C37.309 27.8702 36.4955 28.25 35.5455 28.25H11.3636ZM4.45455 36C3.50455 36 2.69158 35.6209 2.01564 34.8627C1.33855 34.1032 1 33.1906 1 32.125V12.75C1 12.201 1.16582 11.7406 1.49745 11.3686C1.82794 10.9979 2.23788 10.8125 2.72727 10.8125C3.21667 10.8125 3.62718 10.9979 3.95882 11.3686C4.2893 11.7406 4.45455 12.201 4.45455 12.75V32.125H32.0909C32.5803 32.125 32.9902 32.311 33.3207 32.683C33.6524 33.0537 33.8182 33.5135 33.8182 34.0625C33.8182 34.6115 33.6524 35.0713 33.3207 35.442C32.9902 35.814 32.5803 36 32.0909 36H4.45455ZM11.3636 12.75C12.3136 12.75 13.1266 12.3703 13.8025 11.6108C14.4796 10.8525 14.8182 9.94063 14.8182 8.875H11.3636V12.75ZM35.5455 12.75V8.875H32.0909C32.0909 9.94063 32.4289 10.8525 33.1048 11.6108C33.7819 12.3703 34.5955 12.75 35.5455 12.75ZM11.3636 24.375H14.8182C14.8182 23.3094 14.4796 22.3968 13.8025 21.6373C13.1266 20.8791 12.3136 20.5 11.3636 20.5V24.375ZM32.0909 24.375H35.5455V20.5C34.5955 20.5 33.7819 20.8791 33.1048 21.6373C32.4289 22.3968 32.0909 23.3094 32.0909 24.375Z" fill="#FBAD18"/>
</svg>
