<svg version="1.2" xmlns="http://www.w3.org/2000/svg" viewBox="0 0 1000 1000" width="1000" height="1000">
	<title>New Project</title>
	<style>
		.s0 { opacity: 1;fill: #000000 } 
	</style>
	<path id="Path 0" fill-rule="evenodd" class="s0" d="m451.6 65c6 0 11.3 0.9 11.8 2 0.6 1.1 3.2 2 6 2 3.2 0 8.3 3.2 14.6 9.4 5.8 5.7 10.7 12.7 12.4 17.9 1.5 4.6 3.2 8.5 3.7 8.5 0.6 0 2.1-3.6 3.5-8 1.4-4.5 6.6-12.4 11.9-17.9 6.9-7.2 11-9.9 14.9-9.9 3 0 5.9-0.9 6.4-2 0.5-1.1 5.4-2 10.9-2 6.2 0 13.9 1.8 20.3 4.7 6.4 2.9 14.4 9 20.8 15.9 5.8 6.1 11.4 11.1 12.4 11.1 1.1 0 5.8-1.8 10.5-4 5.8-2.8 12.4-3.9 21.8-3.9 10.6 0 15.3 1.1 22.8 5.1 5.1 2.8 11.4 7.3 13.8 9.9 2.5 2.7 6.3 8.8 8.5 13.7 2.2 5.1 3.9 13.3 3.9 18.9 0 6.4-1.7 13.6-4.9 20.3-2.6 5.7-6.9 12.7-9.4 15.4-2.5 2.7-9 8.1-14.5 11.9-5.4 3.8-13.4 8.9-17.8 11.3-4.3 2.5-11.9 6.5-16.8 9-4.9 2.4-9.2 5.1-9.4 6-0.3 0.8-1.6 1.4-3 1.4-1.4 0-7.2 2.2-12.9 5-5.7 2.7-11.7 5-13.4 5-1.6 0-3.4 0.8-3.9 1.9-0.6 1.1-4.4 2-8.5 2-5.3 0.1-8.3-1.1-10.4-4.1-1.6-2.3-4.6-6.1-6.5-8.5-2-2.3-5.2-6-7.1-8.2-1.9-2.2-3.9-4.9-4.4-6-0.4-1-4.4-7.3-8.7-13.8-4.4-6.6-8.4-12.4-9-12.9-0.5-0.6-4.7-8.6-9.2-17.9-4.6-9.2-8.8-18.8-9.4-21.3-0.7-2.4-2.1-4.4-3.2-4.4-1.1 0-2.5 2-3.1 4.4-0.7 2.5-4.9 12-9.5 21.3-4.5 9.2-8.9 17.7-9.7 18.8-0.9 1.1-5.1 7.2-9.5 13.5-4.3 6.2-7.8 12.2-7.8 13.3 0 1.1-0.7 2.2-1.5 2.5-0.9 0.3-4.7 4.5-8.4 9.4-3.8 4.9-8 10.1-9.3 11.4-1.3 1.4-5.6 2.5-9.5 2.5-3.9 0-7.5-0.9-8-2-0.6-1.1-2.4-1.9-4-1.9-1.6 0-8.1-2.4-14.4-5.2-6.2-2.9-14.5-6.7-18.3-8.4-3.8-1.8-7.4-3.7-7.9-4.3-0.6-0.5-2.8-1.9-5-3.1-2.2-1.2-7.1-3.9-10.9-6-3.8-2.1-11.8-7.3-17.8-11.6-6.1-4.4-12.5-9.7-14.4-11.9-1.9-2.3-5.8-9-8.7-15-4.4-9.2-5.1-12.7-4.2-22.8 0.5-7 2.8-15.1 5.4-19.8 2.4-4.4 6.3-9.7 8.7-11.9 2.3-2.2 8-5.9 12.6-8.4 6.4-3.4 11.8-4.5 21.9-4.5 7.5-0.1 15.9 1.1 19.3 2.7 3.3 1.6 7.9 3.4 10.4 4 3.6 1 6.8-1.2 16.9-11.6 7.8-8.1 14.6-13.3 18.5-14.1 3.4-0.7 6.8-2.1 7.5-3.1 0.8-0.9 6.3-1.7 12.2-1.7zm-230.1 714c125.9-0.1 156.2 0.4 162.6 2.6 4.4 1.5 14.9 3.3 38.7 5.2l2.2 7.4c1.2 4.1 4.1 11.7 6.4 16.9 2.3 5.2 5.4 9.5 6.7 9.4 1.4 0 3 1.3 3.5 3 0.9 2.6-20.6 3-185.4 3-161.8 0-187.4-0.4-193.8-3.1-4.1-1.6-9-5.6-10.9-8.9-1.9-3.2-3.5-9.5-3.5-13.8 0-4.4 0.9-8 2-8 1.1 0 1.9-1.1 1.9-2.5-0.1-1.3 1.9-3.8 4.4-5.4 2.5-1.6 5.9-3.6 7.6-4.3 1.6-0.8 72.5-1.4 157.6-1.5zm558.2 0.6c154.4 0.2 157.8 0.3 162.8 4.2 2.9 2.2 6.2 6.2 7.5 8.9 1.2 2.8 2.3 7.5 2.2 10.5 0 3-2 8.2-4.4 11.7-2.5 3.5-7.4 7.5-10.9 8.9-5.2 2.1-43.4 2.7-192.9 2.7-164.8 0-186.3-0.4-185.4-3 0.6-1.7 2.1-3 3.5-3 1.3 0.1 4.4-4.2 6.7-9.4 2.4-5.2 5.3-12.6 6.4-16.4 2-6.3 3-7.1 11.6-8.4 5.2-0.8 12.2-1.6 15.4-1.6 3.3-0.1 9.1-1.3 12.9-2.8 5.6-2.1 37.5-2.5 164.6-2.3zm-273.6-497.4c51.8 0.4 104 1.6 116 2.5 12 1 24.7 2.8 28.2 4.1 3.6 1.2 6.5 3.1 6.5 4.2 0 1.1 1.3 2 2.9 2 1.7 0 3 0.7 3 1.5 0 0.8 3.2 5.1 7.1 9.4 3.9 4.4 8.6 10.4 10.4 13.4 1.8 3 4 5.5 4.8 5.5 0.8 0 2 2.2 2.5 4.9 0.5 2.7 1.9 5 3 5 1.1 0 2 1.3 2 3 0 1.6 0.8 2.9 1.9 2.9 1.1 0 2 1.4 2 3 0 1.6 2.1 6.3 4.6 10.4 2.5 4.1 6.9 12.4 9.7 18.4 2.8 6 6.6 14.2 8.3 18.3 1.8 4.1 3.2 8.8 3.2 10.4 0 1.6 0.9 3 2 3 1.1 0 2 1.8 2 3.9 0 2.2 1.1 6.2 2.4 8.9 1.4 2.8 2.1 5.5 1.5 6.1-0.5 0.6-7.7 0-15.8-1.2-8.2-1.3-22.5-3.1-31.8-3.9-9.2-0.9-28.9-2.7-43.6-4-16.9-1.5-67.2-2.4-136.8-2.5-70.4 0-120.4 0.9-138.8 2.4-15.8 1.4-36.3 3.2-45.6 4-9.3 0.9-23.6 2.7-31.7 4-8.2 1.2-15.4 1.8-15.9 1.2-0.6-0.6 0.1-3.3 1.5-6.1 1.3-2.7 2.5-6.7 2.5-8.9 0-2.1 0.8-3.9 1.9-3.9 1.1 0 2-1.4 2-3 0-1.6 1.4-6.3 3.2-10.4 1.7-4.1 6.8-15 11.4-24.3 4.5-9.3 8.9-17.1 9.7-17.3 0.8-0.3 1.5-2.3 1.5-4.5 0-2.2 0.9-4 2-4 1.1 0 2-1.3 2-2.9 0-1.7 0.9-3 1.9-3 1.1 0 2.5-2.3 3-5 0.6-2.7 1.7-4.9 2.5-4.9 0.8 0 3-2.5 4.8-5.5 1.8-3 6.5-9 10.4-13.4 3.9-4.3 7.1-8.6 7.1-9.4 0-0.8 1.3-1.5 3-1.5 1.6 0 3-0.9 3-2 0-1.1 4.2-3.3 9.4-4.9 5.2-1.7 16.5-3.1 25.3-3.2 8.7 0 19.8-0.8 24.7-1.7 5-1 51.4-1.4 103.2-1zm-209.1 16.8c1.6 0 2.4 1.2 1.8 3-0.5 1.6-1.8 2.9-2.9 2.9-1.1 0-2 1.4-2 3 0 1.6-0.7 3.2-1.5 3.5-0.9 0.3-4.4 4.9-7.9 10.4-3.4 5.4-9.4 16.2-13.3 23.8-3.9 7.6-7.1 15-7.1 16.3 0 1.4-0.9 2.5-1.9 2.5-1.1 0-2.5 2.7-3 6-0.6 3.2-1.9 6.4-3 6.9-1.1 0.6-2 3.2-2 6 0 2.7-0.6 4.9-1.5 4.9-0.8 0-3.1 5.6-5.1 12.4-2 6.8-4.4 14-5.4 15.9-1 1.9-1.8 5-1.8 6.9 0.1 1.9-1 4.5-2.4 5.8-1.5 1.2-6.9 2.8-12 3.5-5.8 0.7-9.4 0.4-9.4-0.9 0-1 1-4.4 2.2-7.4 1.2-3 2.9-7.2 3.7-9.4 0.8-2.2 3.1-8 5-12.9 1.9-4.9 5.6-13.6 8.2-19.3 2.5-5.8 4.6-11.3 4.6-12.4 0-1.1 0.7-2 1.5-2 0.9 0 2.6-3.1 4-6.9 1.4-3.9 3.6-8.1 5-9.5 1.3-1.3 4.2-5.8 6.4-9.9 2.2-4.1 4.6-7.4 5.5-7.4 0.8 0 1.6-1 1.7-2.1 0.2-1.1 2.5-4.5 5.2-7.4 2.8-2.9 4.9-6 4.7-6.9-0.1-0.8 2.5-4.1 5.9-7.4 3.3-3.3 6.5-6 7-6 0.6 0 2.4-1.3 4-2.9 1.6-1.7 4.2-3 5.8-3zm406.5 0c1.5 0 4.2 1.3 5.8 3 1.6 1.6 3.4 2.9 4 2.9 0.5 0 3.6 2.7 6.9 6 3.3 3.3 6 6.4 6 6.9 0 0.6 1.1 2.4 2.4 4.1 1.4 1.6 3.6 4.3 5 5.9 1.4 1.6 2.5 3.8 2.5 4.9 0 1.1 0.7 2 1.5 2 0.8 0 3.2 3.3 5.4 7.4 2.2 4.1 5.1 8.6 6.5 9.9 1.3 1.4 3.6 5.6 4.9 9.5 1.4 3.8 3.2 6.9 4 6.9 0.8 0 1.5 0.9 1.5 2 0 1.1 2.3 7.1 5.1 13.4 2.8 6.2 6.3 13.8 7.9 16.8 1.6 3 2.8 7 2.8 8.9 0 1.9 0.6 4.3 1.5 5.2 0.8 0.9 2.6 4.9 4 8.9 1.3 4 2.4 7.9 2.4 8.7 0.1 0.9-4.2 1-9.3 0.3-5.2-0.7-10.6-2.3-12-3.5-1.4-1.2-2.6-3.8-2.5-5.7 0-1.9-0.7-5-1.8-6.9-1-1.9-3.4-9.1-5.4-15.9-2-6.8-4.3-12.4-5.1-12.4-0.8 0-1.5-2.2-1.5-4.9 0-2.8-0.9-5.4-2-6-1.1-0.5-2.4-3.7-3-6.9-0.5-3.3-1.8-6-2.9-6-1.1 0-2-1.3-2-2.9 0-1.7-1.6-5.9-3.5-9.5-1.9-3.5-4.1-6.6-4.9-6.9-0.9-0.3-1.5-1.8-1.5-3.5 0-1.6-3.8-9-8.4-16.3-4.7-7.4-9.1-13.6-9.9-13.9-0.9-0.3-1.6-1.9-1.6-3.5 0-1.6-0.9-3-1.9-3-1.1 0-2.4-1.3-2.9-2.9-0.5-1.7 0.3-3 2-3zm-580.8 99.1c15.2 0 24.2 0.9 27.9 2.8 3 1.5 8.6 6.5 12.4 11.2 3.8 4.7 7.9 10.4 9.1 12.6 1.1 2.3 3.8 8.8 5.9 14.4 3.4 9.1 3.5 10.6 0.9 13.5-2.6 2.8-8.5 3.2-44.1 3.1-22.7 0-42.5-0.5-44.2-1.1-2.3-0.7-3-5.4-3.5-45.2l6.6-5.6c6.4-5.5 7.3-5.7 29-5.7zm754.2 0c22.1-0.1 23 0.1 35.5 10.9l0.1 22.3c0.1 18.2-0.5 22.5-2.9 23.3-1.6 0.6-21.5 1.1-44.1 1.1-35.6 0.1-41.6-0.3-44.2-3.1-2.6-2.9-2.5-4.4 0.9-13.5 2.1-5.6 5.6-13.4 7.7-17.2 2.1-3.8 5.7-9 8.1-11.5 2.3-2.6 6.8-6.4 10.1-8.4 5-3.2 9.7-3.9 28.8-3.9zm-379.8 40c48-0.2 95.8 0.5 106.1 1.6 10.4 1.1 32.2 3 48.6 4.2 16.4 1.2 35.6 2.9 42.6 3.8 7.1 1 21.6 2.9 32.3 4.3 12.8 1.8 19.3 3.5 19.3 5.1 0 1.4-3.3 3.5-7.4 4.6-4.1 1.2-9.3 2.9-11.4 3.8-2.2 0.9-9.1 4-15.4 6.8-6.3 2.8-12.1 5.1-12.9 5.1-0.8 0-6.2 2.2-11.9 5-5.7 2.7-11.3 5-12.4 5-1.1 0-2 0.6-2 1.5 0 0.8-4.2 3.2-9.4 5.3-5.2 2.1-9.9 4.3-10.4 4.9-0.5 0.6-4.6 2.9-8.9 5-4.4 2.2-15.1 8.4-23.8 13.9-8.7 5.4-16.1 10.6-16.4 11.5-0.3 0.8-1.4 1.5-2.5 1.5-1 0-8.4 4.7-16.3 10.4-7.9 5.7-15.6 11.5-17 12.8-1.5 1.4-3.5 2.6-4.5 2.6-1 0-6.5-2.4-12.2-5.3-7.6-3.7-13.4-5.2-21.3-5.1-7 0-14.6 1.6-20.9 4.5-8.5 3.8-10.6 4.1-14.8 1.9-2.8-1.3-6.6-3.2-8.5-4.2-1.9-1-8.8-1.7-15.3-1.7-8.8 0-14.6 1.3-21.8 4.9-5.5 2.7-10.9 5-11.9 5-1.1 0-3.1-1.1-4.5-2.5-1.4-1.4-6.1-5.1-10.4-8.3-4.4-3.2-8.4-6.4-8.9-7.1-0.6-0.7-4.2-3-8-5.1-3.8-2.1-7.4-4.3-7.9-5-0.5-0.7-10.8-7.1-22.8-14.3-12-7.3-22.9-13.2-24.3-13.2-1.4 0-2.5-0.7-2.5-1.5 0.1-0.9-4.4-3.3-9.9-5.5-5.5-2.2-9.9-4.6-9.9-5.4 0-0.9-0.9-1.5-2-1.5-1.1 0-6.7-2.3-12.4-5-5.7-2.8-11.1-5-11.9-5-0.8 0-6.6-2.3-12.9-5.1-6.2-2.8-12.7-5.8-14.3-6.7-1.7-0.8-6.8-2.5-11.4-3.8-4.7-1.2-8.5-3.4-8.5-4.9 0-1.8 5.7-3.3 19.4-5.1 10.6-1.3 25.5-3.2 33.2-4.1 7.6-1 26.8-2.7 42.6-3.9 15.8-1.2 35.9-2.9 44.6-3.8 8.7-0.9 55.1-1.8 103.1-1.9zm-295.6 33.4c1.2-0.1 7.1 1.4 13.1 3.2 6 1.7 12.7 3.9 14.8 4.7 2.2 0.9 8.5 3.1 13.9 5 5.5 1.8 12.8 4.6 16.4 6.1 3.5 1.6 6.9 2.8 7.4 2.8 0.6 0 4.8 1.7 9.4 3.8 4.7 2 12.7 5.4 17.9 7.4 5.1 2 9.4 4.4 9.4 5.2 0 0.8 1.1 1.5 2.5 1.5 1.3 0 10.7 4.2 20.9 9.4 10.1 5.2 18.4 10.1 18.3 10.9 0 0.8-2.1 2.4-4.5 3.5-2.5 1-6 3-7.9 4.4-2.8 2-4.4 2-8-0.3-2.4-1.6-7.1-4.3-10.3-6-3.2-1.7-7-4.2-8.4-5.6-1.4-1.3-3.9-2.5-5.6-2.5-1.6 0-2.9-0.8-2.9-1.9 0-1.1-1.2-2-2.5-2.1-1.4 0-8.8-3-16.4-6.7-7.6-3.6-16.5-7.7-19.8-9.1-3.3-1.3-14-5-23.8-8.1-9.8-3.2-19-5.7-20.3-5.8-1.4 0-4.1-0.8-6-1.8-1.9-1.1-6.8-2.4-10.9-3-4.1-0.6-7.4-1.6-7.4-2.1 0-0.6 1.9-3.7 4.3-6.9 2.3-3.3 5.2-6 6.4-6zm596.1 0.2c1.6-0.2 4.9 2.4 7.4 5.7 2.4 3.3 4.5 6.4 4.5 7 0 0.5-3.4 1.5-7.5 2.1-4.1 0.6-9.2 1.9-11.4 2.8-2.2 0.9-9.8 3.1-16.8 5-7.1 1.9-15.6 4.6-18.9 6-3.3 1.4-9.5 3.7-13.9 5.1-4.3 1.5-13.7 5.6-20.8 9.2-7.1 3.5-14 6.5-15.3 6.5-1.4 0-2.5 0.9-2.5 2 0 1.1-1.3 1.9-2.9 1.9-1.5 0-4 1.2-5.5 2.5-1.5 1.4-5.4 3.9-8.6 5.6-3.2 1.7-7.8 4.4-10.3 6-3.6 2.3-5.1 2.3-7.9 0.3-1.9-1.4-5.5-3.4-8-4.4-2.4-1.1-4.5-2.7-4.5-3.5-0.1-0.8 8.2-5.7 18.3-10.9 10.2-5.2 19.6-9.4 20.9-9.4 1.4 0 2.5-0.7 2.5-1.5 0-0.8 4.3-3.2 9.4-5.2 5.2-2 13.3-5.4 17.9-7.4 4.6-2.1 8.9-3.8 9.4-3.8 0.6 0 3.9-1.2 7.4-2.8 3.6-1.5 11-4.3 16.4-6.1 5.5-1.9 11.7-4.1 13.9-4.9 2.2-0.9 8.4-2.9 13.9-4.6 5.4-1.7 11.2-3.1 12.9-3.2zm-621.7 39.7c4.4-0.1 14.6 1.7 22.8 4 8.2 2.3 17.4 4.7 20.6 5.4 3.1 0.7 6 1.9 6.4 2.8 0.4 0.8 2.3 1.4 4.2 1.5 1.9 0 6.2 1.3 9.5 3 3.2 1.7 6.6 3 7.4 3 0.8-0.1 6.2 2.1 11.9 4.9 5.7 2.7 11.5 4.9 12.9 4.9 1.3 0 2.4 0.7 2.4 1.5 0 0.8 4.5 3.3 10 5.4 5.4 2.2 9.9 4.5 9.9 5 0 0.5 3.3 2.8 7.4 5 4.1 2.1 8.6 5 9.9 6.4 1.4 1.4 3.4 2.5 4.5 2.5 1.3 0 2 17.4 2 48.1 0.1 42.5 0.5 49 3.7 56 2.1 4.4 5.8 10.3 8.4 13.2 2.6 2.9 8.1 7.1 12.2 9.4 5.5 3.1 10.9 4.2 20.8 4.1 9.4 0 17.8-1.6 28.2-5.2 8.2-2.9 15.4-5.8 15.9-6.5 0.6-0.6 4.6-3.2 8.9-5.7 4.4-2.5 9.5-5 11.4-5.5 1.9-0.4 3.5-1.7 3.5-2.8 0-1.1 0.9-1.6 2-1q2 1 0 4.9c-1.1 2.2-2 5.8-2 8 0 2.2-0.9 3.9-2 3.9-1.1 0-2 1.4-2 3 0 1.7-3.7 10.2-8.4 19-4.6 8.8-13.1 21.7-29.2 41.5l-284.6-1-0.6-65.4c-0.4-47.5 0.1-69.4 2-79.9 1.4-7.9 3.2-14.4 4.1-14.4 0.8 0.1 1.4-1 1.4-2.4 0-1.4 2.6-6.5 5.9-11.4 3.2-4.9 7.9-11.3 10.4-14.1 2.5-2.8 6.4-7.6 8.5-10.6 2.2-3 6-7.8 8.4-10.7 2.4-2.9 7-8.4 10.4-12.2 3.3-3.8 6-7.6 6-8.4 0-0.8 1.6-3.2 3.5-5.3 2.3-2.5 6.2-3.8 11.4-3.9zm-7.9 82.9c-4.4 2.1-9.9 5.4-12.2 7.4-2.4 2-6.2 5-8.6 6.6-2.3 1.7-6.9 7.2-10.1 12.4-3.2 5.2-5.8 11.2-5.8 13.4 0 2.2-0.9 4.4-2 5-1.1 0.5-2 8.1-2 16.8 0 8.7 0.8 17.4 1.7 19.4 0.9 1.9 3.6 7.4 5.9 12.3 2.3 5 8.1 12.8 12.7 17.5 4.7 4.6 9.6 8.4 10.9 8.4 1.4 0 2.5 0.6 2.5 1.4 0 0.8 4.2 3.1 9.4 5 5.7 2.1 14.9 3.4 23.3 3.4 7.8 0 18.5-1.5 24.4-3.5 5.7-1.9 10.4-4.1 10.4-4.9 0-0.8 0.8-1.5 1.9-1.5 1.1 0 6.5-4.4 11.9-9.9 5.5-5.4 11.9-14.1 14.3-19.3 3.5-7.5 4.4-13.2 4.5-27.3 0-13.3-0.8-19.6-3.4-24.8-2-3.8-3.5-7.6-3.5-8.4 0-0.8-1.1-2.7-2.5-4.1-1.3-1.5-4.7-5.5-7.4-8.9-2.7-3.5-6.1-6.3-7.4-6.3-1.4 0-2.5-0.9-2.5-2 0-1.1-4.7-4.1-10.4-6.7-5.7-2.7-15.8-5.2-22.3-5.7-6.6-0.6-15-0.6-18.9-0.2-3.8 0.5-10.5 2.5-14.8 4.5zm656.3-83c5.6-0.1 9 1 11.4 3.8 1.9 2.2 3.5 4.7 3.5 5.5 0 0.8 2.7 4.6 6 8.4 3.3 3.8 7.6 8.7 9.5 10.9 2 2.2 6.2 7.5 9.4 11.9 3.2 4.4 7.5 9.7 9.4 11.9 2 2.2 6.3 8 9.5 12.9 3.2 4.9 5.8 10 5.8 11.4 0 1.4 0.6 2.5 1.5 2.4 0.8 0 2.6 6.5 4 14.4 1.9 10.5 2.5 32.4 1.4 145.3l-283.6 1-6.6-7.4c-3.6-4.1-8.6-10.1-11.1-13.4-2.6-3.3-8.3-12.7-12.7-20.8-4.5-8.2-8.1-16.5-8.2-18.4 0-1.9-0.9-3.5-2-3.5-1.1 0-2-1.7-2-3.9 0-2.2-0.9-5.8-2-8q-2-3.9 0-4.9c1.1-0.6 2-0.1 2 1 0 1.1 1.6 2.4 3.5 2.8 1.9 0.5 7 3 11.4 5.5 4.3 2.5 8.4 5.1 8.9 5.7 0.6 0.7 7.7 3.6 15.9 6.5 10.4 3.6 18.9 5.2 28.2 5.2 10 0.1 15.3-1 20.9-4.1 4-2.3 9.5-6.5 12.1-9.4 2.6-2.9 6.4-8.8 8.4-13.2 3.2-7 3.7-13.5 3.7-56 0-28.3 0.8-48.1 1.9-48.1 1 0 3-1.1 4.4-2.5 1.5-1.4 6-4.3 10.1-6.4 4.1-2.2 7.5-4.7 7.5-5.5-0.1-0.8 1.3-1.5 2.9-1.5 1.6 0 6.6-2.2 10.9-4.9 4.4-2.8 8.6-5 9.4-5 0.9 0 6.2-2.2 11.9-4.9 5.8-2.8 11.1-5 11.9-4.9 0.9 0 4.2-1.3 7.5-3 3.2-1.7 7.5-3 9.5-3 1.9-0.1 3.8-0.7 4.2-1.5 0.4-0.9 3.2-2.1 6.4-2.8 3.1-0.8 12.3-3.1 20.5-5.3 8.2-2.2 18.5-4.1 22.8-4.2zm-49.1 84.7c-5.1 2.4-9.4 5.3-9.4 6.4 0 1.1-1.2 2-2.7 2-1.5 0-4.9 2.8-7.5 6.3-2.5 3.4-5.8 7.4-7.1 8.9-1.4 1.4-2.5 3.3-2.5 4.1 0.1 0.8-1.5 4.6-3.4 8.4-2.6 5.2-3.5 11.5-3.5 24.8 0.1 14.1 1.1 19.8 4.5 27.3 2.4 5.2 8.6 13.8 13.8 19.2 5.2 5.5 10.5 9.9 11.9 10 1.4 0 2.5 0.7 2.5 1.5 0 0.8 4.2 3 9.4 4.9 5.7 2.1 15.3 3.5 24.3 3.5 9.4 0 18.3-1.2 24.3-3.4 5.2-1.9 9.4-4.2 9.4-5 0-0.8 1.1-1.5 2.5-1.4 1.3 0 5.5-2.9 9.2-6.5 3.7-3.5 9.3-10.5 12.4-15.4 3.2-4.9 5.7-10.9 5.7-13.4 0-2.4 0.8-4.4 1.9-4.4 1.2 0 2-7 2-16.9 0-9.3-0.9-17.3-2-17.8-1.1-0.6-2-2.8-2-5 0-2.2-2.3-7.8-5.2-12.4-2.8-4.6-8.4-11.3-12.4-14.9-3.9-3.5-11.6-8.6-17.1-11.2-5.4-2.6-15.2-5.1-21.8-5.7-6.5-0.6-15.4-0.4-19.8 0.3-4.4 0.8-12.2 3.4-17.4 5.8zm-413.9-39.1c1.6-0.1 6.5 0.9 10.9 2.1 4.4 1.2 10.8 3.5 14.4 5 3.5 1.5 7.3 2.7 8.4 2.7 1.1 0 2 0.7 2 1.5 0 0.8 2.4 2.5 5.4 3.8 3 1.4 9.3 5.1 13.9 8.5 7.1 5 8.3 6.9 7.6 11.5-0.5 3-0.9 6.1-1 6.9-0.1 0.8-7.9 1.5-17.5 1.5-17.2-0.1-17.4 0-20.8 5.9-2.4 4.1-3 7.6-2 11.3 0.8 2.9 3.3 6.4 5.5 7.9 2.7 1.9 10.7 2.7 26.2 2.7 16.6 0 22.3 0.6 22.3 2.4 0 1.4-6.5 7-14.4 12.5-7.8 5.5-17.9 11.7-22.2 13.9-4.4 2.1-8.4 4.3-9 4.9-0.5 0.5-5.4 2.5-10.9 4.5-5.4 1.9-13 3.4-16.8 3.3-4 0-8.9-1.7-11.4-3.9-4.4-3.9-4.5-4.9-5.4-100.8l5.9-4c3.3-2.3 7.3-4.1 8.9-4.1zm276.6 0.1c2.2-0.1 6.4 1.8 14.7 8.7l0.1 48.1c0.1 47.4 0 48.1-4.4 52-2.4 2.1-7.1 3.9-10.4 4-3.2 0-10.8-1.5-16.8-3.3-6-1.9-11.4-3.9-11.9-4.5-0.6-0.6-4.6-2.9-8.9-5.1-4.4-2.1-8.4-4.4-9-4.9-0.5-0.6-7-5.1-14.4-10-7.3-4.9-13.3-10-13.3-11.4 0-1.8 5.7-2.4 22.3-2.4 15.5 0 23.5-0.8 26.2-2.7 2.2-1.5 4.7-5 5.5-7.9 1-3.7 0.4-7.2-2-11.3-3.4-5.9-3.6-6-20.8-5.9-9.5 0-17.4-0.7-17.5-1.5-0.1-0.8-0.5-3.9-1-6.9-0.7-4.6 0.5-6.5 7.6-11.5 4.6-3.4 10.9-7.1 14-8.4 3-1.3 5.5-3.1 5.4-3.9 0-0.8 0.8-1.5 1.9-1.5 1.1 0 4.4-1.1 7.4-2.4 3-1.2 9.1-3.4 13.4-4.7 4.4-1.3 9.7-2.4 11.9-2.6zm-167.7 17.6c5.1-0.1 9.1 1.6 14 5.9 3.9 3.2 8.1 6.8 9.5 7.9 1.3 1.2 4.2 2.1 6.4 2.1 2.2 0 5.1-0.9 6.5-2 1.3-1.1 5.6-4.7 9.4-7.9 4.7-4.1 9.1-5.9 13.9-6 5.2 0 8.4 1.5 12.8 6.1 4.6 4.6 6 7.8 5.8 13.4-0.1 4.6-2.3 10.5-6.1 16.2-3.3 4.9-10.8 13.6-16.7 19.4-5.9 5.7-11.4 10.4-12.2 10.4-0.8 0-3.9 2.2-6.9 4.9-3 2.7-5.9 5-6.5 4.9-0.5 0-4.1-2.7-7.9-6-3.8-3.3-7.4-5.9-8-5.8-0.5 0-5.3-4.2-10.6-9.4-5.4-5.2-12.4-13.5-15.7-18.4-3.9-5.7-6.1-11.6-6.2-16.2-0.1-5.5 1.3-8.8 5.6-13.4 4.4-4.5 7.7-6.1 12.9-6.1zm-2.2 87.3c0.8 0 2.7 0.9 4.4 1.9 2.4 1.5 2.6 4.3 1.4 15.3-0.8 7.4-2.3 18.9-3.3 25.4-1 6.5-2.6 15.5-3.7 19.8-1 4.4-2.9 12-4.3 16.9-1.4 4.9-4.9 14.1-7.8 20.4-2.8 6.3-5.8 11.4-6.6 11.4-0.9-0.1-1.5-1.2-1.5-2.6 0-1.3-2.4-4.9-5.4-7.9-3.7-3.6-7.7-5.4-12-5.4-3.5 0-6.4-0.7-6.5-1.5 0-0.9 1.6-3.3 3.6-5.5 2-2.2 5.4-7.1 7.5-10.9 2.1-3.8 5-8 6.3-9.4 1.4-1.4 3.6-5.6 5-9.5 1.3-3.8 3.1-6.9 4-6.9 0.8 0 1.4-1.3 1.4-3 0-1.6 1.5-6.3 3.3-10.4 1.8-4.1 3.9-9.2 4.8-11.4 0.8-2.1 2.6-8.4 4-13.8 1.3-5.5 2.8-10.6 3.2-11.4 0.4-0.9 1.4-1.5 2.2-1.5zm64.3 0c0.9 0 1.9 1.1 2.3 2.4 0.4 1.4 1.8 6.5 3.2 11.4 1.3 5 3.1 10.8 3.9 12.9 0.8 2.2 2.9 7.3 4.7 11.4 1.8 4.1 3.3 8.8 3.3 10.4 0 1.7 0.7 3 1.5 3 0.8 0 2.6 3.1 3.9 6.9 1.4 3.9 3.6 8.1 5 9.5 1.4 1.4 4.2 5.6 6.3 9.4 2.2 3.8 5.5 8.7 7.5 10.9 2 2.2 3.6 4.6 3.6 5.5 0 0.8-3 1.5-6.5 1.5-4.3 0-8.3 1.8-11.9 5.4-3.1 3-5.5 6.6-5.5 7.9 0 1.4-0.6 2.5-1.4 2.6-0.9 0-3.8-5.1-6.7-11.4-2.8-6.3-6.1-14.6-7.4-18.4-1.2-3.8-3.2-11.4-4.4-16.9-1.2-5.4-2.9-14.8-3.9-20.8-1-6-2.5-17.4-3.3-25.4-1.3-11.9-1.1-14.8 1.4-16.3 1.6-1 3.6-1.9 4.4-1.9zm-31.9 43.6c1.1 0 2.5 4.2 3.1 9.4 0.5 5.2 1.9 13 2.9 17.4 1.1 4.3 2.3 10.3 2.8 13.3 0.8 5.4 0.6 5.5-9.1 5.5-9.7 0-9.9-0.1-9.1-5.5 0.5-3 1.7-9 2.8-13.3 1.1-4.4 2.5-12.2 3.2-17.4 0.8-5.2 2.3-9.4 3.4-9.4zm-0.8 73.5c10.1-0.1 19.7 0.3 21.3 0.9 1.7 0.5 3 1.8 3 2.9 0 1.1 4.7 10.1 10.4 19.9 5.7 9.8 11.1 17.8 11.9 17.8 0.8 0 2.8 1.3 4.5 3 2.6 2.6-3 3-50.7 3-47.7 0-53.4-0.4-50.7-3 1.6-1.7 3.7-3 4.6-3 0.9 0 6.4-7.9 12.4-17.7 5.9-9.7 10.4-18.6 10-19.7-0.4-1 0.5-2.4 2.1-2.9 1.6-0.6 11.1-1.1 21.2-1.2zm-394.1 75.2h109.1v28.8c0 27.8-0.2 29-5.5 37.6-3 5-6.6 9-7.9 9-1.4 0-2.8 1.1-3.2 2.4-0.5 1.9-9.8 2.5-38 2.5-28.2 0-37.5-0.6-38-2.5-0.3-1.3-1.5-2.4-2.6-2.4-1.1 0-3.3-1.4-5-3-1.6-1.6-2.9-3.9-2.9-5 0-1.1-0.7-1.9-1.5-1.9-0.9 0-2.7-3.8-4.2-8.4-1.8-5.8-2.3-13.9-1.5-25.4 0.6-9.2 1.1-20.2 1.1-24.3zm680.2 0h108.1l1.5 9.4c0.8 5.2 1.4 17.1 1.3 26.3-0.1 9.3-1.2 19.7-2.5 23.1-1.3 3.4-4.1 8.6-6.3 11.4-2.2 2.9-5.1 5.2-6.4 5.2-1.4 0-2.8 1.1-3.2 2.5-0.5 1.9-9.8 2.5-38 2.5-28.2 0-37.5-0.6-38-2.5-0.3-1.4-1.8-2.5-3.1-2.5-1.4 0-5-4-8-8.9-5.2-8.7-5.4-9.8-5.4-37.7zm-592.4-237.8c1.9-0.1 7.5 1 12.4 2.3 4.9 1.4 8.9 3.2 8.9 4 0 0.8 0.9 1.5 2 1.5 1.1 0 3.5 1.5 5.4 3.4 1.9 1.9 5.5 7.2 8 11.9 2.5 4.9 4.4 12.1 4.5 16.9 0 4.6-1.5 11.6-3.4 15.4-1.8 3.8-6.6 10-10.6 13.9-4.3 4-11.1 7.9-16.5 9.4-7.2 1.9-11.1 1.9-17.7 0.1-4.6-1.3-10.6-3.8-13.3-5.5-2.8-1.7-6.5-4.8-8.4-7-1.9-2.2-3.4-5.1-3.5-6.5 0-1.3-1.1-2.7-2.3-2.9-1.3-0.3-2.7-5.8-3.3-12.4-0.6-8.4 0-14 2.2-18.9 1.8-3.8 5.4-9.1 8.1-11.9 2.6-2.7 6.2-6 8-7.4 1.7-1.4 6-3.3 9.6-4.3 3.5-1 8-1.9 9.9-2zm610.7 0.1c1.9-0.1 7.5 0.6 12.4 1.7 4.9 1.1 8.9 2.9 8.9 4 0 1.1 1.4 2 3 2 1.7 0 5.9 4.2 9.4 9.4 5.9 8.5 6.5 10.8 6.5 24.1 0 10.1-0.8 14.9-2.5 15.4-1.4 0.4-2.5 1.8-2.5 3.1-0.1 1.4-1.6 4.3-3.5 6.5-1.9 2.2-5.6 5.3-8.4 7-2.7 1.7-8.7 4.2-13.4 5.5-6.6 1.8-10.4 1.8-17.6-0.1-5.4-1.5-12.2-5.4-16.5-9.4-4-3.9-8.8-10.1-10.7-13.9-1.8-3.8-3.3-10.8-3.3-15.4 0-4.8 2-12 4.5-16.9 2.5-4.7 6-10 7.8-11.9 1.8-1.9 4.3-3.4 5.5-3.4 1.1 0 2.1-0.7 2.1-1.5-0.1-0.8 3.3-2.5 7.4-3.7 4.1-1.2 9-2.4 10.9-2.5z"/>
</svg>